%TF.GenerationSoftware,KiCad,Pcbnew,(7.0.0-0)*%
%TF.CreationDate,2023-04-01T00:14:55-07:00*%
%TF.ProjectId,bussboipanel,62757373-626f-4697-9061-6e656c2e6b69,rev?*%
%TF.SameCoordinates,Original*%
%TF.FileFunction,Copper,L2,Bot*%
%TF.FilePolarity,Positive*%
%FSLAX46Y46*%
G04 Gerber Fmt 4.6, Leading zero omitted, Abs format (unit mm)*
G04 Created by KiCad (PCBNEW (7.0.0-0)) date 2023-04-01 00:14:55*
%MOMM*%
%LPD*%
G01*
G04 APERTURE LIST*
G04 APERTURE END LIST*
%TA.AperFunction,NonConductor*%
G36*
X111063000Y-29480613D02*
G01*
X111108387Y-29526000D01*
X111125000Y-29588000D01*
X111125000Y-157991000D01*
X111108387Y-158053000D01*
X111063000Y-158098387D01*
X111001000Y-158115000D01*
X70863000Y-158115000D01*
X70801000Y-158098387D01*
X70755613Y-158053000D01*
X70739000Y-157991000D01*
X70739000Y-155097141D01*
X75642582Y-155097141D01*
X75662237Y-155346876D01*
X75663372Y-155351605D01*
X75663373Y-155351609D01*
X75719578Y-155585724D01*
X75719580Y-155585732D01*
X75720716Y-155590461D01*
X75816581Y-155821900D01*
X75947471Y-156035492D01*
X75950635Y-156039197D01*
X75950639Y-156039202D01*
X76106995Y-156222271D01*
X76110162Y-156225979D01*
X76113869Y-156229145D01*
X76296938Y-156385501D01*
X76296941Y-156385503D01*
X76300649Y-156388670D01*
X76514241Y-156519560D01*
X76745680Y-156615425D01*
X76989265Y-156673904D01*
X77239000Y-156693559D01*
X77488735Y-156673904D01*
X77732320Y-156615425D01*
X77963759Y-156519560D01*
X78177351Y-156388670D01*
X78367838Y-156225979D01*
X78530529Y-156035492D01*
X78661419Y-155821900D01*
X78757284Y-155590461D01*
X78815763Y-155346876D01*
X78835418Y-155097141D01*
X78815763Y-154847406D01*
X78757284Y-154603821D01*
X78661419Y-154372382D01*
X78530529Y-154158790D01*
X78367838Y-153968303D01*
X78364130Y-153965136D01*
X78181061Y-153808780D01*
X78181056Y-153808776D01*
X78177351Y-153805612D01*
X78173195Y-153803065D01*
X78173192Y-153803063D01*
X77967917Y-153677270D01*
X77967916Y-153677269D01*
X77963759Y-153674722D01*
X77732320Y-153578857D01*
X77727591Y-153577721D01*
X77727583Y-153577719D01*
X77493468Y-153521514D01*
X77493464Y-153521513D01*
X77488735Y-153520378D01*
X77483882Y-153519996D01*
X77243854Y-153501105D01*
X77239000Y-153500723D01*
X77234146Y-153501105D01*
X76994117Y-153519996D01*
X76994115Y-153519996D01*
X76989265Y-153520378D01*
X76984537Y-153521512D01*
X76984531Y-153521514D01*
X76750416Y-153577719D01*
X76750404Y-153577722D01*
X76745680Y-153578857D01*
X76741183Y-153580719D01*
X76741179Y-153580721D01*
X76518745Y-153672856D01*
X76518740Y-153672858D01*
X76514241Y-153674722D01*
X76510088Y-153677266D01*
X76510082Y-153677270D01*
X76304807Y-153803063D01*
X76304798Y-153803069D01*
X76300649Y-153805612D01*
X76296949Y-153808771D01*
X76296938Y-153808780D01*
X76113869Y-153965136D01*
X76113862Y-153965142D01*
X76110162Y-153968303D01*
X76107001Y-153972003D01*
X76106995Y-153972010D01*
X75950639Y-154155079D01*
X75950630Y-154155090D01*
X75947471Y-154158790D01*
X75944928Y-154162939D01*
X75944922Y-154162948D01*
X75819129Y-154368223D01*
X75819125Y-154368229D01*
X75816581Y-154372382D01*
X75720716Y-154603821D01*
X75719581Y-154608545D01*
X75719578Y-154608557D01*
X75663373Y-154842672D01*
X75663371Y-154842678D01*
X75662237Y-154847406D01*
X75642582Y-155097141D01*
X70739000Y-155097141D01*
X70739000Y-130929706D01*
X82384011Y-130929706D01*
X82403243Y-131272157D01*
X82403822Y-131275567D01*
X82403824Y-131275581D01*
X82460113Y-131606875D01*
X82460116Y-131606890D01*
X82460696Y-131610301D01*
X82461654Y-131613628D01*
X82461657Y-131613639D01*
X82554685Y-131936549D01*
X82554688Y-131936559D01*
X82555647Y-131939886D01*
X82686904Y-132256768D01*
X82852815Y-132556961D01*
X83051294Y-132836690D01*
X83279844Y-133092438D01*
X83535592Y-133320988D01*
X83815321Y-133519467D01*
X84115514Y-133685378D01*
X84432396Y-133816635D01*
X84761981Y-133911586D01*
X85100125Y-133969039D01*
X85442576Y-133988271D01*
X85785027Y-133969039D01*
X86123171Y-133911586D01*
X86452756Y-133816635D01*
X86769638Y-133685378D01*
X87069831Y-133519467D01*
X87349560Y-133320988D01*
X87605308Y-133092438D01*
X87833858Y-132836690D01*
X88032337Y-132556961D01*
X88198248Y-132256768D01*
X88329505Y-131939886D01*
X88424456Y-131610301D01*
X88481909Y-131272157D01*
X88501141Y-130929706D01*
X88481909Y-130587255D01*
X88424456Y-130249111D01*
X88329505Y-129919526D01*
X88198248Y-129602644D01*
X88032337Y-129302451D01*
X87833858Y-129022722D01*
X87605308Y-128766974D01*
X87349560Y-128538424D01*
X87069831Y-128339945D01*
X86769638Y-128174034D01*
X86766427Y-128172704D01*
X86766423Y-128172702D01*
X86455963Y-128044105D01*
X86455957Y-128044102D01*
X86452756Y-128042777D01*
X86449429Y-128041818D01*
X86449419Y-128041815D01*
X86126509Y-127948787D01*
X86126498Y-127948784D01*
X86123171Y-127947826D01*
X86119760Y-127947246D01*
X86119745Y-127947243D01*
X85788451Y-127890954D01*
X85788437Y-127890952D01*
X85785027Y-127890373D01*
X85781563Y-127890178D01*
X85781559Y-127890178D01*
X85446048Y-127871336D01*
X85442576Y-127871141D01*
X85439104Y-127871336D01*
X85103592Y-127890178D01*
X85103586Y-127890178D01*
X85100125Y-127890373D01*
X85096716Y-127890952D01*
X85096700Y-127890954D01*
X84765406Y-127947243D01*
X84765387Y-127947247D01*
X84761981Y-127947826D01*
X84758657Y-127948783D01*
X84758642Y-127948787D01*
X84435732Y-128041815D01*
X84435717Y-128041820D01*
X84432396Y-128042777D01*
X84429200Y-128044100D01*
X84429188Y-128044105D01*
X84118728Y-128172702D01*
X84118717Y-128172707D01*
X84115514Y-128174034D01*
X84112475Y-128175713D01*
X84112470Y-128175716D01*
X83818366Y-128338262D01*
X83815321Y-128339945D01*
X83812480Y-128341960D01*
X83812478Y-128341962D01*
X83538438Y-128536404D01*
X83538430Y-128536409D01*
X83535592Y-128538424D01*
X83533003Y-128540737D01*
X83532995Y-128540744D01*
X83282429Y-128764663D01*
X83282420Y-128764671D01*
X83279844Y-128766974D01*
X83277541Y-128769550D01*
X83277533Y-128769559D01*
X83053614Y-129020125D01*
X83053607Y-129020133D01*
X83051294Y-129022722D01*
X83049279Y-129025560D01*
X83049274Y-129025568D01*
X82854832Y-129299608D01*
X82852815Y-129302451D01*
X82686904Y-129602644D01*
X82685577Y-129605847D01*
X82685572Y-129605858D01*
X82556975Y-129916318D01*
X82556970Y-129916330D01*
X82555647Y-129919526D01*
X82554690Y-129922847D01*
X82554685Y-129922862D01*
X82461657Y-130245772D01*
X82461653Y-130245787D01*
X82460696Y-130249111D01*
X82460117Y-130252517D01*
X82460113Y-130252536D01*
X82403824Y-130583830D01*
X82403822Y-130583846D01*
X82403243Y-130587255D01*
X82384011Y-130929706D01*
X70739000Y-130929706D01*
X70739000Y-119880706D01*
X82394576Y-119880706D01*
X82413808Y-120223157D01*
X82414387Y-120226567D01*
X82414389Y-120226581D01*
X82470678Y-120557875D01*
X82470681Y-120557890D01*
X82471261Y-120561301D01*
X82472219Y-120564628D01*
X82472222Y-120564639D01*
X82565250Y-120887549D01*
X82565253Y-120887559D01*
X82566212Y-120890886D01*
X82697469Y-121207768D01*
X82863380Y-121507961D01*
X83061859Y-121787690D01*
X83290409Y-122043438D01*
X83546157Y-122271988D01*
X83825886Y-122470467D01*
X84126079Y-122636378D01*
X84442961Y-122767635D01*
X84772546Y-122862586D01*
X85110690Y-122920039D01*
X85453141Y-122939271D01*
X85795592Y-122920039D01*
X86133736Y-122862586D01*
X86463321Y-122767635D01*
X86780203Y-122636378D01*
X87080396Y-122470467D01*
X87360125Y-122271988D01*
X87615873Y-122043438D01*
X87844423Y-121787690D01*
X88042902Y-121507961D01*
X88208813Y-121207768D01*
X88340070Y-120890886D01*
X88435021Y-120561301D01*
X88492474Y-120223157D01*
X88511706Y-119880706D01*
X88492474Y-119538255D01*
X88435021Y-119200111D01*
X88340070Y-118870526D01*
X88208813Y-118553644D01*
X88042902Y-118253451D01*
X87844423Y-117973722D01*
X87615873Y-117717974D01*
X87360125Y-117489424D01*
X87080396Y-117290945D01*
X86780203Y-117125034D01*
X86776992Y-117123704D01*
X86776988Y-117123702D01*
X86466528Y-116995105D01*
X86466522Y-116995102D01*
X86463321Y-116993777D01*
X86459994Y-116992818D01*
X86459984Y-116992815D01*
X86137074Y-116899787D01*
X86137063Y-116899784D01*
X86133736Y-116898826D01*
X86130325Y-116898246D01*
X86130310Y-116898243D01*
X85799016Y-116841954D01*
X85799002Y-116841952D01*
X85795592Y-116841373D01*
X85792128Y-116841178D01*
X85792124Y-116841178D01*
X85456613Y-116822336D01*
X85453141Y-116822141D01*
X85449669Y-116822336D01*
X85114157Y-116841178D01*
X85114151Y-116841178D01*
X85110690Y-116841373D01*
X85107281Y-116841952D01*
X85107265Y-116841954D01*
X84775971Y-116898243D01*
X84775952Y-116898247D01*
X84772546Y-116898826D01*
X84769222Y-116899783D01*
X84769207Y-116899787D01*
X84446297Y-116992815D01*
X84446282Y-116992820D01*
X84442961Y-116993777D01*
X84439765Y-116995100D01*
X84439753Y-116995105D01*
X84129293Y-117123702D01*
X84129282Y-117123707D01*
X84126079Y-117125034D01*
X84123040Y-117126713D01*
X84123035Y-117126716D01*
X83828931Y-117289262D01*
X83825886Y-117290945D01*
X83823045Y-117292960D01*
X83823043Y-117292962D01*
X83549003Y-117487404D01*
X83548995Y-117487409D01*
X83546157Y-117489424D01*
X83543568Y-117491737D01*
X83543560Y-117491744D01*
X83292994Y-117715663D01*
X83292985Y-117715671D01*
X83290409Y-117717974D01*
X83288106Y-117720550D01*
X83288098Y-117720559D01*
X83064179Y-117971125D01*
X83064172Y-117971133D01*
X83061859Y-117973722D01*
X83059844Y-117976560D01*
X83059839Y-117976568D01*
X82865397Y-118250608D01*
X82863380Y-118253451D01*
X82697469Y-118553644D01*
X82696142Y-118556847D01*
X82696137Y-118556858D01*
X82567540Y-118867318D01*
X82567535Y-118867330D01*
X82566212Y-118870526D01*
X82565255Y-118873847D01*
X82565250Y-118873862D01*
X82472222Y-119196772D01*
X82472218Y-119196787D01*
X82471261Y-119200111D01*
X82470682Y-119203517D01*
X82470678Y-119203536D01*
X82414389Y-119534830D01*
X82414387Y-119534846D01*
X82413808Y-119538255D01*
X82394576Y-119880706D01*
X70739000Y-119880706D01*
X70739000Y-108844000D01*
X82394576Y-108844000D01*
X82413808Y-109186451D01*
X82414387Y-109189861D01*
X82414389Y-109189875D01*
X82470678Y-109521169D01*
X82470681Y-109521184D01*
X82471261Y-109524595D01*
X82472219Y-109527922D01*
X82472222Y-109527933D01*
X82565250Y-109850843D01*
X82565253Y-109850853D01*
X82566212Y-109854180D01*
X82697469Y-110171062D01*
X82863380Y-110471255D01*
X83061859Y-110750984D01*
X83290409Y-111006732D01*
X83546157Y-111235282D01*
X83825886Y-111433761D01*
X84126079Y-111599672D01*
X84442961Y-111730929D01*
X84772546Y-111825880D01*
X85110690Y-111883333D01*
X85453141Y-111902565D01*
X85795592Y-111883333D01*
X86133736Y-111825880D01*
X86463321Y-111730929D01*
X86780203Y-111599672D01*
X87080396Y-111433761D01*
X87360125Y-111235282D01*
X87615873Y-111006732D01*
X87844423Y-110750984D01*
X88042902Y-110471255D01*
X88208813Y-110171062D01*
X88340070Y-109854180D01*
X88435021Y-109524595D01*
X88492474Y-109186451D01*
X88511706Y-108844000D01*
X88492474Y-108501549D01*
X88435021Y-108163405D01*
X88340070Y-107833820D01*
X88208813Y-107516938D01*
X88042902Y-107216745D01*
X87844423Y-106937016D01*
X87615873Y-106681268D01*
X87360125Y-106452718D01*
X87080396Y-106254239D01*
X86780203Y-106088328D01*
X86776992Y-106086998D01*
X86776988Y-106086996D01*
X86466528Y-105958399D01*
X86466522Y-105958396D01*
X86463321Y-105957071D01*
X86459994Y-105956112D01*
X86459984Y-105956109D01*
X86137074Y-105863081D01*
X86137063Y-105863078D01*
X86133736Y-105862120D01*
X86130325Y-105861540D01*
X86130310Y-105861537D01*
X85799016Y-105805248D01*
X85799002Y-105805246D01*
X85795592Y-105804667D01*
X85792128Y-105804472D01*
X85792124Y-105804472D01*
X85456613Y-105785630D01*
X85453141Y-105785435D01*
X85449669Y-105785630D01*
X85114157Y-105804472D01*
X85114151Y-105804472D01*
X85110690Y-105804667D01*
X85107281Y-105805246D01*
X85107265Y-105805248D01*
X84775971Y-105861537D01*
X84775952Y-105861541D01*
X84772546Y-105862120D01*
X84769222Y-105863077D01*
X84769207Y-105863081D01*
X84446297Y-105956109D01*
X84446282Y-105956114D01*
X84442961Y-105957071D01*
X84439765Y-105958394D01*
X84439753Y-105958399D01*
X84129293Y-106086996D01*
X84129282Y-106087001D01*
X84126079Y-106088328D01*
X84123040Y-106090007D01*
X84123035Y-106090010D01*
X83828931Y-106252556D01*
X83825886Y-106254239D01*
X83823045Y-106256254D01*
X83823043Y-106256256D01*
X83549003Y-106450698D01*
X83548995Y-106450703D01*
X83546157Y-106452718D01*
X83543568Y-106455031D01*
X83543560Y-106455038D01*
X83292994Y-106678957D01*
X83292985Y-106678965D01*
X83290409Y-106681268D01*
X83288106Y-106683844D01*
X83288098Y-106683853D01*
X83064179Y-106934419D01*
X83064172Y-106934427D01*
X83061859Y-106937016D01*
X83059844Y-106939854D01*
X83059839Y-106939862D01*
X82865397Y-107213902D01*
X82863380Y-107216745D01*
X82697469Y-107516938D01*
X82696142Y-107520141D01*
X82696137Y-107520152D01*
X82567540Y-107830612D01*
X82567535Y-107830624D01*
X82566212Y-107833820D01*
X82565255Y-107837141D01*
X82565250Y-107837156D01*
X82472222Y-108160066D01*
X82472218Y-108160081D01*
X82471261Y-108163405D01*
X82470682Y-108166811D01*
X82470678Y-108166830D01*
X82414389Y-108498124D01*
X82414387Y-108498140D01*
X82413808Y-108501549D01*
X82394576Y-108844000D01*
X70739000Y-108844000D01*
X70739000Y-97761576D01*
X82394576Y-97761576D01*
X82413808Y-98104027D01*
X82414387Y-98107437D01*
X82414389Y-98107451D01*
X82470678Y-98438745D01*
X82470681Y-98438760D01*
X82471261Y-98442171D01*
X82472219Y-98445498D01*
X82472222Y-98445509D01*
X82565250Y-98768419D01*
X82565253Y-98768429D01*
X82566212Y-98771756D01*
X82697469Y-99088638D01*
X82863380Y-99388831D01*
X83061859Y-99668560D01*
X83290409Y-99924308D01*
X83546157Y-100152858D01*
X83825886Y-100351337D01*
X84126079Y-100517248D01*
X84442961Y-100648505D01*
X84772546Y-100743456D01*
X85110690Y-100800909D01*
X85453141Y-100820141D01*
X85795592Y-100800909D01*
X86133736Y-100743456D01*
X86463321Y-100648505D01*
X86780203Y-100517248D01*
X87080396Y-100351337D01*
X87360125Y-100152858D01*
X87615873Y-99924308D01*
X87844423Y-99668560D01*
X88042902Y-99388831D01*
X88208813Y-99088638D01*
X88340070Y-98771756D01*
X88435021Y-98442171D01*
X88462551Y-98280141D01*
X95232141Y-98280141D01*
X95232141Y-130411141D01*
X105883815Y-130411141D01*
X105900141Y-130411141D01*
X105900141Y-98280141D01*
X95232141Y-98280141D01*
X88462551Y-98280141D01*
X88492474Y-98104027D01*
X88511706Y-97761576D01*
X88492474Y-97419125D01*
X88435021Y-97080981D01*
X88340070Y-96751396D01*
X88208813Y-96434514D01*
X88042902Y-96134321D01*
X87844423Y-95854592D01*
X87615873Y-95598844D01*
X87360125Y-95370294D01*
X87080396Y-95171815D01*
X86780203Y-95005904D01*
X86776992Y-95004574D01*
X86776988Y-95004572D01*
X86466528Y-94875975D01*
X86466522Y-94875972D01*
X86463321Y-94874647D01*
X86459994Y-94873688D01*
X86459984Y-94873685D01*
X86137074Y-94780657D01*
X86137063Y-94780654D01*
X86133736Y-94779696D01*
X86130325Y-94779116D01*
X86130310Y-94779113D01*
X85799016Y-94722824D01*
X85799002Y-94722822D01*
X85795592Y-94722243D01*
X85792128Y-94722048D01*
X85792124Y-94722048D01*
X85456613Y-94703206D01*
X85453141Y-94703011D01*
X85449669Y-94703206D01*
X85114157Y-94722048D01*
X85114151Y-94722048D01*
X85110690Y-94722243D01*
X85107281Y-94722822D01*
X85107265Y-94722824D01*
X84775971Y-94779113D01*
X84775952Y-94779117D01*
X84772546Y-94779696D01*
X84769222Y-94780653D01*
X84769207Y-94780657D01*
X84446297Y-94873685D01*
X84446282Y-94873690D01*
X84442961Y-94874647D01*
X84439765Y-94875970D01*
X84439753Y-94875975D01*
X84129293Y-95004572D01*
X84129282Y-95004577D01*
X84126079Y-95005904D01*
X84123040Y-95007583D01*
X84123035Y-95007586D01*
X83828931Y-95170132D01*
X83825886Y-95171815D01*
X83823045Y-95173830D01*
X83823043Y-95173832D01*
X83549003Y-95368274D01*
X83548995Y-95368279D01*
X83546157Y-95370294D01*
X83543568Y-95372607D01*
X83543560Y-95372614D01*
X83292994Y-95596533D01*
X83292985Y-95596541D01*
X83290409Y-95598844D01*
X83288106Y-95601420D01*
X83288098Y-95601429D01*
X83064179Y-95851995D01*
X83064172Y-95852003D01*
X83061859Y-95854592D01*
X83059844Y-95857430D01*
X83059839Y-95857438D01*
X82865397Y-96131478D01*
X82863380Y-96134321D01*
X82697469Y-96434514D01*
X82696142Y-96437717D01*
X82696137Y-96437728D01*
X82567540Y-96748188D01*
X82567535Y-96748200D01*
X82566212Y-96751396D01*
X82565255Y-96754717D01*
X82565250Y-96754732D01*
X82472222Y-97077642D01*
X82472218Y-97077657D01*
X82471261Y-97080981D01*
X82470682Y-97084387D01*
X82470678Y-97084406D01*
X82414389Y-97415700D01*
X82414387Y-97415716D01*
X82413808Y-97419125D01*
X82394576Y-97761576D01*
X70739000Y-97761576D01*
X70739000Y-92448706D01*
X99096723Y-92448706D01*
X99116378Y-92698441D01*
X99117513Y-92703170D01*
X99117514Y-92703174D01*
X99173719Y-92937289D01*
X99173721Y-92937297D01*
X99174857Y-92942026D01*
X99270722Y-93173465D01*
X99401612Y-93387057D01*
X99404776Y-93390762D01*
X99404780Y-93390767D01*
X99561136Y-93573836D01*
X99564303Y-93577544D01*
X99568010Y-93580710D01*
X99751079Y-93737066D01*
X99751082Y-93737068D01*
X99754790Y-93740235D01*
X99968382Y-93871125D01*
X100199821Y-93966990D01*
X100443406Y-94025469D01*
X100693141Y-94045124D01*
X100942876Y-94025469D01*
X101186461Y-93966990D01*
X101417900Y-93871125D01*
X101631492Y-93740235D01*
X101821979Y-93577544D01*
X101984670Y-93387057D01*
X102115560Y-93173465D01*
X102211425Y-92942026D01*
X102269904Y-92698441D01*
X102289559Y-92448706D01*
X102269904Y-92198971D01*
X102211425Y-91955386D01*
X102115560Y-91723947D01*
X101984670Y-91510355D01*
X101821979Y-91319868D01*
X101818271Y-91316701D01*
X101635202Y-91160345D01*
X101635197Y-91160341D01*
X101631492Y-91157177D01*
X101627336Y-91154630D01*
X101627333Y-91154628D01*
X101422058Y-91028835D01*
X101422057Y-91028834D01*
X101417900Y-91026287D01*
X101186461Y-90930422D01*
X101181732Y-90929286D01*
X101181724Y-90929284D01*
X100947609Y-90873079D01*
X100947605Y-90873078D01*
X100942876Y-90871943D01*
X100938023Y-90871561D01*
X100697995Y-90852670D01*
X100693141Y-90852288D01*
X100688287Y-90852670D01*
X100448258Y-90871561D01*
X100448256Y-90871561D01*
X100443406Y-90871943D01*
X100438678Y-90873077D01*
X100438672Y-90873079D01*
X100204557Y-90929284D01*
X100204545Y-90929287D01*
X100199821Y-90930422D01*
X100195324Y-90932284D01*
X100195320Y-90932286D01*
X99972886Y-91024421D01*
X99972881Y-91024423D01*
X99968382Y-91026287D01*
X99964229Y-91028831D01*
X99964223Y-91028835D01*
X99758948Y-91154628D01*
X99758939Y-91154634D01*
X99754790Y-91157177D01*
X99751090Y-91160336D01*
X99751079Y-91160345D01*
X99568010Y-91316701D01*
X99568003Y-91316707D01*
X99564303Y-91319868D01*
X99561142Y-91323568D01*
X99561136Y-91323575D01*
X99404780Y-91506644D01*
X99404771Y-91506655D01*
X99401612Y-91510355D01*
X99399069Y-91514504D01*
X99399063Y-91514513D01*
X99273270Y-91719788D01*
X99273266Y-91719794D01*
X99270722Y-91723947D01*
X99174857Y-91955386D01*
X99173722Y-91960110D01*
X99173719Y-91960122D01*
X99117514Y-92194237D01*
X99117512Y-92194243D01*
X99116378Y-92198971D01*
X99096723Y-92448706D01*
X70739000Y-92448706D01*
X70739000Y-86850141D01*
X82384011Y-86850141D01*
X82403243Y-87192592D01*
X82403822Y-87196002D01*
X82403824Y-87196016D01*
X82460113Y-87527310D01*
X82460116Y-87527325D01*
X82460696Y-87530736D01*
X82461654Y-87534063D01*
X82461657Y-87534074D01*
X82554685Y-87856984D01*
X82554688Y-87856994D01*
X82555647Y-87860321D01*
X82686904Y-88177203D01*
X82852815Y-88477396D01*
X83051294Y-88757125D01*
X83279844Y-89012873D01*
X83535592Y-89241423D01*
X83815321Y-89439902D01*
X84115514Y-89605813D01*
X84432396Y-89737070D01*
X84761981Y-89832021D01*
X85100125Y-89889474D01*
X85442576Y-89908706D01*
X85785027Y-89889474D01*
X86123171Y-89832021D01*
X86452756Y-89737070D01*
X86769638Y-89605813D01*
X87069831Y-89439902D01*
X87349560Y-89241423D01*
X87605308Y-89012873D01*
X87833858Y-88757125D01*
X88032337Y-88477396D01*
X88198248Y-88177203D01*
X88329505Y-87860321D01*
X88424456Y-87530736D01*
X88481909Y-87192592D01*
X88501141Y-86850141D01*
X88481909Y-86507690D01*
X88424456Y-86169546D01*
X88329505Y-85839961D01*
X88198248Y-85523079D01*
X88032337Y-85222886D01*
X87833858Y-84943157D01*
X87605308Y-84687409D01*
X87349560Y-84458859D01*
X87069831Y-84260380D01*
X86769638Y-84094469D01*
X86766427Y-84093139D01*
X86766423Y-84093137D01*
X86455963Y-83964540D01*
X86455957Y-83964537D01*
X86452756Y-83963212D01*
X86449429Y-83962253D01*
X86449419Y-83962250D01*
X86126509Y-83869222D01*
X86126498Y-83869219D01*
X86123171Y-83868261D01*
X86119760Y-83867681D01*
X86119745Y-83867678D01*
X85788451Y-83811389D01*
X85788437Y-83811387D01*
X85785027Y-83810808D01*
X85781563Y-83810613D01*
X85781559Y-83810613D01*
X85446048Y-83791771D01*
X85442576Y-83791576D01*
X85439104Y-83791771D01*
X85103592Y-83810613D01*
X85103586Y-83810613D01*
X85100125Y-83810808D01*
X85096716Y-83811387D01*
X85096700Y-83811389D01*
X84765406Y-83867678D01*
X84765387Y-83867682D01*
X84761981Y-83868261D01*
X84758657Y-83869218D01*
X84758642Y-83869222D01*
X84435732Y-83962250D01*
X84435717Y-83962255D01*
X84432396Y-83963212D01*
X84429200Y-83964535D01*
X84429188Y-83964540D01*
X84118728Y-84093137D01*
X84118717Y-84093142D01*
X84115514Y-84094469D01*
X84112475Y-84096148D01*
X84112470Y-84096151D01*
X83818366Y-84258697D01*
X83815321Y-84260380D01*
X83812480Y-84262395D01*
X83812478Y-84262397D01*
X83538438Y-84456839D01*
X83538430Y-84456844D01*
X83535592Y-84458859D01*
X83533003Y-84461172D01*
X83532995Y-84461179D01*
X83282429Y-84685098D01*
X83282420Y-84685106D01*
X83279844Y-84687409D01*
X83277541Y-84689985D01*
X83277533Y-84689994D01*
X83053614Y-84940560D01*
X83053607Y-84940568D01*
X83051294Y-84943157D01*
X83049279Y-84945995D01*
X83049274Y-84946003D01*
X82854832Y-85220043D01*
X82852815Y-85222886D01*
X82686904Y-85523079D01*
X82685577Y-85526282D01*
X82685572Y-85526293D01*
X82556975Y-85836753D01*
X82556970Y-85836765D01*
X82555647Y-85839961D01*
X82554690Y-85843282D01*
X82554685Y-85843297D01*
X82461657Y-86166207D01*
X82461653Y-86166222D01*
X82460696Y-86169546D01*
X82460117Y-86172952D01*
X82460113Y-86172971D01*
X82403824Y-86504265D01*
X82403822Y-86504281D01*
X82403243Y-86507690D01*
X82384011Y-86850141D01*
X70739000Y-86850141D01*
X70739000Y-75694000D01*
X82394576Y-75694000D01*
X82413808Y-76036451D01*
X82414387Y-76039861D01*
X82414389Y-76039875D01*
X82470678Y-76371169D01*
X82470681Y-76371184D01*
X82471261Y-76374595D01*
X82472219Y-76377922D01*
X82472222Y-76377933D01*
X82565250Y-76700843D01*
X82565253Y-76700853D01*
X82566212Y-76704180D01*
X82697469Y-77021062D01*
X82863380Y-77321255D01*
X83061859Y-77600984D01*
X83290409Y-77856732D01*
X83546157Y-78085282D01*
X83825886Y-78283761D01*
X84126079Y-78449672D01*
X84442961Y-78580929D01*
X84772546Y-78675880D01*
X85110690Y-78733333D01*
X85453141Y-78752565D01*
X85795592Y-78733333D01*
X86133736Y-78675880D01*
X86463321Y-78580929D01*
X86780203Y-78449672D01*
X87080396Y-78283761D01*
X87360125Y-78085282D01*
X87615873Y-77856732D01*
X87844423Y-77600984D01*
X88042902Y-77321255D01*
X88208813Y-77021062D01*
X88340070Y-76704180D01*
X88435021Y-76374595D01*
X88492474Y-76036451D01*
X88511706Y-75694000D01*
X88492474Y-75351549D01*
X88435021Y-75013405D01*
X88340070Y-74683820D01*
X88208813Y-74366938D01*
X88042902Y-74066745D01*
X87844423Y-73787016D01*
X87615873Y-73531268D01*
X87360125Y-73302718D01*
X87080396Y-73104239D01*
X86780203Y-72938328D01*
X86776992Y-72936998D01*
X86776988Y-72936996D01*
X86466528Y-72808399D01*
X86466522Y-72808396D01*
X86463321Y-72807071D01*
X86459994Y-72806112D01*
X86459984Y-72806109D01*
X86137074Y-72713081D01*
X86137063Y-72713078D01*
X86133736Y-72712120D01*
X86130325Y-72711540D01*
X86130310Y-72711537D01*
X85799016Y-72655248D01*
X85799002Y-72655246D01*
X85795592Y-72654667D01*
X85792128Y-72654472D01*
X85792124Y-72654472D01*
X85456613Y-72635630D01*
X85453141Y-72635435D01*
X85449669Y-72635630D01*
X85114157Y-72654472D01*
X85114151Y-72654472D01*
X85110690Y-72654667D01*
X85107281Y-72655246D01*
X85107265Y-72655248D01*
X84775971Y-72711537D01*
X84775952Y-72711541D01*
X84772546Y-72712120D01*
X84769222Y-72713077D01*
X84769207Y-72713081D01*
X84446297Y-72806109D01*
X84446282Y-72806114D01*
X84442961Y-72807071D01*
X84439765Y-72808394D01*
X84439753Y-72808399D01*
X84129293Y-72936996D01*
X84129282Y-72937001D01*
X84126079Y-72938328D01*
X84123040Y-72940007D01*
X84123035Y-72940010D01*
X83828931Y-73102556D01*
X83825886Y-73104239D01*
X83823045Y-73106254D01*
X83823043Y-73106256D01*
X83549003Y-73300698D01*
X83548995Y-73300703D01*
X83546157Y-73302718D01*
X83543568Y-73305031D01*
X83543560Y-73305038D01*
X83292994Y-73528957D01*
X83292985Y-73528965D01*
X83290409Y-73531268D01*
X83288106Y-73533844D01*
X83288098Y-73533853D01*
X83064179Y-73784419D01*
X83064172Y-73784427D01*
X83061859Y-73787016D01*
X83059844Y-73789854D01*
X83059839Y-73789862D01*
X82865397Y-74063902D01*
X82863380Y-74066745D01*
X82697469Y-74366938D01*
X82696142Y-74370141D01*
X82696137Y-74370152D01*
X82567540Y-74680612D01*
X82567535Y-74680624D01*
X82566212Y-74683820D01*
X82565255Y-74687141D01*
X82565250Y-74687156D01*
X82472222Y-75010066D01*
X82472218Y-75010081D01*
X82471261Y-75013405D01*
X82470682Y-75016811D01*
X82470678Y-75016830D01*
X82414389Y-75348124D01*
X82414387Y-75348140D01*
X82413808Y-75351549D01*
X82394576Y-75694000D01*
X70739000Y-75694000D01*
X70739000Y-64644000D01*
X82384011Y-64644000D01*
X82403243Y-64986451D01*
X82403822Y-64989861D01*
X82403824Y-64989875D01*
X82460113Y-65321169D01*
X82460116Y-65321184D01*
X82460696Y-65324595D01*
X82461654Y-65327922D01*
X82461657Y-65327933D01*
X82554685Y-65650843D01*
X82554688Y-65650853D01*
X82555647Y-65654180D01*
X82686904Y-65971062D01*
X82852815Y-66271255D01*
X83051294Y-66550984D01*
X83279844Y-66806732D01*
X83535592Y-67035282D01*
X83815321Y-67233761D01*
X84115514Y-67399672D01*
X84432396Y-67530929D01*
X84761981Y-67625880D01*
X85100125Y-67683333D01*
X85442576Y-67702565D01*
X85785027Y-67683333D01*
X86123171Y-67625880D01*
X86452756Y-67530929D01*
X86769638Y-67399672D01*
X87069831Y-67233761D01*
X87349560Y-67035282D01*
X87605308Y-66806732D01*
X87833858Y-66550984D01*
X88032337Y-66271255D01*
X88198248Y-65971062D01*
X88329505Y-65654180D01*
X88424456Y-65324595D01*
X88481909Y-64986451D01*
X88501141Y-64644000D01*
X88481909Y-64301549D01*
X88424456Y-63963405D01*
X88329505Y-63633820D01*
X88198248Y-63316938D01*
X88032337Y-63016745D01*
X87833858Y-62737016D01*
X87605308Y-62481268D01*
X87349560Y-62252718D01*
X87069831Y-62054239D01*
X86769638Y-61888328D01*
X86766427Y-61886998D01*
X86766423Y-61886996D01*
X86455963Y-61758399D01*
X86455957Y-61758396D01*
X86452756Y-61757071D01*
X86449429Y-61756112D01*
X86449419Y-61756109D01*
X86126509Y-61663081D01*
X86126498Y-61663078D01*
X86123171Y-61662120D01*
X86119760Y-61661540D01*
X86119745Y-61661537D01*
X85788451Y-61605248D01*
X85788437Y-61605246D01*
X85785027Y-61604667D01*
X85781563Y-61604472D01*
X85781559Y-61604472D01*
X85446048Y-61585630D01*
X85442576Y-61585435D01*
X85439104Y-61585630D01*
X85103592Y-61604472D01*
X85103586Y-61604472D01*
X85100125Y-61604667D01*
X85096716Y-61605246D01*
X85096700Y-61605248D01*
X84765406Y-61661537D01*
X84765387Y-61661541D01*
X84761981Y-61662120D01*
X84758657Y-61663077D01*
X84758642Y-61663081D01*
X84435732Y-61756109D01*
X84435717Y-61756114D01*
X84432396Y-61757071D01*
X84429200Y-61758394D01*
X84429188Y-61758399D01*
X84118728Y-61886996D01*
X84118717Y-61887001D01*
X84115514Y-61888328D01*
X84112475Y-61890007D01*
X84112470Y-61890010D01*
X83818366Y-62052556D01*
X83815321Y-62054239D01*
X83812480Y-62056254D01*
X83812478Y-62056256D01*
X83538438Y-62250698D01*
X83538430Y-62250703D01*
X83535592Y-62252718D01*
X83533003Y-62255031D01*
X83532995Y-62255038D01*
X83282429Y-62478957D01*
X83282420Y-62478965D01*
X83279844Y-62481268D01*
X83277541Y-62483844D01*
X83277533Y-62483853D01*
X83053614Y-62734419D01*
X83053607Y-62734427D01*
X83051294Y-62737016D01*
X83049279Y-62739854D01*
X83049274Y-62739862D01*
X82854832Y-63013902D01*
X82852815Y-63016745D01*
X82686904Y-63316938D01*
X82685577Y-63320141D01*
X82685572Y-63320152D01*
X82556975Y-63630612D01*
X82556970Y-63630624D01*
X82555647Y-63633820D01*
X82554690Y-63637141D01*
X82554685Y-63637156D01*
X82461657Y-63960066D01*
X82461653Y-63960081D01*
X82460696Y-63963405D01*
X82460117Y-63966811D01*
X82460113Y-63966830D01*
X82403824Y-64298124D01*
X82403822Y-64298140D01*
X82403243Y-64301549D01*
X82384011Y-64644000D01*
X70739000Y-64644000D01*
X70739000Y-53576141D01*
X82257011Y-53576141D01*
X82257206Y-53579613D01*
X82271275Y-53830141D01*
X82276243Y-53918592D01*
X82276822Y-53922002D01*
X82276824Y-53922016D01*
X82333113Y-54253310D01*
X82333116Y-54253325D01*
X82333696Y-54256736D01*
X82334654Y-54260063D01*
X82334657Y-54260074D01*
X82427685Y-54582984D01*
X82427688Y-54582994D01*
X82428647Y-54586321D01*
X82559904Y-54903203D01*
X82725815Y-55203396D01*
X82924294Y-55483125D01*
X83152844Y-55738873D01*
X83408592Y-55967423D01*
X83688321Y-56165902D01*
X83988514Y-56331813D01*
X84305396Y-56463070D01*
X84634981Y-56558021D01*
X84973125Y-56615474D01*
X85315576Y-56634706D01*
X85658027Y-56615474D01*
X85996171Y-56558021D01*
X86325756Y-56463070D01*
X86642638Y-56331813D01*
X86942831Y-56165902D01*
X87222560Y-55967423D01*
X87478308Y-55738873D01*
X87706858Y-55483125D01*
X87905337Y-55203396D01*
X88071248Y-54903203D01*
X88202505Y-54586321D01*
X88297456Y-54256736D01*
X88354909Y-53918592D01*
X88359876Y-53830141D01*
X95232141Y-53830141D01*
X95232141Y-85961141D01*
X105883815Y-85961141D01*
X105900141Y-85961141D01*
X105900141Y-53830141D01*
X95232141Y-53830141D01*
X88359876Y-53830141D01*
X88374141Y-53576141D01*
X88354909Y-53233690D01*
X88297456Y-52895546D01*
X88202505Y-52565961D01*
X88071248Y-52249079D01*
X87905337Y-51948886D01*
X87706858Y-51669157D01*
X87478308Y-51413409D01*
X87222560Y-51184859D01*
X86942831Y-50986380D01*
X86642638Y-50820469D01*
X86639427Y-50819139D01*
X86639423Y-50819137D01*
X86328963Y-50690540D01*
X86328957Y-50690537D01*
X86325756Y-50689212D01*
X86322429Y-50688253D01*
X86322419Y-50688250D01*
X85999509Y-50595222D01*
X85999498Y-50595219D01*
X85996171Y-50594261D01*
X85992760Y-50593681D01*
X85992745Y-50593678D01*
X85661451Y-50537389D01*
X85661437Y-50537387D01*
X85658027Y-50536808D01*
X85654563Y-50536613D01*
X85654559Y-50536613D01*
X85319048Y-50517771D01*
X85315576Y-50517576D01*
X85312104Y-50517771D01*
X84976592Y-50536613D01*
X84976586Y-50536613D01*
X84973125Y-50536808D01*
X84969716Y-50537387D01*
X84969700Y-50537389D01*
X84638406Y-50593678D01*
X84638387Y-50593682D01*
X84634981Y-50594261D01*
X84631657Y-50595218D01*
X84631642Y-50595222D01*
X84308732Y-50688250D01*
X84308717Y-50688255D01*
X84305396Y-50689212D01*
X84302200Y-50690535D01*
X84302188Y-50690540D01*
X83991728Y-50819137D01*
X83991717Y-50819142D01*
X83988514Y-50820469D01*
X83985475Y-50822148D01*
X83985470Y-50822151D01*
X83691366Y-50984697D01*
X83688321Y-50986380D01*
X83685480Y-50988395D01*
X83685478Y-50988397D01*
X83411438Y-51182839D01*
X83411430Y-51182844D01*
X83408592Y-51184859D01*
X83406003Y-51187172D01*
X83405995Y-51187179D01*
X83155429Y-51411098D01*
X83155420Y-51411106D01*
X83152844Y-51413409D01*
X83150541Y-51415985D01*
X83150533Y-51415994D01*
X82926614Y-51666560D01*
X82926607Y-51666568D01*
X82924294Y-51669157D01*
X82922279Y-51671995D01*
X82922274Y-51672003D01*
X82727832Y-51946043D01*
X82725815Y-51948886D01*
X82559904Y-52249079D01*
X82558577Y-52252282D01*
X82558572Y-52252293D01*
X82429975Y-52562753D01*
X82429970Y-52562765D01*
X82428647Y-52565961D01*
X82427690Y-52569282D01*
X82427685Y-52569297D01*
X82334657Y-52892207D01*
X82334653Y-52892222D01*
X82333696Y-52895546D01*
X82333117Y-52898952D01*
X82333113Y-52898971D01*
X82276824Y-53230265D01*
X82276822Y-53230281D01*
X82276243Y-53233690D01*
X82257011Y-53576141D01*
X70739000Y-53576141D01*
X70739000Y-32464000D01*
X75642582Y-32464000D01*
X75662237Y-32713735D01*
X75663372Y-32718464D01*
X75663373Y-32718468D01*
X75719578Y-32952583D01*
X75719580Y-32952591D01*
X75720716Y-32957320D01*
X75816581Y-33188759D01*
X75947471Y-33402351D01*
X75950635Y-33406056D01*
X75950639Y-33406061D01*
X76106995Y-33589130D01*
X76110162Y-33592838D01*
X76113869Y-33596004D01*
X76296938Y-33752360D01*
X76296941Y-33752362D01*
X76300649Y-33755529D01*
X76514241Y-33886419D01*
X76745680Y-33982284D01*
X76989265Y-34040763D01*
X77239000Y-34060418D01*
X77488735Y-34040763D01*
X77732320Y-33982284D01*
X77963759Y-33886419D01*
X78177351Y-33755529D01*
X78367838Y-33592838D01*
X78530529Y-33402351D01*
X78661419Y-33188759D01*
X78757284Y-32957320D01*
X78815763Y-32713735D01*
X78835418Y-32464000D01*
X78815763Y-32214265D01*
X78757284Y-31970680D01*
X78661419Y-31739241D01*
X78530529Y-31525649D01*
X78367838Y-31335162D01*
X78364130Y-31331995D01*
X78181061Y-31175639D01*
X78181056Y-31175635D01*
X78177351Y-31172471D01*
X78173195Y-31169924D01*
X78173192Y-31169922D01*
X77967917Y-31044129D01*
X77967916Y-31044128D01*
X77963759Y-31041581D01*
X77732320Y-30945716D01*
X77727591Y-30944580D01*
X77727583Y-30944578D01*
X77493468Y-30888373D01*
X77493464Y-30888372D01*
X77488735Y-30887237D01*
X77483882Y-30886855D01*
X77243854Y-30867964D01*
X77239000Y-30867582D01*
X77234146Y-30867964D01*
X76994117Y-30886855D01*
X76994115Y-30886855D01*
X76989265Y-30887237D01*
X76984537Y-30888371D01*
X76984531Y-30888373D01*
X76750416Y-30944578D01*
X76750404Y-30944581D01*
X76745680Y-30945716D01*
X76741183Y-30947578D01*
X76741179Y-30947580D01*
X76518745Y-31039715D01*
X76518740Y-31039717D01*
X76514241Y-31041581D01*
X76510088Y-31044125D01*
X76510082Y-31044129D01*
X76304807Y-31169922D01*
X76304798Y-31169928D01*
X76300649Y-31172471D01*
X76296949Y-31175630D01*
X76296938Y-31175639D01*
X76113869Y-31331995D01*
X76113862Y-31332001D01*
X76110162Y-31335162D01*
X76107001Y-31338862D01*
X76106995Y-31338869D01*
X75950639Y-31521938D01*
X75950630Y-31521949D01*
X75947471Y-31525649D01*
X75944928Y-31529798D01*
X75944922Y-31529807D01*
X75819129Y-31735082D01*
X75819125Y-31735088D01*
X75816581Y-31739241D01*
X75720716Y-31970680D01*
X75719581Y-31975404D01*
X75719578Y-31975416D01*
X75663373Y-32209531D01*
X75663371Y-32209537D01*
X75662237Y-32214265D01*
X75642582Y-32464000D01*
X70739000Y-32464000D01*
X70739000Y-29588000D01*
X70755613Y-29526000D01*
X70801000Y-29480613D01*
X70863000Y-29464000D01*
X111001000Y-29464000D01*
X111063000Y-29480613D01*
G37*
%TD.AperFunction*%
M02*
