%TF.GenerationSoftware,KiCad,Pcbnew,(7.0.0-0)*%
%TF.CreationDate,2023-04-01T00:14:55-07:00*%
%TF.ProjectId,bussboipanel,62757373-626f-4697-9061-6e656c2e6b69,rev?*%
%TF.SameCoordinates,Original*%
%TF.FileFunction,Legend,Top*%
%TF.FilePolarity,Positive*%
%FSLAX46Y46*%
G04 Gerber Fmt 4.6, Leading zero omitted, Abs format (unit mm)*
G04 Created by KiCad (PCBNEW (7.0.0-0)) date 2023-04-01 00:14:55*
%MOMM*%
%LPD*%
G01*
G04 APERTURE LIST*
%ADD10C,0.300000*%
G04 APERTURE END LIST*
D10*
G36*
X78175619Y-108258290D02*
G01*
X78163163Y-108279539D01*
X78191298Y-108269865D01*
X78222583Y-108261908D01*
X78253430Y-108256215D01*
X78264279Y-108254626D01*
X78293405Y-108251100D01*
X78324858Y-108248337D01*
X78354920Y-108246850D01*
X78374189Y-108246566D01*
X78410467Y-108247178D01*
X78446488Y-108249013D01*
X78482252Y-108252072D01*
X78517758Y-108256355D01*
X78553006Y-108261861D01*
X78587997Y-108268591D01*
X78622730Y-108276544D01*
X78657205Y-108285721D01*
X78691423Y-108296122D01*
X78725383Y-108307746D01*
X78747880Y-108316175D01*
X78781128Y-108329749D01*
X78813551Y-108344365D01*
X78845150Y-108360025D01*
X78875925Y-108376729D01*
X78905875Y-108394475D01*
X78935001Y-108413265D01*
X78963302Y-108433098D01*
X78990780Y-108453974D01*
X79017433Y-108475894D01*
X79043261Y-108498857D01*
X79060023Y-108514745D01*
X79084557Y-108539376D01*
X79108151Y-108564908D01*
X79130805Y-108591342D01*
X79152518Y-108618678D01*
X79173291Y-108646915D01*
X79193124Y-108676054D01*
X79212017Y-108706094D01*
X79229970Y-108737036D01*
X79246982Y-108768880D01*
X79263054Y-108801625D01*
X79273247Y-108823956D01*
X79287651Y-108857970D01*
X79300638Y-108892693D01*
X79312209Y-108928123D01*
X79322362Y-108964262D01*
X79331099Y-109001110D01*
X79338419Y-109038666D01*
X79344323Y-109076930D01*
X79348809Y-109115903D01*
X79351879Y-109155584D01*
X79353532Y-109195973D01*
X79353847Y-109223293D01*
X79353483Y-109254786D01*
X79352393Y-109285884D01*
X79350575Y-109316587D01*
X79348031Y-109346895D01*
X79344759Y-109376809D01*
X79340761Y-109406327D01*
X79336035Y-109435450D01*
X79327584Y-109478394D01*
X79317497Y-109520449D01*
X79305774Y-109561616D01*
X79292415Y-109601894D01*
X79277420Y-109641283D01*
X79260790Y-109679783D01*
X79242881Y-109717285D01*
X79223773Y-109753680D01*
X79203468Y-109788967D01*
X79181965Y-109823146D01*
X79159264Y-109856218D01*
X79135365Y-109888182D01*
X79110268Y-109919038D01*
X79083974Y-109948786D01*
X79056481Y-109977427D01*
X79027791Y-110004960D01*
X79007999Y-110022700D01*
X78977428Y-110048230D01*
X78945892Y-110072614D01*
X78913389Y-110095852D01*
X78879920Y-110117943D01*
X78845486Y-110138888D01*
X78810085Y-110158687D01*
X78773718Y-110177340D01*
X78736386Y-110194846D01*
X78698087Y-110211205D01*
X78658822Y-110226419D01*
X78632109Y-110235924D01*
X78591498Y-110249150D01*
X78550450Y-110261075D01*
X78508963Y-110271698D01*
X78467039Y-110281021D01*
X78424677Y-110289043D01*
X78381877Y-110295765D01*
X78338638Y-110301185D01*
X78294962Y-110305304D01*
X78265602Y-110307328D01*
X78236046Y-110308773D01*
X78206296Y-110309641D01*
X78176352Y-110309930D01*
X78145884Y-110309638D01*
X78115661Y-110308762D01*
X78085685Y-110307302D01*
X78055955Y-110305259D01*
X78026472Y-110302631D01*
X77997234Y-110299420D01*
X77953839Y-110293508D01*
X77910998Y-110286282D01*
X77868711Y-110277743D01*
X77826978Y-110267889D01*
X77785798Y-110256722D01*
X77745173Y-110244242D01*
X77718397Y-110235191D01*
X77678881Y-110220729D01*
X77640292Y-110205095D01*
X77602631Y-110188289D01*
X77565897Y-110170311D01*
X77530091Y-110151160D01*
X77495212Y-110130838D01*
X77461260Y-110109343D01*
X77428236Y-110086677D01*
X77396139Y-110062838D01*
X77364970Y-110037827D01*
X77344705Y-110020502D01*
X77315210Y-109993602D01*
X77286900Y-109965659D01*
X77259774Y-109936673D01*
X77233834Y-109906643D01*
X77209079Y-109875570D01*
X77185508Y-109843454D01*
X77163123Y-109810294D01*
X77141922Y-109776091D01*
X77121907Y-109740845D01*
X77103076Y-109704556D01*
X77091181Y-109679783D01*
X77074682Y-109641865D01*
X77059805Y-109603121D01*
X77046552Y-109563554D01*
X77034921Y-109523162D01*
X77024913Y-109481947D01*
X77016529Y-109439906D01*
X77009767Y-109397042D01*
X77004627Y-109353353D01*
X77002103Y-109323769D01*
X77000300Y-109293818D01*
X76999218Y-109263502D01*
X76998857Y-109232819D01*
X76998873Y-109231353D01*
X77707406Y-109231353D01*
X77708520Y-109267009D01*
X77711862Y-109301712D01*
X77717433Y-109335462D01*
X77725232Y-109368259D01*
X77735259Y-109400103D01*
X77747514Y-109430993D01*
X77761998Y-109460931D01*
X77778709Y-109489915D01*
X77797649Y-109517946D01*
X77818818Y-109545024D01*
X77834168Y-109562547D01*
X77858708Y-109587165D01*
X77884795Y-109609361D01*
X77912427Y-109629136D01*
X77941604Y-109646490D01*
X77972327Y-109661422D01*
X78004596Y-109673933D01*
X78038410Y-109684022D01*
X78073770Y-109691690D01*
X78110675Y-109696936D01*
X78149126Y-109699762D01*
X78175619Y-109700300D01*
X78214590Y-109699160D01*
X78252092Y-109695740D01*
X78288126Y-109690041D01*
X78322692Y-109682062D01*
X78355789Y-109671803D01*
X78387418Y-109659264D01*
X78417578Y-109644446D01*
X78446271Y-109627347D01*
X78473495Y-109607969D01*
X78499251Y-109586312D01*
X78515605Y-109570607D01*
X78538652Y-109545549D01*
X78559432Y-109519009D01*
X78577944Y-109490989D01*
X78594190Y-109461487D01*
X78608169Y-109430505D01*
X78619882Y-109398040D01*
X78629327Y-109364095D01*
X78636505Y-109328669D01*
X78641417Y-109291761D01*
X78644062Y-109253372D01*
X78644565Y-109226957D01*
X78643451Y-109189918D01*
X78640109Y-109154091D01*
X78634538Y-109119473D01*
X78626740Y-109086067D01*
X78616712Y-109053871D01*
X78604457Y-109022886D01*
X78589974Y-108993112D01*
X78573262Y-108964549D01*
X78554322Y-108937196D01*
X78533154Y-108911054D01*
X78517803Y-108894298D01*
X78493295Y-108870728D01*
X78467305Y-108849476D01*
X78439834Y-108830542D01*
X78410882Y-108813927D01*
X78380449Y-108799630D01*
X78348535Y-108787652D01*
X78315139Y-108777992D01*
X78280262Y-108770650D01*
X78243904Y-108765627D01*
X78206065Y-108762922D01*
X78180016Y-108762407D01*
X78141150Y-108763547D01*
X78103689Y-108766967D01*
X78067631Y-108772666D01*
X78032978Y-108780645D01*
X77999728Y-108790904D01*
X77967882Y-108803443D01*
X77937440Y-108818261D01*
X77908402Y-108835359D01*
X77880768Y-108854737D01*
X77854538Y-108876395D01*
X77837831Y-108892100D01*
X77814523Y-108917119D01*
X77793507Y-108943543D01*
X77774784Y-108971370D01*
X77758353Y-109000601D01*
X77744215Y-109031236D01*
X77732370Y-109063275D01*
X77722817Y-109096718D01*
X77715557Y-109131565D01*
X77710590Y-109167816D01*
X77707915Y-109205470D01*
X77707406Y-109231353D01*
X76998873Y-109231353D01*
X76999218Y-109199488D01*
X77000300Y-109166541D01*
X77002103Y-109133978D01*
X77004627Y-109101798D01*
X77007873Y-109070001D01*
X77011840Y-109038588D01*
X77016529Y-109007559D01*
X77021938Y-108976913D01*
X77028069Y-108946651D01*
X77034921Y-108916772D01*
X77042495Y-108887277D01*
X77050789Y-108858166D01*
X77059805Y-108829437D01*
X77069543Y-108801093D01*
X77080001Y-108773132D01*
X77091181Y-108745554D01*
X77103028Y-108718143D01*
X77115304Y-108690680D01*
X77128009Y-108663165D01*
X77141144Y-108635599D01*
X77154708Y-108607982D01*
X77168701Y-108580313D01*
X77183124Y-108552592D01*
X77197976Y-108524820D01*
X77213258Y-108496996D01*
X77228968Y-108469121D01*
X77245108Y-108441194D01*
X77261678Y-108413216D01*
X77278676Y-108385186D01*
X77296105Y-108357105D01*
X77313962Y-108328972D01*
X77332249Y-108300788D01*
X78053986Y-107214884D01*
X78910546Y-107214884D01*
X78175619Y-108258290D01*
G37*
G36*
X78346324Y-129774441D02*
G01*
X78384565Y-129775793D01*
X78422470Y-129778047D01*
X78460041Y-129781203D01*
X78497277Y-129785260D01*
X78534179Y-129790219D01*
X78570745Y-129796079D01*
X78606976Y-129802841D01*
X78642873Y-129810505D01*
X78678435Y-129819070D01*
X78701956Y-129825281D01*
X78736741Y-129835355D01*
X78770753Y-129846344D01*
X78803992Y-129858247D01*
X78836458Y-129871065D01*
X78868151Y-129884797D01*
X78899072Y-129899444D01*
X78929219Y-129915005D01*
X78958594Y-129931481D01*
X78987197Y-129948871D01*
X79015026Y-129967175D01*
X79033150Y-129979886D01*
X79059575Y-129999578D01*
X79084996Y-130020184D01*
X79109412Y-130041704D01*
X79132824Y-130064139D01*
X79155230Y-130087488D01*
X79176633Y-130111752D01*
X79197030Y-130136930D01*
X79216423Y-130163023D01*
X79234812Y-130190030D01*
X79252195Y-130217952D01*
X79263226Y-130237074D01*
X79278678Y-130266350D01*
X79292610Y-130296477D01*
X79305022Y-130327453D01*
X79315914Y-130359280D01*
X79325286Y-130391956D01*
X79333139Y-130425483D01*
X79339472Y-130459859D01*
X79344284Y-130495086D01*
X79347577Y-130531163D01*
X79349351Y-130568090D01*
X79349688Y-130593180D01*
X79349193Y-130623194D01*
X79347708Y-130652600D01*
X79343623Y-130695572D01*
X79337309Y-130737179D01*
X79328768Y-130777420D01*
X79317998Y-130816296D01*
X79305000Y-130853807D01*
X79289773Y-130889953D01*
X79272319Y-130924733D01*
X79252636Y-130958148D01*
X79230725Y-130990198D01*
X79222926Y-131000577D01*
X79198495Y-131030489D01*
X79172737Y-131058675D01*
X79145653Y-131085135D01*
X79117242Y-131109868D01*
X79087504Y-131132876D01*
X79056439Y-131154158D01*
X79024048Y-131173715D01*
X78990331Y-131191545D01*
X78955286Y-131207649D01*
X78918915Y-131222027D01*
X78893931Y-131230654D01*
X78893931Y-131243110D01*
X78922233Y-131252224D01*
X78949985Y-131262345D01*
X78977187Y-131273473D01*
X79010418Y-131288800D01*
X79042790Y-131305702D01*
X79074303Y-131324177D01*
X79104957Y-131344227D01*
X79128919Y-131361297D01*
X79157746Y-131383762D01*
X79185320Y-131407479D01*
X79211641Y-131432449D01*
X79236711Y-131458670D01*
X79260528Y-131486144D01*
X79274217Y-131503229D01*
X79295924Y-131532724D01*
X79312233Y-131557248D01*
X79327603Y-131582596D01*
X79342034Y-131608768D01*
X79355527Y-131635764D01*
X79368080Y-131663585D01*
X79379695Y-131692230D01*
X79387790Y-131714255D01*
X79397751Y-131743988D01*
X79406383Y-131774201D01*
X79413688Y-131804896D01*
X79419664Y-131836071D01*
X79424312Y-131867727D01*
X79427632Y-131899864D01*
X79429624Y-131932482D01*
X79430288Y-131965581D01*
X79429925Y-131995471D01*
X79428834Y-132024875D01*
X79425836Y-132068068D01*
X79421201Y-132110166D01*
X79414930Y-132151169D01*
X79407024Y-132191078D01*
X79397482Y-132229892D01*
X79386305Y-132267611D01*
X79373491Y-132304235D01*
X79359042Y-132339765D01*
X79342957Y-132374199D01*
X79337232Y-132385434D01*
X79319374Y-132418298D01*
X79300421Y-132450118D01*
X79280373Y-132480894D01*
X79259231Y-132510628D01*
X79236993Y-132539318D01*
X79213661Y-132566965D01*
X79189234Y-132593569D01*
X79163713Y-132619129D01*
X79137096Y-132643646D01*
X79109385Y-132667120D01*
X79090302Y-132682189D01*
X79061000Y-132703781D01*
X79030797Y-132724316D01*
X78999692Y-132743794D01*
X78967685Y-132762217D01*
X78934776Y-132779584D01*
X78900966Y-132795894D01*
X78866255Y-132811148D01*
X78830642Y-132825346D01*
X78794127Y-132838488D01*
X78756711Y-132850574D01*
X78731265Y-132858044D01*
X78692799Y-132868389D01*
X78654063Y-132877716D01*
X78615056Y-132886026D01*
X78575778Y-132893318D01*
X78536230Y-132899593D01*
X78496412Y-132904850D01*
X78456323Y-132909090D01*
X78415963Y-132912312D01*
X78375333Y-132914517D01*
X78334433Y-132915704D01*
X78307016Y-132915930D01*
X78265293Y-132915421D01*
X78223931Y-132913895D01*
X78182930Y-132911351D01*
X78142289Y-132907790D01*
X78102009Y-132903211D01*
X78062090Y-132897614D01*
X78022531Y-132891001D01*
X77983333Y-132883369D01*
X77944495Y-132874720D01*
X77906018Y-132865054D01*
X77880568Y-132858044D01*
X77843067Y-132846682D01*
X77806405Y-132834302D01*
X77770579Y-132820905D01*
X77735590Y-132806490D01*
X77701439Y-132791057D01*
X77668125Y-132774608D01*
X77635648Y-132757140D01*
X77604008Y-132738655D01*
X77573206Y-132719153D01*
X77543241Y-132698633D01*
X77523729Y-132684388D01*
X77495412Y-132662002D01*
X77468164Y-132638535D01*
X77441986Y-132613985D01*
X77416876Y-132588354D01*
X77392836Y-132561641D01*
X77369864Y-132533846D01*
X77347962Y-132504969D01*
X77327129Y-132475010D01*
X77307364Y-132443970D01*
X77288669Y-132411847D01*
X77276799Y-132389831D01*
X77260300Y-132355761D01*
X77245424Y-132320596D01*
X77232170Y-132284337D01*
X77220539Y-132246983D01*
X77210532Y-132208534D01*
X77202147Y-132168990D01*
X77195385Y-132128352D01*
X77190246Y-132086618D01*
X77186729Y-132043790D01*
X77184836Y-131999867D01*
X77184475Y-131969977D01*
X77184686Y-131958986D01*
X77889360Y-131958986D01*
X77890378Y-131996177D01*
X77893430Y-132031913D01*
X77898518Y-132066193D01*
X77905641Y-132099018D01*
X77914798Y-132130387D01*
X77925991Y-132160301D01*
X77939219Y-132188759D01*
X77954482Y-132215762D01*
X77971779Y-132241309D01*
X77991112Y-132265401D01*
X78005131Y-132280654D01*
X78027581Y-132301998D01*
X78051242Y-132321243D01*
X78076113Y-132338389D01*
X78102195Y-132353435D01*
X78129488Y-132366381D01*
X78157991Y-132377228D01*
X78187705Y-132385976D01*
X78218630Y-132392624D01*
X78250766Y-132397173D01*
X78284112Y-132399622D01*
X78307016Y-132400089D01*
X78341274Y-132399039D01*
X78374258Y-132395890D01*
X78405966Y-132390641D01*
X78436399Y-132383293D01*
X78465558Y-132373846D01*
X78493441Y-132362299D01*
X78520049Y-132348653D01*
X78545381Y-132332907D01*
X78569439Y-132315062D01*
X78592222Y-132295117D01*
X78606702Y-132280654D01*
X78627129Y-132257532D01*
X78645548Y-132232955D01*
X78661957Y-132206923D01*
X78676357Y-132179435D01*
X78688747Y-132150491D01*
X78699128Y-132120092D01*
X78707500Y-132088238D01*
X78713863Y-132054928D01*
X78718217Y-132020163D01*
X78720561Y-131983942D01*
X78721007Y-131958986D01*
X78719983Y-131923545D01*
X78716911Y-131889211D01*
X78711792Y-131855985D01*
X78704624Y-131823867D01*
X78695408Y-131792856D01*
X78684145Y-131762953D01*
X78670833Y-131734157D01*
X78655474Y-131706470D01*
X78638066Y-131679890D01*
X78618611Y-131654417D01*
X78604503Y-131638051D01*
X78582217Y-131615005D01*
X78558771Y-131594225D01*
X78534166Y-131575712D01*
X78508401Y-131559466D01*
X78481478Y-131545487D01*
X78453395Y-131533775D01*
X78424153Y-131524329D01*
X78393752Y-131517151D01*
X78362192Y-131512239D01*
X78329473Y-131509595D01*
X78307016Y-131509091D01*
X78272862Y-131510205D01*
X78239919Y-131513547D01*
X78208187Y-131519118D01*
X78177666Y-131526917D01*
X78148356Y-131536944D01*
X78120256Y-131549199D01*
X78093367Y-131563683D01*
X78067688Y-131580395D01*
X78043220Y-131599335D01*
X78019963Y-131620503D01*
X78005131Y-131635853D01*
X77984442Y-131660233D01*
X77965787Y-131685836D01*
X77949168Y-131712663D01*
X77934583Y-131740713D01*
X77922034Y-131769987D01*
X77911520Y-131800485D01*
X77903040Y-131832206D01*
X77896596Y-131865151D01*
X77892187Y-131899320D01*
X77889813Y-131934712D01*
X77889360Y-131958986D01*
X77184686Y-131958986D01*
X77185128Y-131936020D01*
X77187086Y-131902658D01*
X77190349Y-131869891D01*
X77194917Y-131837720D01*
X77200790Y-131806144D01*
X77207969Y-131775163D01*
X77216452Y-131744778D01*
X77226241Y-131714988D01*
X77237358Y-131685724D01*
X77249459Y-131657285D01*
X77262545Y-131629671D01*
X77276616Y-131602880D01*
X77291671Y-131576914D01*
X77307711Y-131551772D01*
X77324736Y-131527455D01*
X77342745Y-131503962D01*
X77361601Y-131481282D01*
X77381167Y-131459403D01*
X77406623Y-131433181D01*
X77433188Y-131408212D01*
X77460862Y-131384495D01*
X77489645Y-131362030D01*
X77513471Y-131344960D01*
X77538028Y-131328794D01*
X77569273Y-131310003D01*
X77601126Y-131292787D01*
X77633587Y-131277145D01*
X77666657Y-131263077D01*
X77700334Y-131250584D01*
X77720833Y-131243843D01*
X77720833Y-131235050D01*
X77684979Y-131221220D01*
X77650233Y-131205830D01*
X77616595Y-131188882D01*
X77584064Y-131170376D01*
X77552642Y-131150311D01*
X77522326Y-131128687D01*
X77493119Y-131105506D01*
X77465019Y-131080765D01*
X77438027Y-131054467D01*
X77412142Y-131026609D01*
X77395501Y-131007172D01*
X77372193Y-130976625D01*
X77351177Y-130944609D01*
X77332454Y-130911126D01*
X77316023Y-130876174D01*
X77301885Y-130839753D01*
X77290040Y-130801865D01*
X77280487Y-130762508D01*
X77273227Y-130721683D01*
X77268260Y-130679389D01*
X77265585Y-130635627D01*
X77265573Y-130634946D01*
X77953108Y-130634946D01*
X77954585Y-130670621D01*
X77959015Y-130705105D01*
X77966400Y-130738398D01*
X77976738Y-130770501D01*
X77990030Y-130801413D01*
X78006276Y-130831134D01*
X78025476Y-130859664D01*
X78047630Y-130887004D01*
X78072531Y-130911906D01*
X78099608Y-130933487D01*
X78128860Y-130951748D01*
X78160287Y-130966689D01*
X78193889Y-130978309D01*
X78229667Y-130986610D01*
X78267620Y-130991590D01*
X78297512Y-130993146D01*
X78307748Y-130993250D01*
X78345907Y-130991590D01*
X78382349Y-130986610D01*
X78417074Y-130978309D01*
X78450081Y-130966689D01*
X78481371Y-130951748D01*
X78510943Y-130933487D01*
X78538798Y-130911906D01*
X78564936Y-130887004D01*
X78588635Y-130859664D01*
X78609175Y-130831134D01*
X78626554Y-130801413D01*
X78640773Y-130770501D01*
X78651833Y-130738398D01*
X78659733Y-130705105D01*
X78664473Y-130670621D01*
X78666053Y-130634946D01*
X78664404Y-130598550D01*
X78659458Y-130563734D01*
X78651215Y-130530498D01*
X78639674Y-130498841D01*
X78624837Y-130468765D01*
X78606702Y-130440269D01*
X78585269Y-130413353D01*
X78560540Y-130388016D01*
X78533509Y-130365004D01*
X78505173Y-130345060D01*
X78475532Y-130328184D01*
X78444585Y-130314377D01*
X78412334Y-130303638D01*
X78378777Y-130295967D01*
X78343915Y-130291365D01*
X78307748Y-130289831D01*
X78278214Y-130290694D01*
X78240559Y-130294529D01*
X78204873Y-130301433D01*
X78171156Y-130311405D01*
X78139408Y-130324445D01*
X78109630Y-130340554D01*
X78081820Y-130359730D01*
X78055980Y-130381976D01*
X78049828Y-130388016D01*
X78027159Y-130413353D01*
X78007513Y-130440269D01*
X77990889Y-130468765D01*
X77977288Y-130498841D01*
X77966709Y-130530498D01*
X77959153Y-130563734D01*
X77954619Y-130598550D01*
X77953108Y-130634946D01*
X77265573Y-130634946D01*
X77265076Y-130605637D01*
X77265816Y-130568124D01*
X77268038Y-130531422D01*
X77271741Y-130495532D01*
X77276925Y-130460453D01*
X77283591Y-130426186D01*
X77291737Y-130392730D01*
X77301365Y-130360086D01*
X77312474Y-130328253D01*
X77325064Y-130297232D01*
X77339136Y-130267022D01*
X77349339Y-130247332D01*
X77365660Y-130218520D01*
X77383025Y-130190609D01*
X77401433Y-130163600D01*
X77420883Y-130137492D01*
X77441378Y-130112286D01*
X77462915Y-130087981D01*
X77485496Y-130064578D01*
X77509120Y-130042077D01*
X77533787Y-130020477D01*
X77559498Y-129999779D01*
X77577218Y-129986481D01*
X77604551Y-129967155D01*
X77632696Y-129948743D01*
X77661653Y-129931245D01*
X77691421Y-129914662D01*
X77722000Y-129898994D01*
X77753391Y-129884240D01*
X77785593Y-129870400D01*
X77818606Y-129857475D01*
X77852431Y-129845464D01*
X77887068Y-129834368D01*
X77910609Y-129827479D01*
X77946347Y-129817920D01*
X77982394Y-129809301D01*
X78018750Y-129801622D01*
X78055415Y-129794884D01*
X78092389Y-129789086D01*
X78129672Y-129784228D01*
X78167265Y-129780310D01*
X78205166Y-129777333D01*
X78243377Y-129775296D01*
X78281897Y-129774199D01*
X78307748Y-129773990D01*
X78346324Y-129774441D01*
G37*
G36*
X79023643Y-76218443D02*
G01*
X79023254Y-76248685D01*
X79022086Y-76278412D01*
X79018874Y-76322036D01*
X79013911Y-76364502D01*
X79007197Y-76405808D01*
X78998730Y-76445955D01*
X78988512Y-76484943D01*
X78976542Y-76522771D01*
X78962821Y-76559441D01*
X78947348Y-76594951D01*
X78930123Y-76629302D01*
X78923992Y-76640494D01*
X78904904Y-76673332D01*
X78884734Y-76705075D01*
X78863482Y-76735723D01*
X78841148Y-76765276D01*
X78817732Y-76793734D01*
X78793234Y-76821098D01*
X78767654Y-76847366D01*
X78740993Y-76872540D01*
X78713249Y-76896619D01*
X78684424Y-76919604D01*
X78664606Y-76934318D01*
X78634164Y-76955373D01*
X78603014Y-76975397D01*
X78571155Y-76994391D01*
X78538588Y-77012354D01*
X78505313Y-77029287D01*
X78471329Y-77045189D01*
X78436637Y-77060062D01*
X78401236Y-77073903D01*
X78365127Y-77086715D01*
X78328309Y-77098495D01*
X78303371Y-77105777D01*
X78265806Y-77115991D01*
X78228126Y-77125200D01*
X78190330Y-77133405D01*
X78152417Y-77140604D01*
X78114389Y-77146800D01*
X78076245Y-77151990D01*
X78037985Y-77156176D01*
X77999609Y-77159358D01*
X77961117Y-77161534D01*
X77922509Y-77162707D01*
X77896706Y-77162930D01*
X77858878Y-77162511D01*
X77821230Y-77161255D01*
X77783762Y-77159162D01*
X77746474Y-77156232D01*
X77709367Y-77152465D01*
X77672440Y-77147860D01*
X77635693Y-77142418D01*
X77599127Y-77136139D01*
X77562741Y-77129023D01*
X77526535Y-77121070D01*
X77502498Y-77115302D01*
X77466799Y-77105941D01*
X77431693Y-77095716D01*
X77397179Y-77084629D01*
X77363257Y-77072678D01*
X77329928Y-77059865D01*
X77297191Y-77046188D01*
X77265047Y-77031649D01*
X77233496Y-77016247D01*
X77202536Y-76999981D01*
X77172170Y-76982853D01*
X77152254Y-76970955D01*
X77122927Y-76952193D01*
X77094294Y-76932452D01*
X77066358Y-76911733D01*
X77039116Y-76890034D01*
X77012571Y-76867357D01*
X76986721Y-76843701D01*
X76961566Y-76819065D01*
X76937107Y-76793451D01*
X76913343Y-76766858D01*
X76890275Y-76739287D01*
X76875283Y-76720362D01*
X76853679Y-76691008D01*
X76833105Y-76660650D01*
X76813562Y-76629287D01*
X76795049Y-76596920D01*
X76777567Y-76563548D01*
X76761115Y-76529171D01*
X76745693Y-76493790D01*
X76731302Y-76457404D01*
X76717941Y-76420013D01*
X76705610Y-76381618D01*
X76697963Y-76355463D01*
X77356686Y-76181806D01*
X77368524Y-76218248D01*
X77383155Y-76253568D01*
X77400581Y-76287766D01*
X77420799Y-76320841D01*
X77437797Y-76344912D01*
X77456365Y-76368351D01*
X77476505Y-76391160D01*
X77498217Y-76413337D01*
X77521499Y-76434883D01*
X77529609Y-76441925D01*
X77554826Y-76461829D01*
X77581293Y-76479775D01*
X77609008Y-76495763D01*
X77637973Y-76509794D01*
X77668187Y-76521867D01*
X77699651Y-76531982D01*
X77732364Y-76540139D01*
X77766327Y-76546339D01*
X77801538Y-76550580D01*
X77837999Y-76552865D01*
X77863001Y-76553300D01*
X77896410Y-76552318D01*
X77929960Y-76549373D01*
X77963649Y-76544464D01*
X77992638Y-76538694D01*
X78016874Y-76532783D01*
X78045656Y-76524317D01*
X78077673Y-76512486D01*
X78108007Y-76498551D01*
X78136658Y-76482513D01*
X78156092Y-76469769D01*
X78181968Y-76449593D01*
X78205740Y-76426892D01*
X78227409Y-76401668D01*
X78246974Y-76373919D01*
X78257209Y-76356928D01*
X78270905Y-76329417D01*
X78281767Y-76299638D01*
X78289795Y-76267593D01*
X78294990Y-76233280D01*
X78297155Y-76202955D01*
X78297509Y-76184004D01*
X78296221Y-76150341D01*
X78292357Y-76118502D01*
X78285917Y-76088489D01*
X78276901Y-76060299D01*
X78262681Y-76028881D01*
X78244753Y-76000090D01*
X78223784Y-75973419D01*
X78200445Y-75948913D01*
X78174737Y-75926571D01*
X78146658Y-75906392D01*
X78121449Y-75891229D01*
X78105534Y-75882853D01*
X78077942Y-75869952D01*
X78049206Y-75858267D01*
X78019324Y-75847798D01*
X77988298Y-75838546D01*
X77956126Y-75830510D01*
X77922810Y-75823691D01*
X77909163Y-75821304D01*
X77875027Y-75816027D01*
X77840856Y-75811644D01*
X77806649Y-75808155D01*
X77772406Y-75805562D01*
X77738127Y-75803862D01*
X77703813Y-75803057D01*
X77690077Y-75802986D01*
X77500300Y-75802986D01*
X77500300Y-75287145D01*
X77706930Y-75287145D01*
X77738332Y-75286805D01*
X77769340Y-75285785D01*
X77799956Y-75284086D01*
X77830177Y-75281706D01*
X77860005Y-75278647D01*
X77889439Y-75274909D01*
X77901103Y-75273223D01*
X77935303Y-75266903D01*
X77968113Y-75258935D01*
X77999532Y-75249318D01*
X78029559Y-75238052D01*
X78058196Y-75225138D01*
X78067432Y-75220466D01*
X78094128Y-75205002D01*
X78118712Y-75187734D01*
X78141183Y-75168663D01*
X78164730Y-75144135D01*
X78185401Y-75117152D01*
X78200591Y-75091280D01*
X78212638Y-75062575D01*
X78221543Y-75031036D01*
X78227304Y-74996664D01*
X78229705Y-74965855D01*
X78230098Y-74946426D01*
X78228312Y-74909103D01*
X78222954Y-74874069D01*
X78214024Y-74841325D01*
X78201522Y-74810871D01*
X78185447Y-74782707D01*
X78165801Y-74756832D01*
X78142583Y-74733248D01*
X78115792Y-74711953D01*
X78086872Y-74692890D01*
X78056899Y-74676370D01*
X78025873Y-74662391D01*
X77993793Y-74650953D01*
X77960660Y-74642057D01*
X77926474Y-74635703D01*
X77891234Y-74631891D01*
X77854941Y-74630620D01*
X77817469Y-74632040D01*
X77781256Y-74636299D01*
X77746302Y-74643397D01*
X77712608Y-74653334D01*
X77680174Y-74666111D01*
X77648998Y-74681728D01*
X77619082Y-74700183D01*
X77590426Y-74721478D01*
X77563796Y-74744983D01*
X77539593Y-74770434D01*
X77517817Y-74797831D01*
X77498468Y-74827174D01*
X77481547Y-74858464D01*
X77467053Y-74891700D01*
X77454986Y-74926883D01*
X77445346Y-74964011D01*
X76786623Y-74811604D01*
X76797410Y-74776381D01*
X76809163Y-74741880D01*
X76821882Y-74708100D01*
X76835567Y-74675042D01*
X76850218Y-74642704D01*
X76865835Y-74611088D01*
X76882418Y-74580193D01*
X76899967Y-74550020D01*
X76918482Y-74520568D01*
X76937963Y-74491837D01*
X76951487Y-74473083D01*
X76972442Y-74445494D01*
X76994094Y-74418781D01*
X77016440Y-74392944D01*
X77039483Y-74367983D01*
X77063221Y-74343897D01*
X77087654Y-74320687D01*
X77112783Y-74298353D01*
X77138607Y-74276895D01*
X77165127Y-74256313D01*
X77192343Y-74236607D01*
X77210873Y-74223956D01*
X77239269Y-74205565D01*
X77268128Y-74188038D01*
X77297452Y-74171373D01*
X77327239Y-74155571D01*
X77357490Y-74140633D01*
X77388204Y-74126557D01*
X77419382Y-74113344D01*
X77451024Y-74100995D01*
X77483130Y-74089508D01*
X77515699Y-74078884D01*
X77537669Y-74072281D01*
X77570994Y-74063115D01*
X77604474Y-74054850D01*
X77638108Y-74047487D01*
X77671896Y-74041025D01*
X77705839Y-74035465D01*
X77739937Y-74030807D01*
X77774189Y-74027051D01*
X77808596Y-74024195D01*
X77843157Y-74022242D01*
X77877873Y-74021190D01*
X77901103Y-74020990D01*
X77938238Y-74021434D01*
X77975180Y-74022767D01*
X78011929Y-74024989D01*
X78048484Y-74028100D01*
X78084847Y-74032099D01*
X78121016Y-74036987D01*
X78156992Y-74042763D01*
X78192775Y-74049429D01*
X78228364Y-74056983D01*
X78263761Y-74065426D01*
X78287251Y-74071548D01*
X78322068Y-74081517D01*
X78356176Y-74092465D01*
X78389576Y-74104392D01*
X78422267Y-74117298D01*
X78454251Y-74131182D01*
X78485525Y-74146046D01*
X78516092Y-74161888D01*
X78545950Y-74178710D01*
X78575099Y-74196510D01*
X78603540Y-74215289D01*
X78622108Y-74228352D01*
X78649357Y-74248606D01*
X78675603Y-74269800D01*
X78700843Y-74291934D01*
X78725079Y-74315009D01*
X78748310Y-74339023D01*
X78770537Y-74363978D01*
X78791759Y-74389874D01*
X78811976Y-74416709D01*
X78831189Y-74444485D01*
X78849397Y-74473201D01*
X78860977Y-74492867D01*
X78877215Y-74523045D01*
X78891855Y-74554227D01*
X78904898Y-74586414D01*
X78916344Y-74619606D01*
X78926193Y-74653802D01*
X78934445Y-74689003D01*
X78941099Y-74725209D01*
X78946157Y-74762419D01*
X78949617Y-74800634D01*
X78951481Y-74839854D01*
X78951836Y-74866559D01*
X78951283Y-74897485D01*
X78949626Y-74927799D01*
X78946864Y-74957500D01*
X78942997Y-74986589D01*
X78935125Y-75029073D01*
X78924768Y-75070180D01*
X78911924Y-75109908D01*
X78896595Y-75148258D01*
X78878780Y-75185230D01*
X78858478Y-75220824D01*
X78835692Y-75255040D01*
X78810419Y-75287877D01*
X78783221Y-75318910D01*
X78754657Y-75347984D01*
X78724728Y-75375101D01*
X78693434Y-75400260D01*
X78660775Y-75423461D01*
X78626750Y-75444704D01*
X78591360Y-75463990D01*
X78554605Y-75481318D01*
X78516485Y-75496688D01*
X78476999Y-75510100D01*
X78449916Y-75517954D01*
X78449916Y-75530411D01*
X78481275Y-75538299D01*
X78511969Y-75547309D01*
X78542000Y-75557441D01*
X78571366Y-75568696D01*
X78600069Y-75581072D01*
X78628107Y-75594570D01*
X78655481Y-75609190D01*
X78682191Y-75624933D01*
X78708100Y-75641625D01*
X78733070Y-75659096D01*
X78757101Y-75677346D01*
X78780194Y-75696374D01*
X78802347Y-75716180D01*
X78823562Y-75736765D01*
X78843838Y-75758129D01*
X78863175Y-75780271D01*
X78881688Y-75803134D01*
X78903316Y-75832647D01*
X78923262Y-75863198D01*
X78941527Y-75894786D01*
X78958110Y-75927412D01*
X78970165Y-75954260D01*
X78981145Y-75981771D01*
X78991105Y-76009672D01*
X78999738Y-76038054D01*
X79007042Y-76066917D01*
X79013018Y-76096260D01*
X79017667Y-76126085D01*
X79020987Y-76156390D01*
X79022979Y-76187176D01*
X79023643Y-76218443D01*
G37*
G36*
X78235941Y-121519141D02*
G01*
X77412354Y-121519141D01*
X78623554Y-119127515D01*
X77210121Y-119127515D01*
X77210121Y-118517884D01*
X79379730Y-118517884D01*
X79379730Y-119085749D01*
X78235941Y-121519141D01*
G37*
G36*
X79273247Y-98066344D02*
G01*
X79272866Y-98100402D01*
X79271724Y-98133881D01*
X79269820Y-98166782D01*
X79267156Y-98199106D01*
X79263730Y-98230850D01*
X79259542Y-98262017D01*
X79254593Y-98292606D01*
X79248883Y-98322616D01*
X79242412Y-98352048D01*
X79235179Y-98380902D01*
X79227185Y-98409178D01*
X79213766Y-98450508D01*
X79198634Y-98490537D01*
X79181789Y-98529265D01*
X79175794Y-98541885D01*
X79157079Y-98578786D01*
X79137205Y-98614477D01*
X79116172Y-98648956D01*
X79093980Y-98682226D01*
X79070629Y-98714284D01*
X79046118Y-98745131D01*
X79020448Y-98774768D01*
X78993619Y-98803194D01*
X78965631Y-98830410D01*
X78936483Y-98856415D01*
X78916408Y-98873078D01*
X78885646Y-98896960D01*
X78854086Y-98919695D01*
X78821727Y-98941284D01*
X78788570Y-98961727D01*
X78754614Y-98981023D01*
X78719859Y-98999174D01*
X78684306Y-99016177D01*
X78647954Y-99032035D01*
X78610804Y-99046746D01*
X78572855Y-99060311D01*
X78547113Y-99068717D01*
X78508260Y-99080371D01*
X78469189Y-99090879D01*
X78429898Y-99100241D01*
X78390389Y-99108456D01*
X78350660Y-99115525D01*
X78310713Y-99121448D01*
X78270547Y-99126224D01*
X78230162Y-99129854D01*
X78189558Y-99132338D01*
X78148734Y-99133675D01*
X78121397Y-99133930D01*
X78083509Y-99133460D01*
X78045955Y-99132049D01*
X78008736Y-99129699D01*
X77971852Y-99126408D01*
X77935303Y-99122177D01*
X77899089Y-99117005D01*
X77863209Y-99110894D01*
X77827665Y-99103842D01*
X77792455Y-99095850D01*
X77757580Y-99086918D01*
X77734517Y-99080441D01*
X77700460Y-99070012D01*
X77666983Y-99058785D01*
X77634085Y-99046759D01*
X77601767Y-99033935D01*
X77570028Y-99020312D01*
X77538870Y-99005891D01*
X77508290Y-98990671D01*
X77478291Y-98974653D01*
X77448871Y-98957836D01*
X77420030Y-98940220D01*
X77401125Y-98928033D01*
X77373465Y-98909093D01*
X77346540Y-98889367D01*
X77320348Y-98868856D01*
X77294891Y-98847559D01*
X77270168Y-98825476D01*
X77246179Y-98802608D01*
X77222924Y-98778954D01*
X77200403Y-98754514D01*
X77178617Y-98729288D01*
X77157564Y-98703277D01*
X77143937Y-98685500D01*
X77124368Y-98658145D01*
X77105778Y-98630210D01*
X77088167Y-98601696D01*
X77071535Y-98572602D01*
X77055881Y-98542929D01*
X77041207Y-98512676D01*
X77027511Y-98481844D01*
X77014794Y-98450431D01*
X77003056Y-98418440D01*
X76992297Y-98385868D01*
X76985668Y-98363832D01*
X77631935Y-98165263D01*
X77641311Y-98194049D01*
X77652130Y-98221883D01*
X77664392Y-98248764D01*
X77678097Y-98274691D01*
X77698613Y-98307778D01*
X77721694Y-98339171D01*
X77740688Y-98361604D01*
X77761124Y-98383083D01*
X77783003Y-98403610D01*
X77806324Y-98423183D01*
X77830929Y-98441254D01*
X77856384Y-98457547D01*
X77882690Y-98472063D01*
X77909845Y-98484801D01*
X77937850Y-98495762D01*
X77966706Y-98504945D01*
X77996411Y-98512351D01*
X78026967Y-98517980D01*
X78058373Y-98521831D01*
X78090628Y-98523905D01*
X78112605Y-98524300D01*
X78146245Y-98523334D01*
X78179022Y-98520436D01*
X78210937Y-98515606D01*
X78241988Y-98508844D01*
X78272177Y-98500150D01*
X78301503Y-98489524D01*
X78329965Y-98476966D01*
X78357565Y-98462476D01*
X78384302Y-98446054D01*
X78410175Y-98427700D01*
X78426945Y-98414390D01*
X78450777Y-98392855D01*
X78472266Y-98369465D01*
X78491409Y-98344220D01*
X78508209Y-98317121D01*
X78522665Y-98288166D01*
X78534776Y-98257357D01*
X78544544Y-98224694D01*
X78551967Y-98190175D01*
X78557046Y-98153802D01*
X78559781Y-98115574D01*
X78560302Y-98089059D01*
X78559443Y-98057105D01*
X78556867Y-98026456D01*
X78552574Y-97997113D01*
X78544792Y-97962269D01*
X78534327Y-97929464D01*
X78521179Y-97898699D01*
X78505347Y-97869973D01*
X78487405Y-97843143D01*
X78467924Y-97818067D01*
X78446904Y-97794743D01*
X78424346Y-97773173D01*
X78400250Y-97753355D01*
X78374615Y-97735291D01*
X78363930Y-97728556D01*
X78336339Y-97712839D01*
X78307602Y-97698661D01*
X78277720Y-97686020D01*
X78246694Y-97674918D01*
X78214523Y-97665355D01*
X78181206Y-97657330D01*
X78167559Y-97654551D01*
X78133230Y-97648429D01*
X78098937Y-97643345D01*
X78064680Y-97639299D01*
X78030459Y-97636290D01*
X77996273Y-97634319D01*
X77962123Y-97633385D01*
X77948473Y-97633302D01*
X77917993Y-97633617D01*
X77886727Y-97634564D01*
X77854675Y-97636142D01*
X77821837Y-97638351D01*
X77788214Y-97641191D01*
X77753805Y-97644662D01*
X77718611Y-97648764D01*
X77682630Y-97653498D01*
X77645864Y-97658862D01*
X77608313Y-97664858D01*
X77582842Y-97669205D01*
X77544897Y-97676143D01*
X77507726Y-97683494D01*
X77471327Y-97691256D01*
X77435701Y-97699430D01*
X77400848Y-97708017D01*
X77366767Y-97717016D01*
X77333459Y-97726427D01*
X77300925Y-97736250D01*
X77269162Y-97746485D01*
X77238173Y-97757133D01*
X77217943Y-97764460D01*
X77289750Y-96038884D01*
X79121572Y-96038884D01*
X79121572Y-96648515D01*
X77918431Y-96648515D01*
X77893519Y-97146037D01*
X77923712Y-97139476D01*
X77955308Y-97133896D01*
X77988307Y-97129298D01*
X78017708Y-97126138D01*
X78042995Y-97124055D01*
X78073504Y-97121814D01*
X78102930Y-97120037D01*
X78135894Y-97118549D01*
X78167385Y-97117693D01*
X78193205Y-97117461D01*
X78234882Y-97117982D01*
X78276109Y-97119547D01*
X78316885Y-97122156D01*
X78357210Y-97125807D01*
X78397084Y-97130502D01*
X78436508Y-97136240D01*
X78475481Y-97143021D01*
X78514002Y-97150846D01*
X78552074Y-97159714D01*
X78589694Y-97169625D01*
X78614524Y-97176812D01*
X78651292Y-97188344D01*
X78687132Y-97200958D01*
X78722046Y-97214653D01*
X78756032Y-97229431D01*
X78789090Y-97245290D01*
X78821222Y-97262232D01*
X78852426Y-97280255D01*
X78882702Y-97299361D01*
X78912051Y-97319548D01*
X78940473Y-97340817D01*
X78958906Y-97355598D01*
X78985705Y-97378631D01*
X79011422Y-97402670D01*
X79036057Y-97427713D01*
X79059610Y-97453760D01*
X79082082Y-97480813D01*
X79103471Y-97508870D01*
X79123779Y-97537931D01*
X79143004Y-97567997D01*
X79161148Y-97599068D01*
X79178209Y-97631144D01*
X79188983Y-97653085D01*
X79204042Y-97686848D01*
X79217619Y-97721641D01*
X79229716Y-97757465D01*
X79240331Y-97794319D01*
X79249465Y-97832203D01*
X79257118Y-97871118D01*
X79263290Y-97911063D01*
X79267980Y-97952039D01*
X79271189Y-97994045D01*
X79272917Y-98037081D01*
X79273247Y-98066344D01*
G37*
G36*
X78986750Y-86691775D02*
G01*
X79400009Y-86691775D01*
X79400009Y-87301405D01*
X78990413Y-87301405D01*
X78990413Y-87864141D01*
X78328027Y-87864141D01*
X78328027Y-87301405D01*
X76922653Y-87301405D01*
X76922653Y-86698369D01*
X76927020Y-86691775D01*
X77610686Y-86691775D01*
X78332423Y-86691775D01*
X78332423Y-85591949D01*
X78319967Y-85591949D01*
X77610686Y-86691775D01*
X76927020Y-86691775D01*
X78138250Y-84862884D01*
X78986750Y-84862884D01*
X78986750Y-86691775D01*
G37*
G36*
X94524528Y-156243840D02*
G01*
X94512450Y-156229386D01*
X94499478Y-156215699D01*
X94485614Y-156202779D01*
X94470856Y-156190626D01*
X94455206Y-156179240D01*
X94442882Y-156171204D01*
X94430055Y-156163599D01*
X94416727Y-156156426D01*
X94402896Y-156149685D01*
X94388927Y-156143465D01*
X94375049Y-156137857D01*
X94361261Y-156132860D01*
X94343017Y-156127150D01*
X94324934Y-156122528D01*
X94307010Y-156118993D01*
X94289248Y-156116546D01*
X94271645Y-156115186D01*
X94258548Y-156114880D01*
X94242788Y-156115178D01*
X94226922Y-156116072D01*
X94210951Y-156117562D01*
X94194875Y-156119649D01*
X94185642Y-156121108D01*
X94169946Y-156124394D01*
X94154917Y-156128802D01*
X94140554Y-156134332D01*
X94126857Y-156140984D01*
X94119330Y-156145288D01*
X94106802Y-156153651D01*
X94095187Y-156163030D01*
X94084483Y-156173426D01*
X94074690Y-156184839D01*
X94069504Y-156191817D01*
X94061795Y-156204912D01*
X94055980Y-156219516D01*
X94052058Y-156235627D01*
X94050203Y-156250636D01*
X94049720Y-156263990D01*
X94050474Y-156279904D01*
X94052736Y-156294625D01*
X94057166Y-156309989D01*
X94063566Y-156323797D01*
X94065474Y-156327005D01*
X94074267Y-156339255D01*
X94084891Y-156350727D01*
X94097348Y-156361420D01*
X94109750Y-156370138D01*
X94111636Y-156371335D01*
X94125643Y-156379369D01*
X94140738Y-156387123D01*
X94154541Y-156393546D01*
X94169142Y-156399763D01*
X94184542Y-156405773D01*
X94200840Y-156411720D01*
X94214972Y-156416734D01*
X94229605Y-156421802D01*
X94244739Y-156426923D01*
X94260374Y-156432099D01*
X94276510Y-156437328D01*
X94279797Y-156438380D01*
X94294071Y-156443103D01*
X94308455Y-156447928D01*
X94322948Y-156452857D01*
X94337551Y-156457889D01*
X94352263Y-156463024D01*
X94367085Y-156468261D01*
X94382016Y-156473602D01*
X94397057Y-156479046D01*
X94412207Y-156484593D01*
X94427466Y-156490243D01*
X94437700Y-156494067D01*
X94453024Y-156499946D01*
X94468084Y-156506179D01*
X94482880Y-156512766D01*
X94497412Y-156519707D01*
X94511680Y-156527002D01*
X94525683Y-156534652D01*
X94539423Y-156542656D01*
X94552899Y-156551014D01*
X94566110Y-156559726D01*
X94579058Y-156568793D01*
X94587543Y-156575034D01*
X94600045Y-156584660D01*
X94612135Y-156594719D01*
X94623813Y-156605208D01*
X94635079Y-156616129D01*
X94645932Y-156627482D01*
X94656374Y-156639266D01*
X94666403Y-156651482D01*
X94676020Y-156664129D01*
X94685225Y-156677208D01*
X94694018Y-156690718D01*
X94699651Y-156699964D01*
X94707573Y-156714231D01*
X94714716Y-156729141D01*
X94721080Y-156744696D01*
X94726664Y-156760895D01*
X94731470Y-156777738D01*
X94735496Y-156795224D01*
X94738742Y-156813355D01*
X94741210Y-156832130D01*
X94742898Y-156851549D01*
X94743808Y-156871611D01*
X94743981Y-156885344D01*
X94743795Y-156901237D01*
X94743237Y-156916857D01*
X94742306Y-156932206D01*
X94741004Y-156947283D01*
X94739330Y-156962088D01*
X94737283Y-156976620D01*
X94733516Y-156997910D01*
X94728911Y-157018588D01*
X94723469Y-157038654D01*
X94717190Y-157058108D01*
X94710074Y-157076950D01*
X94702121Y-157095181D01*
X94696353Y-157106995D01*
X94687202Y-157124228D01*
X94677471Y-157140895D01*
X94667161Y-157156995D01*
X94656271Y-157172528D01*
X94644801Y-157187495D01*
X94632752Y-157201894D01*
X94620123Y-157215728D01*
X94606915Y-157228994D01*
X94593127Y-157241694D01*
X94578759Y-157253827D01*
X94568859Y-157261600D01*
X94553609Y-157272727D01*
X94537947Y-157283299D01*
X94521872Y-157293317D01*
X94505386Y-157302782D01*
X94488487Y-157311693D01*
X94471177Y-157320050D01*
X94453454Y-157327853D01*
X94435319Y-157335102D01*
X94416772Y-157341798D01*
X94397812Y-157347939D01*
X94384944Y-157351726D01*
X94365517Y-157356964D01*
X94345982Y-157361687D01*
X94326337Y-157365894D01*
X94306582Y-157369586D01*
X94286718Y-157372763D01*
X94266744Y-157375425D01*
X94246661Y-157377572D01*
X94226468Y-157379203D01*
X94206166Y-157380320D01*
X94185755Y-157380921D01*
X94172086Y-157381035D01*
X94152069Y-157380812D01*
X94132135Y-157380142D01*
X94112284Y-157379026D01*
X94092516Y-157377463D01*
X94072831Y-157375454D01*
X94053229Y-157372998D01*
X94033711Y-157370096D01*
X94014275Y-157366747D01*
X93994922Y-157362952D01*
X93975652Y-157358710D01*
X93956465Y-157354021D01*
X93937361Y-157348887D01*
X93918340Y-157343305D01*
X93899402Y-157337277D01*
X93880547Y-157330803D01*
X93861776Y-157323882D01*
X93843243Y-157316503D01*
X93825105Y-157308747D01*
X93807362Y-157300612D01*
X93790014Y-157292100D01*
X93773061Y-157283210D01*
X93756503Y-157273942D01*
X93740340Y-157264297D01*
X93724572Y-157254273D01*
X93709199Y-157243872D01*
X93694221Y-157233093D01*
X93679638Y-157221936D01*
X93665450Y-157210401D01*
X93651657Y-157198488D01*
X93638259Y-157186198D01*
X93625256Y-157173530D01*
X93612648Y-157160484D01*
X93849319Y-156917951D01*
X93859864Y-156930397D01*
X93871026Y-156942457D01*
X93882807Y-156954131D01*
X93895206Y-156965418D01*
X93908224Y-156976319D01*
X93921859Y-156986833D01*
X93936113Y-156996961D01*
X93950985Y-157006702D01*
X93966476Y-157016058D01*
X93982584Y-157025026D01*
X93993667Y-157030791D01*
X94010487Y-157038910D01*
X94027288Y-157046230D01*
X94044069Y-157052751D01*
X94060832Y-157058474D01*
X94077574Y-157063399D01*
X94094298Y-157067525D01*
X94111002Y-157070852D01*
X94127687Y-157073381D01*
X94144353Y-157075111D01*
X94160999Y-157076043D01*
X94172086Y-157076220D01*
X94186997Y-157075924D01*
X94201779Y-157075035D01*
X94216432Y-157073554D01*
X94230956Y-157071480D01*
X94247739Y-157068312D01*
X94250122Y-157067794D01*
X94266318Y-157063616D01*
X94281567Y-157058457D01*
X94295870Y-157052316D01*
X94309227Y-157045194D01*
X94316434Y-157040683D01*
X94328375Y-157031752D01*
X94339194Y-157021629D01*
X94348891Y-157010314D01*
X94357466Y-156997807D01*
X94361863Y-156990124D01*
X94368429Y-156975744D01*
X94373383Y-156960171D01*
X94376724Y-156943407D01*
X94378304Y-156928088D01*
X94378716Y-156914653D01*
X94377968Y-156899305D01*
X94375209Y-156882538D01*
X94370415Y-156866997D01*
X94363588Y-156852685D01*
X94357466Y-156843212D01*
X94347454Y-156830635D01*
X94335688Y-156818549D01*
X94324207Y-156808580D01*
X94311439Y-156798971D01*
X94297383Y-156789723D01*
X94282137Y-156780810D01*
X94268389Y-156773619D01*
X94253694Y-156766642D01*
X94238050Y-156759880D01*
X94221458Y-156753333D01*
X94207502Y-156748250D01*
X94200296Y-156745759D01*
X94185573Y-156740676D01*
X94170346Y-156735501D01*
X94154615Y-156730235D01*
X94138381Y-156724877D01*
X94121642Y-156719427D01*
X94104400Y-156713886D01*
X94086655Y-156708253D01*
X94068405Y-156702528D01*
X94050585Y-156696627D01*
X94032845Y-156690461D01*
X94015185Y-156684033D01*
X93997605Y-156677341D01*
X93980105Y-156670386D01*
X93962686Y-156663167D01*
X93945347Y-156655685D01*
X93928087Y-156647940D01*
X93911189Y-156639783D01*
X93894748Y-156631065D01*
X93878766Y-156621785D01*
X93863241Y-156611945D01*
X93848174Y-156601544D01*
X93833565Y-156590581D01*
X93819415Y-156579058D01*
X93805722Y-156566974D01*
X93792670Y-156554283D01*
X93780259Y-156540939D01*
X93768490Y-156526943D01*
X93757362Y-156512294D01*
X93746875Y-156496992D01*
X93737028Y-156481038D01*
X93727824Y-156464432D01*
X93719260Y-156447173D01*
X93713433Y-156433716D01*
X93708179Y-156419725D01*
X93703498Y-156405200D01*
X93699390Y-156390140D01*
X93695856Y-156374546D01*
X93692894Y-156358417D01*
X93690506Y-156341753D01*
X93688691Y-156324555D01*
X93687449Y-156306823D01*
X93686781Y-156288555D01*
X93686653Y-156276080D01*
X93686851Y-156260742D01*
X93687443Y-156245684D01*
X93688431Y-156230906D01*
X93690653Y-156209266D01*
X93693763Y-156188256D01*
X93697762Y-156167878D01*
X93702650Y-156148131D01*
X93708427Y-156129015D01*
X93715092Y-156110530D01*
X93722647Y-156092676D01*
X93731089Y-156075453D01*
X93737212Y-156064322D01*
X93747034Y-156048044D01*
X93757403Y-156032319D01*
X93768320Y-156017149D01*
X93779784Y-156002532D01*
X93791796Y-155988470D01*
X93804355Y-155974961D01*
X93817462Y-155962005D01*
X93831115Y-155949604D01*
X93845317Y-155937757D01*
X93860065Y-155926463D01*
X93870202Y-155919242D01*
X93885841Y-155908865D01*
X93901848Y-155899029D01*
X93918222Y-155889734D01*
X93934963Y-155880980D01*
X93952070Y-155872766D01*
X93969545Y-155865094D01*
X93987387Y-155857963D01*
X94005596Y-155851373D01*
X94024173Y-155845323D01*
X94043116Y-155839815D01*
X94055949Y-155836443D01*
X94075339Y-155831729D01*
X94094769Y-155827479D01*
X94114237Y-155823692D01*
X94133744Y-155820369D01*
X94153289Y-155817510D01*
X94172873Y-155815114D01*
X94192496Y-155813182D01*
X94212157Y-155811714D01*
X94231857Y-155810709D01*
X94251596Y-155810168D01*
X94264776Y-155810065D01*
X94280642Y-155810251D01*
X94296547Y-155810809D01*
X94312492Y-155811740D01*
X94328478Y-155813042D01*
X94344503Y-155814716D01*
X94360569Y-155816763D01*
X94376675Y-155819181D01*
X94392821Y-155821972D01*
X94409006Y-155825135D01*
X94425232Y-155828670D01*
X94441498Y-155832577D01*
X94457804Y-155836856D01*
X94474151Y-155841507D01*
X94490537Y-155846530D01*
X94506963Y-155851925D01*
X94523429Y-155857692D01*
X94539788Y-155863822D01*
X94555893Y-155870303D01*
X94571742Y-155877137D01*
X94587337Y-155884323D01*
X94602677Y-155891860D01*
X94617762Y-155899750D01*
X94632593Y-155907992D01*
X94647169Y-155916586D01*
X94661490Y-155925531D01*
X94675556Y-155934829D01*
X94689368Y-155944479D01*
X94702925Y-155954481D01*
X94716227Y-155964835D01*
X94729275Y-155975542D01*
X94742067Y-155986600D01*
X94754605Y-155998010D01*
X94524528Y-156243840D01*
G37*
G36*
X95670150Y-156698132D02*
G01*
X95670150Y-157334141D01*
X95309281Y-157334141D01*
X95309281Y-156698132D01*
X94748011Y-155833512D01*
X95184717Y-155833512D01*
X95503454Y-156388921D01*
X95822191Y-155833512D01*
X96244242Y-155833512D01*
X95670150Y-156698132D01*
G37*
G36*
X96908077Y-155833657D02*
G01*
X96927809Y-155834091D01*
X96947507Y-155834813D01*
X96967171Y-155835825D01*
X96986800Y-155837126D01*
X97006395Y-155838716D01*
X97025955Y-155840595D01*
X97045481Y-155842763D01*
X97064973Y-155845220D01*
X97084430Y-155847967D01*
X97103853Y-155851002D01*
X97123242Y-155854327D01*
X97142596Y-155857940D01*
X97161916Y-155861843D01*
X97181202Y-155866034D01*
X97200453Y-155870515D01*
X97219600Y-155875332D01*
X97238481Y-155880533D01*
X97257095Y-155886117D01*
X97275443Y-155892085D01*
X97293525Y-155898436D01*
X97311341Y-155905171D01*
X97328891Y-155912289D01*
X97346175Y-155919791D01*
X97363192Y-155927677D01*
X97379943Y-155935946D01*
X97396428Y-155944598D01*
X97412647Y-155953634D01*
X97428599Y-155963054D01*
X97444286Y-155972857D01*
X97459706Y-155983043D01*
X97474860Y-155993614D01*
X97489744Y-156004559D01*
X97504261Y-156015962D01*
X97518412Y-156027823D01*
X97532196Y-156040142D01*
X97545614Y-156052919D01*
X97558666Y-156066154D01*
X97571351Y-156079847D01*
X97583670Y-156093997D01*
X97595623Y-156108606D01*
X97607209Y-156123673D01*
X97618429Y-156139198D01*
X97629283Y-156155180D01*
X97639770Y-156171621D01*
X97649891Y-156188519D01*
X97659645Y-156205876D01*
X97669033Y-156223690D01*
X97677995Y-156241953D01*
X97686378Y-156260745D01*
X97694183Y-156280066D01*
X97701410Y-156299917D01*
X97708059Y-156320298D01*
X97714130Y-156341207D01*
X97719623Y-156362647D01*
X97724537Y-156384616D01*
X97728873Y-156407114D01*
X97732632Y-156430142D01*
X97735812Y-156453700D01*
X97738413Y-156477787D01*
X97740437Y-156502403D01*
X97741882Y-156527549D01*
X97742750Y-156553225D01*
X97743039Y-156579430D01*
X97742754Y-156603858D01*
X97741899Y-156627865D01*
X97740475Y-156651451D01*
X97738482Y-156674616D01*
X97735919Y-156697361D01*
X97732786Y-156719685D01*
X97729084Y-156741588D01*
X97724812Y-156763070D01*
X97719971Y-156784132D01*
X97714560Y-156804773D01*
X97708579Y-156824993D01*
X97702029Y-156844792D01*
X97694909Y-156864171D01*
X97687220Y-156883129D01*
X97678961Y-156901666D01*
X97670132Y-156919783D01*
X97660838Y-156937445D01*
X97651184Y-156954713D01*
X97641169Y-156971586D01*
X97630794Y-156988064D01*
X97620058Y-157004146D01*
X97608961Y-157019834D01*
X97597503Y-157035127D01*
X97585685Y-157050025D01*
X97573506Y-157064528D01*
X97560967Y-157078636D01*
X97548067Y-157092349D01*
X97534806Y-157105667D01*
X97521185Y-157118590D01*
X97507203Y-157131117D01*
X97492860Y-157143250D01*
X97478157Y-157154988D01*
X97463152Y-157166339D01*
X97447904Y-157177308D01*
X97432412Y-157187897D01*
X97416677Y-157198105D01*
X97400698Y-157207932D01*
X97384477Y-157217379D01*
X97368012Y-157226445D01*
X97351304Y-157235131D01*
X97334352Y-157243435D01*
X97317157Y-157251359D01*
X97299719Y-157258903D01*
X97282038Y-157266065D01*
X97264113Y-157272847D01*
X97245945Y-157279249D01*
X97227534Y-157285270D01*
X97208880Y-157290910D01*
X97190133Y-157296145D01*
X97171356Y-157301042D01*
X97152547Y-157305601D01*
X97133706Y-157309823D01*
X97114834Y-157313707D01*
X97095931Y-157317253D01*
X97076996Y-157320462D01*
X97058029Y-157323333D01*
X97039031Y-157325866D01*
X97020002Y-157328061D01*
X97000941Y-157329919D01*
X96981848Y-157331439D01*
X96962724Y-157332621D01*
X96943569Y-157333465D01*
X96924382Y-157333972D01*
X96905164Y-157334141D01*
X96347923Y-157334141D01*
X96347923Y-156138328D01*
X96700366Y-156138328D01*
X96700366Y-157029325D01*
X96871458Y-157029325D01*
X96889597Y-157029129D01*
X96907608Y-157028540D01*
X96925490Y-157027558D01*
X96943243Y-157026183D01*
X96960867Y-157024415D01*
X96978362Y-157022254D01*
X96995728Y-157019701D01*
X97012966Y-157016755D01*
X97030075Y-157013415D01*
X97047055Y-157009683D01*
X97058304Y-157006977D01*
X97074947Y-157002464D01*
X97091216Y-156997442D01*
X97107113Y-156991911D01*
X97122635Y-156985871D01*
X97137784Y-156979323D01*
X97152560Y-156972266D01*
X97166962Y-156964700D01*
X97180990Y-156956625D01*
X97194645Y-156948042D01*
X97207926Y-156938949D01*
X97216573Y-156932605D01*
X97229177Y-156922617D01*
X97241298Y-156912023D01*
X97252937Y-156900824D01*
X97264092Y-156889019D01*
X97274764Y-156876609D01*
X97284953Y-156863594D01*
X97294659Y-156849974D01*
X97303882Y-156835748D01*
X97312622Y-156820916D01*
X97320880Y-156805480D01*
X97326116Y-156794852D01*
X97333515Y-156778349D01*
X97340185Y-156761124D01*
X97346128Y-156743178D01*
X97351344Y-156724510D01*
X97355831Y-156705122D01*
X97359591Y-156685012D01*
X97362623Y-156664180D01*
X97364928Y-156642628D01*
X97366060Y-156627859D01*
X97366868Y-156612769D01*
X97367354Y-156597359D01*
X97367515Y-156581628D01*
X97367354Y-156565680D01*
X97366868Y-156550075D01*
X97366060Y-156534814D01*
X97364928Y-156519896D01*
X97362623Y-156498163D01*
X97359591Y-156477203D01*
X97355831Y-156457016D01*
X97351344Y-156437601D01*
X97346128Y-156418960D01*
X97340185Y-156401091D01*
X97333515Y-156383995D01*
X97326116Y-156367672D01*
X97318181Y-156352037D01*
X97309763Y-156337009D01*
X97300862Y-156322585D01*
X97291477Y-156308767D01*
X97281610Y-156295554D01*
X97271260Y-156282947D01*
X97260427Y-156270945D01*
X97249111Y-156259548D01*
X97237312Y-156248757D01*
X97225030Y-156238571D01*
X97216573Y-156232117D01*
X97203557Y-156222829D01*
X97190199Y-156214063D01*
X97176500Y-156205819D01*
X97162460Y-156198096D01*
X97148078Y-156190895D01*
X97133356Y-156184216D01*
X97118291Y-156178058D01*
X97102886Y-156172422D01*
X97087139Y-156167308D01*
X97071051Y-156162715D01*
X97060136Y-156159943D01*
X97043673Y-156156080D01*
X97027120Y-156152597D01*
X97010477Y-156149494D01*
X96993744Y-156146771D01*
X96976920Y-156144428D01*
X96960007Y-156142465D01*
X96943003Y-156140882D01*
X96925909Y-156139678D01*
X96908725Y-156138855D01*
X96891451Y-156138412D01*
X96879884Y-156138328D01*
X96700366Y-156138328D01*
X96347923Y-156138328D01*
X96347923Y-155833512D01*
X96888311Y-155833512D01*
X96908077Y-155833657D01*
G37*
G36*
X99441137Y-157334141D02*
G01*
X99441137Y-156701063D01*
X98858618Y-156701063D01*
X98858618Y-157334141D01*
X98497749Y-157334141D01*
X98497749Y-155833512D01*
X98858618Y-155833512D01*
X98858618Y-156396248D01*
X99441137Y-156396248D01*
X99441137Y-155833512D01*
X99802006Y-155833512D01*
X99802006Y-157334141D01*
X99441137Y-157334141D01*
G37*
G36*
X100100959Y-157334141D02*
G01*
X100100959Y-155833512D01*
X101105530Y-155833512D01*
X101105530Y-156138328D01*
X100449371Y-156138328D01*
X100449371Y-156419695D01*
X101069626Y-156419695D01*
X101069626Y-156724510D01*
X100449371Y-156724510D01*
X100449371Y-157029325D01*
X101143632Y-157029325D01*
X101143632Y-157334141D01*
X100100959Y-157334141D01*
G37*
G36*
X101964586Y-155833712D02*
G01*
X101984578Y-155834311D01*
X102004480Y-155835309D01*
X102024291Y-155836707D01*
X102044013Y-155838503D01*
X102063644Y-155840699D01*
X102083185Y-155843295D01*
X102102636Y-155846289D01*
X102121997Y-155849683D01*
X102141267Y-155853476D01*
X102154064Y-155856227D01*
X102173112Y-155860694D01*
X102191786Y-155865715D01*
X102210086Y-155871290D01*
X102228013Y-155877419D01*
X102245566Y-155884101D01*
X102262746Y-155891338D01*
X102279552Y-155899128D01*
X102295985Y-155907472D01*
X102312044Y-155916370D01*
X102327730Y-155925822D01*
X102337979Y-155932431D01*
X102352939Y-155942763D01*
X102367320Y-155953700D01*
X102381121Y-155965243D01*
X102394342Y-155977391D01*
X102406984Y-155990144D01*
X102419046Y-156003503D01*
X102430528Y-156017467D01*
X102441431Y-156032036D01*
X102451755Y-156047211D01*
X102461498Y-156062991D01*
X102467672Y-156073847D01*
X102476380Y-156090711D01*
X102484232Y-156108327D01*
X102491227Y-156126697D01*
X102497365Y-156145821D01*
X102502647Y-156165698D01*
X102507072Y-156186328D01*
X102510641Y-156207712D01*
X102512544Y-156222387D01*
X102514067Y-156237396D01*
X102515209Y-156252741D01*
X102515970Y-156268420D01*
X102516351Y-156284434D01*
X102516399Y-156292567D01*
X102516077Y-156311655D01*
X102515111Y-156330360D01*
X102513501Y-156348681D01*
X102511247Y-156366618D01*
X102508349Y-156384172D01*
X102504807Y-156401343D01*
X102500621Y-156418130D01*
X102495791Y-156434533D01*
X102490317Y-156450553D01*
X102484199Y-156466189D01*
X102477437Y-156481442D01*
X102470031Y-156496311D01*
X102461981Y-156510797D01*
X102453287Y-156524899D01*
X102443949Y-156538618D01*
X102433967Y-156551953D01*
X102423460Y-156564861D01*
X102412454Y-156577301D01*
X102400951Y-156589270D01*
X102388950Y-156600771D01*
X102376450Y-156611802D01*
X102363453Y-156622363D01*
X102349958Y-156632456D01*
X102335964Y-156642078D01*
X102321473Y-156651232D01*
X102306483Y-156659916D01*
X102290996Y-156668130D01*
X102275010Y-156675875D01*
X102258527Y-156683151D01*
X102241545Y-156689958D01*
X102224066Y-156696295D01*
X102206088Y-156702162D01*
X102596632Y-157334141D01*
X102174581Y-157334141D01*
X101851448Y-156747958D01*
X101729082Y-156747958D01*
X101729082Y-157334141D01*
X101374441Y-157334141D01*
X101374441Y-156138328D01*
X101726884Y-156138328D01*
X101726884Y-156490037D01*
X101897976Y-156490037D01*
X101914664Y-156489780D01*
X101931481Y-156489007D01*
X101948427Y-156487719D01*
X101965501Y-156485916D01*
X101982705Y-156483597D01*
X101988468Y-156482710D01*
X102005607Y-156479426D01*
X102022128Y-156475343D01*
X102038030Y-156470461D01*
X102053314Y-156464781D01*
X102067980Y-156458302D01*
X102072732Y-156455965D01*
X102086530Y-156448216D01*
X102099350Y-156439256D01*
X102111191Y-156429085D01*
X102122053Y-156417703D01*
X102131937Y-156405111D01*
X102135013Y-156400644D01*
X102143355Y-156386296D01*
X102149971Y-156370454D01*
X102154166Y-156356110D01*
X102157163Y-156340729D01*
X102158961Y-156324311D01*
X102159560Y-156306855D01*
X102159014Y-156290641D01*
X102157377Y-156275428D01*
X102153973Y-156258495D01*
X102148997Y-156243005D01*
X102142450Y-156228957D01*
X102137212Y-156220393D01*
X102128518Y-156208556D01*
X102117235Y-156196082D01*
X102104725Y-156185045D01*
X102090989Y-156175445D01*
X102080425Y-156169468D01*
X102067077Y-156163024D01*
X102053137Y-156157430D01*
X102038604Y-156152686D01*
X102023478Y-156148792D01*
X102007761Y-156145748D01*
X102002390Y-156144922D01*
X101986281Y-156142681D01*
X101970379Y-156140904D01*
X101954682Y-156139590D01*
X101939192Y-156138740D01*
X101923908Y-156138353D01*
X101918859Y-156138328D01*
X101726884Y-156138328D01*
X101374441Y-156138328D01*
X101374441Y-155833512D01*
X101944504Y-155833512D01*
X101964586Y-155833712D01*
G37*
G36*
X102766625Y-157334141D02*
G01*
X102766625Y-155833512D01*
X103771196Y-155833512D01*
X103771196Y-156138328D01*
X103115038Y-156138328D01*
X103115038Y-156419695D01*
X103735293Y-156419695D01*
X103735293Y-156724510D01*
X103115038Y-156724510D01*
X103115038Y-157029325D01*
X103809298Y-157029325D01*
X103809298Y-157334141D01*
X102766625Y-157334141D01*
G37*
G36*
X104829623Y-156243840D02*
G01*
X104817544Y-156229386D01*
X104804573Y-156215699D01*
X104790708Y-156202779D01*
X104775950Y-156190626D01*
X104760300Y-156179240D01*
X104747976Y-156171204D01*
X104735149Y-156163599D01*
X104721821Y-156156426D01*
X104707990Y-156149685D01*
X104694021Y-156143465D01*
X104680143Y-156137857D01*
X104666355Y-156132860D01*
X104648111Y-156127150D01*
X104630028Y-156122528D01*
X104612105Y-156118993D01*
X104594342Y-156116546D01*
X104576739Y-156115186D01*
X104563642Y-156114880D01*
X104547882Y-156115178D01*
X104532016Y-156116072D01*
X104516045Y-156117562D01*
X104499969Y-156119649D01*
X104490736Y-156121108D01*
X104475040Y-156124394D01*
X104460011Y-156128802D01*
X104445648Y-156134332D01*
X104431951Y-156140984D01*
X104424424Y-156145288D01*
X104411897Y-156153651D01*
X104400281Y-156163030D01*
X104389577Y-156173426D01*
X104379785Y-156184839D01*
X104374598Y-156191817D01*
X104366890Y-156204912D01*
X104361074Y-156219516D01*
X104357152Y-156235627D01*
X104355298Y-156250636D01*
X104354815Y-156263990D01*
X104355568Y-156279904D01*
X104357830Y-156294625D01*
X104362261Y-156309989D01*
X104368661Y-156323797D01*
X104370568Y-156327005D01*
X104379361Y-156339255D01*
X104389986Y-156350727D01*
X104402442Y-156361420D01*
X104414844Y-156370138D01*
X104416730Y-156371335D01*
X104430738Y-156379369D01*
X104445832Y-156387123D01*
X104459635Y-156393546D01*
X104474236Y-156399763D01*
X104489637Y-156405773D01*
X104505934Y-156411720D01*
X104520066Y-156416734D01*
X104534699Y-156421802D01*
X104549833Y-156426923D01*
X104565468Y-156432099D01*
X104581604Y-156437328D01*
X104584891Y-156438380D01*
X104599166Y-156443103D01*
X104613549Y-156447928D01*
X104628043Y-156452857D01*
X104642645Y-156457889D01*
X104657357Y-156463024D01*
X104672179Y-156468261D01*
X104687110Y-156473602D01*
X104702151Y-156479046D01*
X104717301Y-156484593D01*
X104732561Y-156490243D01*
X104742794Y-156494067D01*
X104758118Y-156499946D01*
X104773178Y-156506179D01*
X104787974Y-156512766D01*
X104802506Y-156519707D01*
X104816774Y-156527002D01*
X104830778Y-156534652D01*
X104844517Y-156542656D01*
X104857993Y-156551014D01*
X104871205Y-156559726D01*
X104884152Y-156568793D01*
X104892637Y-156575034D01*
X104905140Y-156584660D01*
X104917230Y-156594719D01*
X104928907Y-156605208D01*
X104940173Y-156616129D01*
X104951027Y-156627482D01*
X104961468Y-156639266D01*
X104971497Y-156651482D01*
X104981114Y-156664129D01*
X104990319Y-156677208D01*
X104999112Y-156690718D01*
X105004745Y-156699964D01*
X105012667Y-156714231D01*
X105019810Y-156729141D01*
X105026174Y-156744696D01*
X105031758Y-156760895D01*
X105036564Y-156777738D01*
X105040590Y-156795224D01*
X105043837Y-156813355D01*
X105046304Y-156832130D01*
X105047993Y-156851549D01*
X105048902Y-156871611D01*
X105049075Y-156885344D01*
X105048889Y-156901237D01*
X105048331Y-156916857D01*
X105047401Y-156932206D01*
X105046098Y-156947283D01*
X105044424Y-156962088D01*
X105042377Y-156976620D01*
X105038610Y-156997910D01*
X105034005Y-157018588D01*
X105028564Y-157038654D01*
X105022285Y-157058108D01*
X105015168Y-157076950D01*
X105007215Y-157095181D01*
X105001448Y-157106995D01*
X104992296Y-157124228D01*
X104982565Y-157140895D01*
X104972255Y-157156995D01*
X104961365Y-157172528D01*
X104949895Y-157187495D01*
X104937846Y-157201894D01*
X104925217Y-157215728D01*
X104912009Y-157228994D01*
X104898221Y-157241694D01*
X104883853Y-157253827D01*
X104873953Y-157261600D01*
X104858703Y-157272727D01*
X104843041Y-157283299D01*
X104826967Y-157293317D01*
X104810480Y-157302782D01*
X104793582Y-157311693D01*
X104776271Y-157320050D01*
X104758548Y-157327853D01*
X104740413Y-157335102D01*
X104721866Y-157341798D01*
X104702906Y-157347939D01*
X104690038Y-157351726D01*
X104670612Y-157356964D01*
X104651076Y-157361687D01*
X104631431Y-157365894D01*
X104611676Y-157369586D01*
X104591812Y-157372763D01*
X104571838Y-157375425D01*
X104551755Y-157377572D01*
X104531562Y-157379203D01*
X104511260Y-157380320D01*
X104490849Y-157380921D01*
X104477180Y-157381035D01*
X104457163Y-157380812D01*
X104437229Y-157380142D01*
X104417378Y-157379026D01*
X104397611Y-157377463D01*
X104377926Y-157375454D01*
X104358324Y-157372998D01*
X104338805Y-157370096D01*
X104319369Y-157366747D01*
X104300016Y-157362952D01*
X104280746Y-157358710D01*
X104261559Y-157354021D01*
X104242455Y-157348887D01*
X104223434Y-157343305D01*
X104204496Y-157337277D01*
X104185642Y-157330803D01*
X104166870Y-157323882D01*
X104148337Y-157316503D01*
X104130199Y-157308747D01*
X104112456Y-157300612D01*
X104095108Y-157292100D01*
X104078155Y-157283210D01*
X104061597Y-157273942D01*
X104045434Y-157264297D01*
X104029666Y-157254273D01*
X104014293Y-157243872D01*
X103999315Y-157233093D01*
X103984732Y-157221936D01*
X103970544Y-157210401D01*
X103956751Y-157198488D01*
X103943353Y-157186198D01*
X103930350Y-157173530D01*
X103917742Y-157160484D01*
X104154413Y-156917951D01*
X104164958Y-156930397D01*
X104176120Y-156942457D01*
X104187901Y-156954131D01*
X104200300Y-156965418D01*
X104213318Y-156976319D01*
X104226953Y-156986833D01*
X104241207Y-156996961D01*
X104256079Y-157006702D01*
X104271570Y-157016058D01*
X104287678Y-157025026D01*
X104298761Y-157030791D01*
X104315581Y-157038910D01*
X104332382Y-157046230D01*
X104349164Y-157052751D01*
X104365926Y-157058474D01*
X104382669Y-157063399D01*
X104399392Y-157067525D01*
X104416097Y-157070852D01*
X104432782Y-157073381D01*
X104449447Y-157075111D01*
X104466093Y-157076043D01*
X104477180Y-157076220D01*
X104492091Y-157075924D01*
X104506873Y-157075035D01*
X104521526Y-157073554D01*
X104536050Y-157071480D01*
X104552833Y-157068312D01*
X104555216Y-157067794D01*
X104571412Y-157063616D01*
X104586662Y-157058457D01*
X104600965Y-157052316D01*
X104614321Y-157045194D01*
X104621528Y-157040683D01*
X104633469Y-157031752D01*
X104644288Y-157021629D01*
X104653985Y-157010314D01*
X104662561Y-156997807D01*
X104666957Y-156990124D01*
X104673524Y-156975744D01*
X104678477Y-156960171D01*
X104681818Y-156943407D01*
X104683398Y-156928088D01*
X104683810Y-156914653D01*
X104683063Y-156899305D01*
X104680303Y-156882538D01*
X104675509Y-156866997D01*
X104668682Y-156852685D01*
X104662561Y-156843212D01*
X104652548Y-156830635D01*
X104640782Y-156818549D01*
X104629302Y-156808580D01*
X104616533Y-156798971D01*
X104602477Y-156789723D01*
X104587231Y-156780810D01*
X104573484Y-156773619D01*
X104558788Y-156766642D01*
X104543144Y-156759880D01*
X104526552Y-156753333D01*
X104512596Y-156748250D01*
X104505390Y-156745759D01*
X104490667Y-156740676D01*
X104475440Y-156735501D01*
X104459709Y-156730235D01*
X104443475Y-156724877D01*
X104426736Y-156719427D01*
X104409494Y-156713886D01*
X104391749Y-156708253D01*
X104373499Y-156702528D01*
X104355679Y-156696627D01*
X104337939Y-156690461D01*
X104320279Y-156684033D01*
X104302699Y-156677341D01*
X104285200Y-156670386D01*
X104267780Y-156663167D01*
X104250441Y-156655685D01*
X104233182Y-156647940D01*
X104216283Y-156639783D01*
X104199843Y-156631065D01*
X104183860Y-156621785D01*
X104168335Y-156611945D01*
X104153268Y-156601544D01*
X104138660Y-156590581D01*
X104124509Y-156579058D01*
X104110816Y-156566974D01*
X104097764Y-156554283D01*
X104085354Y-156540939D01*
X104073584Y-156526943D01*
X104062456Y-156512294D01*
X104051969Y-156496992D01*
X104042123Y-156481038D01*
X104032918Y-156464432D01*
X104024354Y-156447173D01*
X104018527Y-156433716D01*
X104013273Y-156419725D01*
X104008592Y-156405200D01*
X104004485Y-156390140D01*
X104000950Y-156374546D01*
X103997989Y-156358417D01*
X103995601Y-156341753D01*
X103993786Y-156324555D01*
X103992544Y-156306823D01*
X103991875Y-156288555D01*
X103991748Y-156276080D01*
X103991945Y-156260742D01*
X103992538Y-156245684D01*
X103993525Y-156230906D01*
X103995747Y-156209266D01*
X103998857Y-156188256D01*
X104002857Y-156167878D01*
X104007745Y-156148131D01*
X104013521Y-156129015D01*
X104020187Y-156110530D01*
X104027741Y-156092676D01*
X104036184Y-156075453D01*
X104042306Y-156064322D01*
X104052128Y-156048044D01*
X104062497Y-156032319D01*
X104073414Y-156017149D01*
X104084879Y-156002532D01*
X104096890Y-155988470D01*
X104109449Y-155974961D01*
X104122556Y-155962005D01*
X104136210Y-155949604D01*
X104150411Y-155937757D01*
X104165160Y-155926463D01*
X104175296Y-155919242D01*
X104190936Y-155908865D01*
X104206942Y-155899029D01*
X104223316Y-155889734D01*
X104240057Y-155880980D01*
X104257165Y-155872766D01*
X104274640Y-155865094D01*
X104292482Y-155857963D01*
X104310691Y-155851373D01*
X104329267Y-155845323D01*
X104348210Y-155839815D01*
X104361043Y-155836443D01*
X104380434Y-155831729D01*
X104399863Y-155827479D01*
X104419331Y-155823692D01*
X104438838Y-155820369D01*
X104458383Y-155817510D01*
X104477967Y-155815114D01*
X104497590Y-155813182D01*
X104517251Y-155811714D01*
X104536951Y-155810709D01*
X104556690Y-155810168D01*
X104569870Y-155810065D01*
X104585736Y-155810251D01*
X104601641Y-155810809D01*
X104617587Y-155811740D01*
X104633572Y-155813042D01*
X104649598Y-155814716D01*
X104665663Y-155816763D01*
X104681769Y-155819181D01*
X104697915Y-155821972D01*
X104714101Y-155825135D01*
X104730327Y-155828670D01*
X104746593Y-155832577D01*
X104762899Y-155836856D01*
X104779245Y-155841507D01*
X104795631Y-155846530D01*
X104812057Y-155851925D01*
X104828524Y-155857692D01*
X104844883Y-155863822D01*
X104860987Y-155870303D01*
X104876836Y-155877137D01*
X104892431Y-155884323D01*
X104907771Y-155891860D01*
X104922857Y-155899750D01*
X104937687Y-155907992D01*
X104952263Y-155916586D01*
X104966584Y-155925531D01*
X104980651Y-155934829D01*
X104994462Y-155944479D01*
X105008019Y-155954481D01*
X105021321Y-155964835D01*
X105034369Y-155975542D01*
X105047162Y-155986600D01*
X105059699Y-155998010D01*
X104829623Y-156243840D01*
G37*
G36*
X105975244Y-156698132D02*
G01*
X105975244Y-157334141D01*
X105614375Y-157334141D01*
X105614375Y-156698132D01*
X105053105Y-155833512D01*
X105489811Y-155833512D01*
X105808548Y-156388921D01*
X106127285Y-155833512D01*
X106549337Y-155833512D01*
X105975244Y-156698132D01*
G37*
G36*
X107687980Y-155833657D02*
G01*
X107707712Y-155834091D01*
X107727410Y-155834813D01*
X107747073Y-155835825D01*
X107766702Y-155837126D01*
X107786297Y-155838716D01*
X107805857Y-155840595D01*
X107825383Y-155842763D01*
X107844875Y-155845220D01*
X107864332Y-155847967D01*
X107883755Y-155851002D01*
X107903144Y-155854327D01*
X107922499Y-155857940D01*
X107941818Y-155861843D01*
X107961104Y-155866034D01*
X107980355Y-155870515D01*
X107999502Y-155875332D01*
X108018383Y-155880533D01*
X108036997Y-155886117D01*
X108055346Y-155892085D01*
X108073428Y-155898436D01*
X108091244Y-155905171D01*
X108108793Y-155912289D01*
X108126077Y-155919791D01*
X108143094Y-155927677D01*
X108159845Y-155935946D01*
X108176330Y-155944598D01*
X108192549Y-155953634D01*
X108208502Y-155963054D01*
X108224188Y-155972857D01*
X108239608Y-155983043D01*
X108254762Y-155993614D01*
X108269646Y-156004559D01*
X108284163Y-156015962D01*
X108298314Y-156027823D01*
X108312098Y-156040142D01*
X108325516Y-156052919D01*
X108338568Y-156066154D01*
X108351253Y-156079847D01*
X108363572Y-156093997D01*
X108375525Y-156108606D01*
X108387111Y-156123673D01*
X108398331Y-156139198D01*
X108409185Y-156155180D01*
X108419672Y-156171621D01*
X108429793Y-156188519D01*
X108439547Y-156205876D01*
X108448935Y-156223690D01*
X108457897Y-156241953D01*
X108466280Y-156260745D01*
X108474086Y-156280066D01*
X108481313Y-156299917D01*
X108487962Y-156320298D01*
X108494032Y-156341207D01*
X108499525Y-156362647D01*
X108504440Y-156384616D01*
X108508776Y-156407114D01*
X108512534Y-156430142D01*
X108515714Y-156453700D01*
X108518316Y-156477787D01*
X108520339Y-156502403D01*
X108521785Y-156527549D01*
X108522652Y-156553225D01*
X108522941Y-156579430D01*
X108522656Y-156603858D01*
X108521802Y-156627865D01*
X108520378Y-156651451D01*
X108518384Y-156674616D01*
X108515821Y-156697361D01*
X108512688Y-156719685D01*
X108508986Y-156741588D01*
X108504714Y-156763070D01*
X108499873Y-156784132D01*
X108494462Y-156804773D01*
X108488481Y-156824993D01*
X108481931Y-156844792D01*
X108474811Y-156864171D01*
X108467122Y-156883129D01*
X108458863Y-156901666D01*
X108450034Y-156919783D01*
X108440741Y-156937445D01*
X108431087Y-156954713D01*
X108421072Y-156971586D01*
X108410696Y-156988064D01*
X108399960Y-157004146D01*
X108388863Y-157019834D01*
X108377406Y-157035127D01*
X108365587Y-157050025D01*
X108353409Y-157064528D01*
X108340869Y-157078636D01*
X108327969Y-157092349D01*
X108314709Y-157105667D01*
X108301087Y-157118590D01*
X108287105Y-157131117D01*
X108272763Y-157143250D01*
X108258060Y-157154988D01*
X108243054Y-157166339D01*
X108227806Y-157177308D01*
X108212314Y-157187897D01*
X108196579Y-157198105D01*
X108180601Y-157207932D01*
X108164379Y-157217379D01*
X108147914Y-157226445D01*
X108131206Y-157235131D01*
X108114254Y-157243435D01*
X108097060Y-157251359D01*
X108079622Y-157258903D01*
X108061940Y-157266065D01*
X108044016Y-157272847D01*
X108025848Y-157279249D01*
X108007436Y-157285270D01*
X107988782Y-157290910D01*
X107970036Y-157296145D01*
X107951258Y-157301042D01*
X107932449Y-157305601D01*
X107913608Y-157309823D01*
X107894736Y-157313707D01*
X107875833Y-157317253D01*
X107856898Y-157320462D01*
X107837931Y-157323333D01*
X107818933Y-157325866D01*
X107799904Y-157328061D01*
X107780843Y-157329919D01*
X107761750Y-157331439D01*
X107742627Y-157332621D01*
X107723471Y-157333465D01*
X107704284Y-157333972D01*
X107685066Y-157334141D01*
X107127826Y-157334141D01*
X107127826Y-156138328D01*
X107480268Y-156138328D01*
X107480268Y-157029325D01*
X107651360Y-157029325D01*
X107669500Y-157029129D01*
X107687510Y-157028540D01*
X107705392Y-157027558D01*
X107723145Y-157026183D01*
X107740769Y-157024415D01*
X107758264Y-157022254D01*
X107775631Y-157019701D01*
X107792869Y-157016755D01*
X107809977Y-157013415D01*
X107826958Y-157009683D01*
X107838206Y-157006977D01*
X107854849Y-157002464D01*
X107871119Y-156997442D01*
X107887015Y-156991911D01*
X107902537Y-156985871D01*
X107917686Y-156979323D01*
X107932462Y-156972266D01*
X107946864Y-156964700D01*
X107960892Y-156956625D01*
X107974547Y-156948042D01*
X107987829Y-156938949D01*
X107996475Y-156932605D01*
X108009080Y-156922617D01*
X108021201Y-156912023D01*
X108032839Y-156900824D01*
X108043994Y-156889019D01*
X108054666Y-156876609D01*
X108064855Y-156863594D01*
X108074561Y-156849974D01*
X108083785Y-156835748D01*
X108092525Y-156820916D01*
X108100782Y-156805480D01*
X108106018Y-156794852D01*
X108113417Y-156778349D01*
X108120088Y-156761124D01*
X108126031Y-156743178D01*
X108131246Y-156724510D01*
X108135734Y-156705122D01*
X108139493Y-156685012D01*
X108142526Y-156664180D01*
X108144830Y-156642628D01*
X108145962Y-156627859D01*
X108146771Y-156612769D01*
X108147256Y-156597359D01*
X108147418Y-156581628D01*
X108147256Y-156565680D01*
X108146771Y-156550075D01*
X108145962Y-156534814D01*
X108144830Y-156519896D01*
X108142526Y-156498163D01*
X108139493Y-156477203D01*
X108135734Y-156457016D01*
X108131246Y-156437601D01*
X108126031Y-156418960D01*
X108120088Y-156401091D01*
X108113417Y-156383995D01*
X108106018Y-156367672D01*
X108098083Y-156352037D01*
X108089665Y-156337009D01*
X108080764Y-156322585D01*
X108071380Y-156308767D01*
X108061513Y-156295554D01*
X108051162Y-156282947D01*
X108040329Y-156270945D01*
X108029013Y-156259548D01*
X108017214Y-156248757D01*
X108004932Y-156238571D01*
X107996475Y-156232117D01*
X107983459Y-156222829D01*
X107970102Y-156214063D01*
X107956403Y-156205819D01*
X107942362Y-156198096D01*
X107927981Y-156190895D01*
X107913258Y-156184216D01*
X107898194Y-156178058D01*
X107882788Y-156172422D01*
X107867041Y-156167308D01*
X107850953Y-156162715D01*
X107840038Y-156159943D01*
X107823575Y-156156080D01*
X107807022Y-156152597D01*
X107790379Y-156149494D01*
X107773646Y-156146771D01*
X107756822Y-156144428D01*
X107739909Y-156142465D01*
X107722905Y-156140882D01*
X107705811Y-156139678D01*
X107688627Y-156138855D01*
X107671353Y-156138412D01*
X107659787Y-156138328D01*
X107480268Y-156138328D01*
X107127826Y-156138328D01*
X107127826Y-155833512D01*
X107668213Y-155833512D01*
X107687980Y-155833657D01*
G37*
G36*
X108753018Y-157334141D02*
G01*
X108753018Y-155833512D01*
X109116085Y-155833512D01*
X109116085Y-157334141D01*
X108753018Y-157334141D01*
G37*
G36*
X110145935Y-156698132D02*
G01*
X110145935Y-157334141D01*
X109785066Y-157334141D01*
X109785066Y-156698132D01*
X109223796Y-155833512D01*
X109660502Y-155833512D01*
X109979239Y-156388921D01*
X110297976Y-155833512D01*
X110720027Y-155833512D01*
X110145935Y-156698132D01*
G37*
G36*
X77757488Y-54463141D02*
G01*
X77757488Y-52259093D01*
X77200614Y-52689205D01*
X76833517Y-52187286D01*
X77816839Y-51461884D01*
X78466769Y-51461884D01*
X78466769Y-54463141D01*
X77757488Y-54463141D01*
G37*
G36*
X76850370Y-66147141D02*
G01*
X76850370Y-65562423D01*
X78014676Y-64519018D01*
X78041489Y-64492765D01*
X78066974Y-64466399D01*
X78091131Y-64439917D01*
X78113960Y-64413322D01*
X78135461Y-64386611D01*
X78155634Y-64359787D01*
X78174479Y-64332847D01*
X78191996Y-64305794D01*
X78207967Y-64278282D01*
X78221809Y-64249969D01*
X78233521Y-64220854D01*
X78243104Y-64190938D01*
X78250557Y-64160221D01*
X78255881Y-64128702D01*
X78259075Y-64096382D01*
X78260140Y-64063261D01*
X78258548Y-64024632D01*
X78253774Y-63987881D01*
X78245817Y-63953008D01*
X78234677Y-63920012D01*
X78220355Y-63888894D01*
X78202850Y-63859654D01*
X78182161Y-63832291D01*
X78158291Y-63806806D01*
X78131958Y-63783793D01*
X78103519Y-63763849D01*
X78072973Y-63746974D01*
X78040321Y-63733166D01*
X78005562Y-63722427D01*
X77968697Y-63714757D01*
X77929725Y-63710154D01*
X77899114Y-63708716D01*
X77888646Y-63708620D01*
X77855972Y-63709715D01*
X77824444Y-63712999D01*
X77794062Y-63718473D01*
X77764827Y-63726137D01*
X77736738Y-63735990D01*
X77709795Y-63748033D01*
X77683998Y-63762265D01*
X77659348Y-63778687D01*
X77635844Y-63797299D01*
X77613487Y-63818100D01*
X77599219Y-63833184D01*
X77579004Y-63857222D01*
X77560398Y-63882626D01*
X77543403Y-63909395D01*
X77528018Y-63937529D01*
X77514243Y-63967028D01*
X77502078Y-63997893D01*
X77491523Y-64030123D01*
X77482577Y-64063718D01*
X77475242Y-64098679D01*
X77469517Y-64135005D01*
X77466595Y-64159981D01*
X76786623Y-64067657D01*
X76792075Y-64025368D01*
X76798816Y-63983954D01*
X76806844Y-63943416D01*
X76816161Y-63903755D01*
X76826765Y-63864969D01*
X76838658Y-63827059D01*
X76851838Y-63790024D01*
X76866307Y-63753866D01*
X76882063Y-63718583D01*
X76899108Y-63684177D01*
X76911187Y-63661725D01*
X76930328Y-63628667D01*
X76950385Y-63596535D01*
X76971355Y-63565331D01*
X76993241Y-63535055D01*
X77016040Y-63505706D01*
X77039755Y-63477284D01*
X77064383Y-63449789D01*
X77089927Y-63423222D01*
X77116384Y-63397582D01*
X77143756Y-63372870D01*
X77162512Y-63356910D01*
X77191344Y-63333808D01*
X77220962Y-63311762D01*
X77251365Y-63290771D01*
X77282554Y-63270838D01*
X77314529Y-63251960D01*
X77347289Y-63234138D01*
X77380835Y-63217373D01*
X77415166Y-63201663D01*
X77450284Y-63187010D01*
X77486187Y-63173413D01*
X77510559Y-63164935D01*
X77547578Y-63153150D01*
X77584996Y-63142524D01*
X77622814Y-63133057D01*
X77661031Y-63124750D01*
X77699648Y-63117601D01*
X77738663Y-63111612D01*
X77778078Y-63106782D01*
X77817892Y-63103111D01*
X77858106Y-63100600D01*
X77898719Y-63099247D01*
X77926016Y-63098990D01*
X77964780Y-63099473D01*
X78003313Y-63100922D01*
X78041614Y-63103337D01*
X78079683Y-63106718D01*
X78117520Y-63111065D01*
X78155125Y-63116378D01*
X78192498Y-63122657D01*
X78229640Y-63129902D01*
X78266550Y-63138113D01*
X78303228Y-63147290D01*
X78327551Y-63153944D01*
X78363585Y-63164633D01*
X78398872Y-63176364D01*
X78433411Y-63189139D01*
X78467204Y-63202957D01*
X78500250Y-63217818D01*
X78532549Y-63233723D01*
X78564101Y-63250671D01*
X78594905Y-63268662D01*
X78624963Y-63287697D01*
X78654273Y-63307774D01*
X78673399Y-63321739D01*
X78701303Y-63343418D01*
X78728139Y-63366141D01*
X78753905Y-63389907D01*
X78778602Y-63414716D01*
X78802231Y-63440568D01*
X78824790Y-63467463D01*
X78846280Y-63495402D01*
X78866702Y-63524384D01*
X78886054Y-63554410D01*
X78904337Y-63585479D01*
X78915932Y-63606771D01*
X78932169Y-63639572D01*
X78946809Y-63673403D01*
X78959853Y-63708265D01*
X78971299Y-63744157D01*
X78981148Y-63781080D01*
X78989399Y-63819033D01*
X78996054Y-63858016D01*
X79001112Y-63898030D01*
X79004572Y-63939074D01*
X79006435Y-63981149D01*
X79006790Y-64009771D01*
X79006417Y-64039445D01*
X79004757Y-64078148D01*
X79001768Y-64115866D01*
X78997452Y-64152600D01*
X78991808Y-64188349D01*
X78984836Y-64223113D01*
X78976535Y-64256893D01*
X78966907Y-64289689D01*
X78964292Y-64297734D01*
X78953347Y-64329321D01*
X78941394Y-64360336D01*
X78928434Y-64390779D01*
X78914466Y-64420649D01*
X78899491Y-64449947D01*
X78883509Y-64478672D01*
X78866518Y-64506825D01*
X78848521Y-64534405D01*
X78829687Y-64561470D01*
X78810190Y-64588077D01*
X78790028Y-64614227D01*
X78769203Y-64639918D01*
X78747713Y-64665151D01*
X78725560Y-64689927D01*
X78702742Y-64714244D01*
X78679261Y-64738104D01*
X78655527Y-64761700D01*
X78631587Y-64785227D01*
X78607442Y-64808686D01*
X78583090Y-64832076D01*
X78558532Y-64855397D01*
X78533768Y-64878650D01*
X78508798Y-64901834D01*
X78483622Y-64924949D01*
X77791194Y-65537510D01*
X79011187Y-65537510D01*
X79011187Y-66147141D01*
X76850370Y-66147141D01*
G37*
G36*
X87280785Y-30507206D02*
G01*
X87313421Y-30508172D01*
X87346199Y-30509782D01*
X87379118Y-30512036D01*
X87412179Y-30514934D01*
X87445381Y-30518476D01*
X87478725Y-30522662D01*
X87512211Y-30527492D01*
X87545839Y-30532966D01*
X87579608Y-30539084D01*
X87602199Y-30543521D01*
X87635975Y-30550710D01*
X87669158Y-30558814D01*
X87701749Y-30567832D01*
X87733747Y-30577764D01*
X87765153Y-30588612D01*
X87795966Y-30600373D01*
X87826187Y-30613049D01*
X87855815Y-30626640D01*
X87884851Y-30641145D01*
X87913294Y-30656564D01*
X87931927Y-30667352D01*
X87959190Y-30684386D01*
X87985474Y-30702514D01*
X88010778Y-30721738D01*
X88035104Y-30742056D01*
X88058452Y-30763469D01*
X88080820Y-30785977D01*
X88102209Y-30809579D01*
X88122620Y-30834277D01*
X88142051Y-30860069D01*
X88160504Y-30886956D01*
X88172262Y-30905489D01*
X88188892Y-30934361D01*
X88203887Y-30964651D01*
X88217245Y-30996357D01*
X88228968Y-31029480D01*
X88239056Y-31064020D01*
X88247507Y-31099977D01*
X88254323Y-31137350D01*
X88259503Y-31176140D01*
X88263047Y-31216347D01*
X88264955Y-31257971D01*
X88265319Y-31286508D01*
X88264789Y-31317852D01*
X88263201Y-31348503D01*
X88260553Y-31378462D01*
X88256846Y-31407728D01*
X88249301Y-31450329D01*
X88239373Y-31491371D01*
X88227061Y-31530855D01*
X88212367Y-31568780D01*
X88195291Y-31605146D01*
X88175831Y-31639955D01*
X88153989Y-31673204D01*
X88129764Y-31704896D01*
X88103744Y-31734996D01*
X88076243Y-31763474D01*
X88047261Y-31790329D01*
X88016798Y-31815560D01*
X87984853Y-31839169D01*
X87951427Y-31861156D01*
X87916520Y-31881519D01*
X87880132Y-31900259D01*
X87842263Y-31917377D01*
X87802912Y-31932871D01*
X87775856Y-31942300D01*
X87775856Y-31951092D01*
X87807306Y-31956954D01*
X87838275Y-31963915D01*
X87868764Y-31971975D01*
X87898771Y-31981134D01*
X87928298Y-31991392D01*
X87957344Y-32002750D01*
X87985909Y-32015206D01*
X88013993Y-32028762D01*
X88041550Y-32043370D01*
X88068169Y-32058987D01*
X88093849Y-32075610D01*
X88118590Y-32093242D01*
X88142392Y-32111880D01*
X88165255Y-32131527D01*
X88187180Y-32152181D01*
X88208166Y-32173842D01*
X88228327Y-32196293D01*
X88247413Y-32219683D01*
X88265422Y-32244012D01*
X88282355Y-32269280D01*
X88298211Y-32295486D01*
X88312992Y-32322632D01*
X88326696Y-32350716D01*
X88339324Y-32379739D01*
X88350659Y-32409506D01*
X88360482Y-32440189D01*
X88368794Y-32471788D01*
X88375594Y-32504302D01*
X88380884Y-32537733D01*
X88384662Y-32572080D01*
X88386929Y-32607342D01*
X88387684Y-32643521D01*
X88387304Y-32673629D01*
X88386162Y-32703135D01*
X88383021Y-32746268D01*
X88378167Y-32788049D01*
X88371601Y-32828477D01*
X88363321Y-32867553D01*
X88353328Y-32905276D01*
X88341623Y-32941647D01*
X88328204Y-32976665D01*
X88313072Y-33010332D01*
X88296227Y-33042645D01*
X88290231Y-33053116D01*
X88271536Y-33083599D01*
X88251720Y-33112948D01*
X88230784Y-33141164D01*
X88208727Y-33168246D01*
X88185549Y-33194195D01*
X88161251Y-33219010D01*
X88135832Y-33242692D01*
X88109293Y-33265241D01*
X88081633Y-33286656D01*
X88052853Y-33306938D01*
X88033044Y-33319829D01*
X88002563Y-33338155D01*
X87971297Y-33355490D01*
X87939245Y-33371832D01*
X87906408Y-33387183D01*
X87872784Y-33401542D01*
X87838375Y-33414909D01*
X87803181Y-33427285D01*
X87767201Y-33438669D01*
X87730435Y-33449061D01*
X87692883Y-33458461D01*
X87667412Y-33464177D01*
X87628991Y-33472034D01*
X87590390Y-33479118D01*
X87551608Y-33485429D01*
X87512646Y-33490967D01*
X87473504Y-33495733D01*
X87434181Y-33499726D01*
X87394678Y-33502946D01*
X87354995Y-33505393D01*
X87315131Y-33507067D01*
X87275087Y-33507969D01*
X87248291Y-33508141D01*
X86057607Y-33508141D01*
X86057607Y-32241986D01*
X86754432Y-32241986D01*
X86754432Y-32898510D01*
X87159631Y-32898510D01*
X87191462Y-32898021D01*
X87223756Y-32896553D01*
X87256515Y-32894105D01*
X87289736Y-32890679D01*
X87323422Y-32886274D01*
X87334753Y-32884589D01*
X87368207Y-32878346D01*
X87400424Y-32870609D01*
X87431405Y-32861379D01*
X87461149Y-32850654D01*
X87489657Y-32838435D01*
X87498885Y-32834030D01*
X87525658Y-32819235D01*
X87550473Y-32802328D01*
X87573331Y-32783309D01*
X87594231Y-32762177D01*
X87613173Y-32738933D01*
X87619052Y-32730716D01*
X87634989Y-32704097D01*
X87647628Y-32674799D01*
X87656971Y-32642822D01*
X87663016Y-32608167D01*
X87665534Y-32577240D01*
X87665947Y-32557792D01*
X87664723Y-32525366D01*
X87661052Y-32494860D01*
X87652351Y-32457170D01*
X87639299Y-32422892D01*
X87621897Y-32392026D01*
X87600144Y-32364572D01*
X87574041Y-32340529D01*
X87543587Y-32319898D01*
X87526728Y-32310862D01*
X87499807Y-32298553D01*
X87471250Y-32287455D01*
X87441057Y-32277567D01*
X87409228Y-32268890D01*
X87375764Y-32261424D01*
X87340664Y-32255169D01*
X87303928Y-32250124D01*
X87265556Y-32246290D01*
X87225549Y-32243667D01*
X87183906Y-32242255D01*
X87155235Y-32241986D01*
X86754432Y-32241986D01*
X86057607Y-32241986D01*
X86057607Y-31116515D01*
X86754432Y-31116515D01*
X86754432Y-31726145D01*
X87142778Y-31726145D01*
X87180030Y-31725430D01*
X87215671Y-31723285D01*
X87249702Y-31719711D01*
X87282123Y-31714707D01*
X87312934Y-31708274D01*
X87342135Y-31700410D01*
X87378565Y-31687702D01*
X87412133Y-31672452D01*
X87442839Y-31654661D01*
X87457119Y-31644812D01*
X87483394Y-31623265D01*
X87506166Y-31599291D01*
X87525434Y-31572890D01*
X87541200Y-31544062D01*
X87553461Y-31512806D01*
X87562220Y-31479124D01*
X87567475Y-31443014D01*
X87569226Y-31404477D01*
X87567406Y-31368195D01*
X87561945Y-31334455D01*
X87552843Y-31303257D01*
X87540101Y-31274601D01*
X87523717Y-31248486D01*
X87503693Y-31224913D01*
X87480028Y-31203881D01*
X87452723Y-31185391D01*
X87422028Y-31169248D01*
X87387830Y-31155258D01*
X87359883Y-31146177D01*
X87329965Y-31138307D01*
X87298076Y-31131649D01*
X87264217Y-31126200D01*
X87228387Y-31121963D01*
X87190586Y-31118936D01*
X87150815Y-31117120D01*
X87109073Y-31116515D01*
X86754432Y-31116515D01*
X86057607Y-31116515D01*
X86057607Y-30506884D01*
X87248291Y-30506884D01*
X87280785Y-30507206D01*
G37*
G36*
X91383079Y-32384135D02*
G01*
X91382724Y-32418015D01*
X91381659Y-32451512D01*
X91379884Y-32484625D01*
X91377400Y-32517354D01*
X91374206Y-32549700D01*
X91370302Y-32581663D01*
X91365688Y-32613241D01*
X91360364Y-32644437D01*
X91354330Y-32675249D01*
X91347587Y-32705677D01*
X91340134Y-32735722D01*
X91331971Y-32765383D01*
X91323098Y-32794660D01*
X91313515Y-32823555D01*
X91303223Y-32852065D01*
X91292220Y-32880192D01*
X91280560Y-32907878D01*
X91268292Y-32935067D01*
X91255418Y-32961757D01*
X91241937Y-32987949D01*
X91220577Y-33026304D01*
X91197853Y-33063537D01*
X91173763Y-33099651D01*
X91148308Y-33134644D01*
X91121487Y-33168516D01*
X91093302Y-33201267D01*
X91063751Y-33232899D01*
X91032834Y-33263409D01*
X91000617Y-33292741D01*
X90967163Y-33320837D01*
X90932473Y-33347696D01*
X90908660Y-33364915D01*
X90884296Y-33381585D01*
X90859384Y-33397705D01*
X90833921Y-33413275D01*
X90807910Y-33428296D01*
X90781348Y-33442767D01*
X90754237Y-33456689D01*
X90726577Y-33470062D01*
X90698367Y-33482884D01*
X90669607Y-33495157D01*
X90640298Y-33506881D01*
X90625437Y-33512537D01*
X90595461Y-33523362D01*
X90565067Y-33533488D01*
X90534255Y-33542916D01*
X90503026Y-33551646D01*
X90471378Y-33559678D01*
X90439313Y-33567011D01*
X90406829Y-33573645D01*
X90373928Y-33579582D01*
X90340609Y-33584819D01*
X90306872Y-33589359D01*
X90272717Y-33593200D01*
X90238144Y-33596343D01*
X90203154Y-33598787D01*
X90167745Y-33600533D01*
X90131919Y-33601581D01*
X90095674Y-33601930D01*
X90058992Y-33601581D01*
X90022768Y-33600533D01*
X89987002Y-33598787D01*
X89951693Y-33596343D01*
X89916843Y-33593200D01*
X89882450Y-33589359D01*
X89848516Y-33584819D01*
X89815039Y-33579582D01*
X89782021Y-33573645D01*
X89749460Y-33567011D01*
X89717358Y-33559678D01*
X89685713Y-33551646D01*
X89654526Y-33542916D01*
X89623797Y-33533488D01*
X89593526Y-33523362D01*
X89563714Y-33512537D01*
X89534499Y-33501088D01*
X89505839Y-33489090D01*
X89477735Y-33476542D01*
X89450186Y-33463444D01*
X89423193Y-33449797D01*
X89396754Y-33435600D01*
X89370871Y-33420854D01*
X89345544Y-33405559D01*
X89320771Y-33389713D01*
X89284653Y-33364915D01*
X89249785Y-33338880D01*
X89216166Y-33311609D01*
X89183797Y-33283101D01*
X89162911Y-33263409D01*
X89132800Y-33232899D01*
X89104015Y-33201267D01*
X89076557Y-33168516D01*
X89050426Y-33134644D01*
X89025621Y-33099651D01*
X89002143Y-33063537D01*
X88979992Y-33026304D01*
X88959167Y-32987949D01*
X88939669Y-32948474D01*
X88927407Y-32921535D01*
X88915735Y-32894098D01*
X88910120Y-32880192D01*
X88899384Y-32852065D01*
X88889340Y-32823555D01*
X88879989Y-32794660D01*
X88871331Y-32765383D01*
X88863365Y-32735722D01*
X88856092Y-32705677D01*
X88849512Y-32675249D01*
X88843625Y-32644437D01*
X88838430Y-32613241D01*
X88833927Y-32581663D01*
X88830118Y-32549700D01*
X88827001Y-32517354D01*
X88824577Y-32484625D01*
X88822845Y-32451512D01*
X88821806Y-32418015D01*
X88821460Y-32384135D01*
X88821460Y-30506884D01*
X89538801Y-30506884D01*
X89538801Y-32359222D01*
X89539293Y-32390352D01*
X89540770Y-32421092D01*
X89543232Y-32451443D01*
X89546678Y-32481405D01*
X89551108Y-32510977D01*
X89556524Y-32540160D01*
X89562924Y-32568954D01*
X89570308Y-32597359D01*
X89580977Y-32632049D01*
X89593292Y-32665594D01*
X89607252Y-32697995D01*
X89622858Y-32729250D01*
X89640111Y-32759361D01*
X89659008Y-32788326D01*
X89667028Y-32799592D01*
X89688656Y-32826404D01*
X89712323Y-32851427D01*
X89738029Y-32874661D01*
X89765775Y-32896106D01*
X89795560Y-32915762D01*
X89827384Y-32933630D01*
X89840685Y-32940276D01*
X89868300Y-32952469D01*
X89897288Y-32963036D01*
X89927651Y-32971978D01*
X89959387Y-32979294D01*
X89992497Y-32984984D01*
X90026981Y-32989048D01*
X90062839Y-32991487D01*
X90100071Y-32992300D01*
X90137474Y-32991487D01*
X90173481Y-32989048D01*
X90208091Y-32984984D01*
X90241304Y-32979294D01*
X90273121Y-32971978D01*
X90303540Y-32963036D01*
X90332563Y-32952469D01*
X90360189Y-32940276D01*
X90386488Y-32926698D01*
X90417589Y-32908115D01*
X90446723Y-32887743D01*
X90473889Y-32865582D01*
X90499087Y-32841632D01*
X90522318Y-32815894D01*
X90535312Y-32799592D01*
X90555447Y-32771084D01*
X90573723Y-32741432D01*
X90590137Y-32710634D01*
X90604692Y-32678692D01*
X90617386Y-32645605D01*
X90628219Y-32611372D01*
X90632032Y-32597359D01*
X90640686Y-32561792D01*
X90646554Y-32532901D01*
X90651483Y-32503620D01*
X90655473Y-32473951D01*
X90658524Y-32443892D01*
X90660636Y-32413443D01*
X90661810Y-32382606D01*
X90662074Y-32359222D01*
X90662074Y-30506884D01*
X91383079Y-30506884D01*
X91383079Y-32384135D01*
G37*
G36*
X93527775Y-31327540D02*
G01*
X93503618Y-31298632D01*
X93477675Y-31271258D01*
X93449945Y-31245418D01*
X93420430Y-31221112D01*
X93389129Y-31198340D01*
X93364481Y-31182268D01*
X93338828Y-31167058D01*
X93312171Y-31152712D01*
X93284509Y-31139229D01*
X93256572Y-31126789D01*
X93228816Y-31115573D01*
X93201240Y-31105580D01*
X93164752Y-31094160D01*
X93128585Y-31084915D01*
X93092739Y-31077845D01*
X93057213Y-31072951D01*
X93022008Y-31070232D01*
X92995814Y-31069620D01*
X92964293Y-31070216D01*
X92932562Y-31072004D01*
X92900620Y-31074984D01*
X92868468Y-31079157D01*
X92850001Y-31082076D01*
X92818610Y-31088648D01*
X92788552Y-31097464D01*
X92759826Y-31108523D01*
X92732432Y-31121827D01*
X92717377Y-31130436D01*
X92692323Y-31147161D01*
X92669092Y-31165919D01*
X92647684Y-31186711D01*
X92628099Y-31209537D01*
X92617726Y-31223493D01*
X92602309Y-31249684D01*
X92590678Y-31278891D01*
X92582834Y-31311113D01*
X92579125Y-31341132D01*
X92578159Y-31367840D01*
X92579666Y-31399667D01*
X92584189Y-31429109D01*
X92593051Y-31459838D01*
X92605851Y-31487453D01*
X92609666Y-31493870D01*
X92627252Y-31518370D01*
X92648501Y-31541314D01*
X92673413Y-31562700D01*
X92698217Y-31580136D01*
X92701990Y-31582530D01*
X92730005Y-31598598D01*
X92760193Y-31614106D01*
X92787799Y-31626952D01*
X92817003Y-31639385D01*
X92847803Y-31651406D01*
X92880398Y-31663299D01*
X92908662Y-31673327D01*
X92937928Y-31683463D01*
X92968196Y-31693706D01*
X92999466Y-31704057D01*
X93031738Y-31714515D01*
X93038312Y-31716619D01*
X93066861Y-31726065D01*
X93095628Y-31735716D01*
X93124615Y-31745573D01*
X93153820Y-31755637D01*
X93183244Y-31765907D01*
X93212888Y-31776382D01*
X93242750Y-31787064D01*
X93272831Y-31797952D01*
X93303131Y-31809046D01*
X93333651Y-31820346D01*
X93354118Y-31827994D01*
X93384766Y-31839751D01*
X93414886Y-31852217D01*
X93444478Y-31865391D01*
X93473542Y-31879274D01*
X93502077Y-31893864D01*
X93530085Y-31909164D01*
X93557564Y-31925171D01*
X93584516Y-31941887D01*
X93610939Y-31959312D01*
X93636834Y-31977445D01*
X93653804Y-31989927D01*
X93678809Y-32009180D01*
X93702989Y-32029297D01*
X93726344Y-32050276D01*
X93748876Y-32072118D01*
X93770583Y-32094824D01*
X93791466Y-32118392D01*
X93811524Y-32142823D01*
X93830758Y-32168117D01*
X93849168Y-32194275D01*
X93866754Y-32221295D01*
X93878019Y-32239787D01*
X93893864Y-32268321D01*
X93908150Y-32298142D01*
X93920877Y-32329252D01*
X93932046Y-32361649D01*
X93941657Y-32395335D01*
X93949709Y-32430308D01*
X93956203Y-32466570D01*
X93961138Y-32504119D01*
X93964515Y-32542957D01*
X93966333Y-32583082D01*
X93966679Y-32610548D01*
X93966307Y-32642333D01*
X93965191Y-32673574D01*
X93963331Y-32704271D01*
X93960726Y-32734425D01*
X93957377Y-32764035D01*
X93953284Y-32793100D01*
X93945749Y-32835680D01*
X93936540Y-32877035D01*
X93925657Y-32917167D01*
X93913099Y-32956075D01*
X93898866Y-32993760D01*
X93882959Y-33030221D01*
X93871425Y-33053849D01*
X93853122Y-33088316D01*
X93833661Y-33121649D01*
X93813040Y-33153849D01*
X93791260Y-33184916D01*
X93768320Y-33214849D01*
X93744222Y-33243648D01*
X93718964Y-33271315D01*
X93692547Y-33297847D01*
X93664971Y-33323247D01*
X93636236Y-33347513D01*
X93616435Y-33363060D01*
X93585935Y-33385313D01*
X93554611Y-33406457D01*
X93522463Y-33426494D01*
X93489490Y-33445424D01*
X93455693Y-33463245D01*
X93421071Y-33479959D01*
X93385626Y-33495565D01*
X93349356Y-33510064D01*
X93312261Y-33523455D01*
X93274342Y-33535738D01*
X93248605Y-33543311D01*
X93209753Y-33553787D01*
X93170681Y-33563233D01*
X93131391Y-33571647D01*
X93091882Y-33579032D01*
X93052153Y-33585386D01*
X93012206Y-33590710D01*
X92972040Y-33595003D01*
X92931655Y-33598266D01*
X92891050Y-33600499D01*
X92850227Y-33601701D01*
X92822890Y-33601930D01*
X92782856Y-33601483D01*
X92742988Y-33600144D01*
X92703286Y-33597911D01*
X92663751Y-33594786D01*
X92624381Y-33590767D01*
X92585177Y-33585856D01*
X92546139Y-33580051D01*
X92507267Y-33573353D01*
X92468561Y-33565763D01*
X92430022Y-33557279D01*
X92391648Y-33547902D01*
X92353440Y-33537633D01*
X92315398Y-33526470D01*
X92277523Y-33514414D01*
X92239813Y-33501466D01*
X92202269Y-33487624D01*
X92165203Y-33472866D01*
X92128927Y-33457353D01*
X92093442Y-33441084D01*
X92058746Y-33424060D01*
X92024840Y-33406280D01*
X91991724Y-33387744D01*
X91959398Y-33368453D01*
X91927862Y-33348406D01*
X91897116Y-33327603D01*
X91867160Y-33306045D01*
X91837994Y-33283731D01*
X91809618Y-33260661D01*
X91782032Y-33236836D01*
X91755236Y-33212256D01*
X91729230Y-33186919D01*
X91704014Y-33160827D01*
X92177356Y-32675761D01*
X92198445Y-32700654D01*
X92220770Y-32724774D01*
X92244332Y-32748121D01*
X92269131Y-32770695D01*
X92295165Y-32792497D01*
X92322437Y-32813525D01*
X92350944Y-32833781D01*
X92380688Y-32853264D01*
X92411669Y-32871975D01*
X92443886Y-32889912D01*
X92466051Y-32901441D01*
X92499692Y-32917679D01*
X92533293Y-32932319D01*
X92566857Y-32945362D01*
X92600381Y-32956808D01*
X92633867Y-32966657D01*
X92667314Y-32974909D01*
X92700723Y-32981563D01*
X92734093Y-32986621D01*
X92767424Y-32990081D01*
X92800716Y-32991945D01*
X92822890Y-32992300D01*
X92852712Y-32991707D01*
X92882275Y-32989930D01*
X92911582Y-32986967D01*
X92940630Y-32982820D01*
X92974195Y-32976484D01*
X92978961Y-32975447D01*
X93011354Y-32967092D01*
X93041853Y-32956774D01*
X93070459Y-32944492D01*
X93097171Y-32930247D01*
X93111585Y-32921225D01*
X93135468Y-32903363D01*
X93157106Y-32883117D01*
X93176500Y-32860487D01*
X93193651Y-32835473D01*
X93202443Y-32820108D01*
X93215577Y-32791347D01*
X93225484Y-32760202D01*
X93232166Y-32726673D01*
X93235326Y-32696035D01*
X93236149Y-32669166D01*
X93234655Y-32638469D01*
X93229135Y-32604935D01*
X93219548Y-32573854D01*
X93205894Y-32545229D01*
X93193651Y-32526284D01*
X93173625Y-32501130D01*
X93150093Y-32476957D01*
X93127133Y-32457019D01*
X93101596Y-32437802D01*
X93073483Y-32419306D01*
X93042992Y-32401480D01*
X93015497Y-32387097D01*
X92986105Y-32373144D01*
X92954818Y-32359620D01*
X92921634Y-32346525D01*
X92893721Y-32336359D01*
X92879310Y-32331378D01*
X92849864Y-32321212D01*
X92819410Y-32310862D01*
X92787948Y-32300329D01*
X92755479Y-32289613D01*
X92722003Y-32278714D01*
X92687519Y-32267631D01*
X92652027Y-32256365D01*
X92615528Y-32244916D01*
X92579888Y-32233113D01*
X92544407Y-32220782D01*
X92509088Y-32207925D01*
X92473928Y-32194541D01*
X92438929Y-32180631D01*
X92404090Y-32166194D01*
X92369411Y-32151230D01*
X92334893Y-32135740D01*
X92301096Y-32119425D01*
X92268215Y-32101989D01*
X92236249Y-32083430D01*
X92205200Y-32063749D01*
X92175066Y-32042947D01*
X92145849Y-32021022D01*
X92117547Y-31997976D01*
X92090162Y-31973807D01*
X92064058Y-31948425D01*
X92039237Y-31921737D01*
X92015698Y-31893745D01*
X91993441Y-31864447D01*
X91972467Y-31833844D01*
X91952775Y-31801936D01*
X91934365Y-31768723D01*
X91917238Y-31734205D01*
X91905583Y-31707292D01*
X91895075Y-31679310D01*
X91885714Y-31650259D01*
X91877499Y-31620139D01*
X91870430Y-31588951D01*
X91864507Y-31556693D01*
X91859731Y-31523366D01*
X91856101Y-31488970D01*
X91853617Y-31453505D01*
X91852280Y-31416970D01*
X91852025Y-31392020D01*
X91852420Y-31361343D01*
X91853605Y-31331227D01*
X91855580Y-31301672D01*
X91860023Y-31258391D01*
X91866244Y-31216372D01*
X91874243Y-31175615D01*
X91884019Y-31136121D01*
X91895572Y-31097889D01*
X91908903Y-31060919D01*
X91924011Y-31025211D01*
X91940897Y-30990766D01*
X91953141Y-30968503D01*
X91972785Y-30935947D01*
X91993524Y-30904498D01*
X92015358Y-30874157D01*
X92038287Y-30844924D01*
X92062310Y-30816799D01*
X92087428Y-30789781D01*
X92113641Y-30763870D01*
X92140949Y-30739068D01*
X92169351Y-30715373D01*
X92198849Y-30692786D01*
X92219122Y-30678343D01*
X92250401Y-30657589D01*
X92282414Y-30637917D01*
X92315161Y-30619327D01*
X92348643Y-30601819D01*
X92382859Y-30585392D01*
X92417809Y-30570048D01*
X92453493Y-30555785D01*
X92489911Y-30542605D01*
X92527063Y-30530506D01*
X92564950Y-30519490D01*
X92590615Y-30512746D01*
X92629397Y-30503318D01*
X92668256Y-30494817D01*
X92707192Y-30487244D01*
X92746205Y-30480598D01*
X92785296Y-30474879D01*
X92824464Y-30470088D01*
X92863710Y-30466224D01*
X92903032Y-30463287D01*
X92942432Y-30461278D01*
X92981909Y-30460196D01*
X93008270Y-30459990D01*
X93040001Y-30460362D01*
X93071812Y-30461478D01*
X93103703Y-30463339D01*
X93135674Y-30465943D01*
X93167725Y-30469292D01*
X93199856Y-30473385D01*
X93232067Y-30478222D01*
X93264359Y-30483803D01*
X93296731Y-30490129D01*
X93329183Y-30497199D01*
X93361715Y-30505013D01*
X93394327Y-30513571D01*
X93427019Y-30522873D01*
X93459791Y-30532919D01*
X93492644Y-30543710D01*
X93525577Y-30555244D01*
X93558295Y-30567503D01*
X93590503Y-30580466D01*
X93622202Y-30594133D01*
X93653392Y-30608505D01*
X93684072Y-30623580D01*
X93714243Y-30639359D01*
X93743904Y-30655843D01*
X93773056Y-30673031D01*
X93801698Y-30690922D01*
X93829831Y-30709518D01*
X93857454Y-30728818D01*
X93884568Y-30748822D01*
X93911172Y-30769530D01*
X93937267Y-30790943D01*
X93962853Y-30813059D01*
X93987928Y-30835880D01*
X93527775Y-31327540D01*
G37*
G36*
X96010259Y-31327540D02*
G01*
X95986102Y-31298632D01*
X95960159Y-31271258D01*
X95932430Y-31245418D01*
X95902915Y-31221112D01*
X95871613Y-31198340D01*
X95846965Y-31182268D01*
X95821313Y-31167058D01*
X95794655Y-31152712D01*
X95766993Y-31139229D01*
X95739057Y-31126789D01*
X95711300Y-31115573D01*
X95683724Y-31105580D01*
X95647237Y-31094160D01*
X95611070Y-31084915D01*
X95575223Y-31077845D01*
X95539697Y-31072951D01*
X95504492Y-31070232D01*
X95478298Y-31069620D01*
X95446777Y-31070216D01*
X95415046Y-31072004D01*
X95383104Y-31074984D01*
X95350952Y-31079157D01*
X95332485Y-31082076D01*
X95301095Y-31088648D01*
X95271036Y-31097464D01*
X95242310Y-31108523D01*
X95214917Y-31121827D01*
X95199862Y-31130436D01*
X95174807Y-31147161D01*
X95151576Y-31165919D01*
X95130168Y-31186711D01*
X95110583Y-31209537D01*
X95100210Y-31223493D01*
X95084793Y-31249684D01*
X95073162Y-31278891D01*
X95065319Y-31311113D01*
X95061609Y-31341132D01*
X95060643Y-31367840D01*
X95062151Y-31399667D01*
X95066674Y-31429109D01*
X95075535Y-31459838D01*
X95088335Y-31487453D01*
X95092150Y-31493870D01*
X95109736Y-31518370D01*
X95130985Y-31541314D01*
X95155898Y-31562700D01*
X95180702Y-31580136D01*
X95184474Y-31582530D01*
X95212489Y-31598598D01*
X95242677Y-31614106D01*
X95270284Y-31626952D01*
X95299487Y-31639385D01*
X95330287Y-31651406D01*
X95362882Y-31663299D01*
X95391147Y-31673327D01*
X95420413Y-31683463D01*
X95450681Y-31693706D01*
X95481951Y-31704057D01*
X95514222Y-31714515D01*
X95520797Y-31716619D01*
X95549345Y-31726065D01*
X95578113Y-31735716D01*
X95607099Y-31745573D01*
X95636304Y-31755637D01*
X95665729Y-31765907D01*
X95695372Y-31776382D01*
X95725234Y-31787064D01*
X95755316Y-31797952D01*
X95785616Y-31809046D01*
X95816135Y-31820346D01*
X95836603Y-31827994D01*
X95867251Y-31839751D01*
X95897370Y-31852217D01*
X95926962Y-31865391D01*
X95956026Y-31879274D01*
X95984562Y-31893864D01*
X96012569Y-31909164D01*
X96040049Y-31925171D01*
X96067000Y-31941887D01*
X96093423Y-31959312D01*
X96119318Y-31977445D01*
X96136289Y-31989927D01*
X96161293Y-32009180D01*
X96185473Y-32029297D01*
X96208829Y-32050276D01*
X96231360Y-32072118D01*
X96253067Y-32094824D01*
X96273950Y-32118392D01*
X96294008Y-32142823D01*
X96313243Y-32168117D01*
X96331652Y-32194275D01*
X96349238Y-32221295D01*
X96360504Y-32239787D01*
X96376348Y-32268321D01*
X96390634Y-32298142D01*
X96403362Y-32329252D01*
X96414531Y-32361649D01*
X96424141Y-32395335D01*
X96432194Y-32430308D01*
X96438687Y-32466570D01*
X96443622Y-32504119D01*
X96446999Y-32542957D01*
X96448817Y-32583082D01*
X96449164Y-32610548D01*
X96448792Y-32642333D01*
X96447675Y-32673574D01*
X96445815Y-32704271D01*
X96443210Y-32734425D01*
X96439861Y-32764035D01*
X96435768Y-32793100D01*
X96428234Y-32835680D01*
X96419024Y-32877035D01*
X96408141Y-32917167D01*
X96395583Y-32956075D01*
X96381350Y-32993760D01*
X96365444Y-33030221D01*
X96353909Y-33053849D01*
X96335606Y-33088316D01*
X96316145Y-33121649D01*
X96295524Y-33153849D01*
X96273744Y-33184916D01*
X96250805Y-33214849D01*
X96226706Y-33243648D01*
X96201448Y-33271315D01*
X96175032Y-33297847D01*
X96147456Y-33323247D01*
X96118720Y-33347513D01*
X96098919Y-33363060D01*
X96068420Y-33385313D01*
X96037095Y-33406457D01*
X96004947Y-33426494D01*
X95971974Y-33445424D01*
X95938177Y-33463245D01*
X95903556Y-33479959D01*
X95868110Y-33495565D01*
X95831840Y-33510064D01*
X95794745Y-33523455D01*
X95756827Y-33535738D01*
X95731090Y-33543311D01*
X95692237Y-33553787D01*
X95653166Y-33563233D01*
X95613875Y-33571647D01*
X95574366Y-33579032D01*
X95534638Y-33585386D01*
X95494690Y-33590710D01*
X95454524Y-33595003D01*
X95414139Y-33598266D01*
X95373535Y-33600499D01*
X95332711Y-33601701D01*
X95305374Y-33601930D01*
X95265341Y-33601483D01*
X95225473Y-33600144D01*
X95185771Y-33597911D01*
X95146235Y-33594786D01*
X95106865Y-33590767D01*
X95067661Y-33585856D01*
X95028623Y-33580051D01*
X94989752Y-33573353D01*
X94951046Y-33565763D01*
X94912506Y-33557279D01*
X94874132Y-33547902D01*
X94835924Y-33537633D01*
X94797883Y-33526470D01*
X94760007Y-33514414D01*
X94722297Y-33501466D01*
X94684753Y-33487624D01*
X94647688Y-33472866D01*
X94611412Y-33457353D01*
X94575926Y-33441084D01*
X94541230Y-33424060D01*
X94507324Y-33406280D01*
X94474208Y-33387744D01*
X94441882Y-33368453D01*
X94410346Y-33348406D01*
X94379601Y-33327603D01*
X94349645Y-33306045D01*
X94320478Y-33283731D01*
X94292102Y-33260661D01*
X94264516Y-33236836D01*
X94237720Y-33212256D01*
X94211714Y-33186919D01*
X94186498Y-33160827D01*
X94659841Y-32675761D01*
X94680929Y-32700654D01*
X94703255Y-32724774D01*
X94726817Y-32748121D01*
X94751615Y-32770695D01*
X94777650Y-32792497D01*
X94804921Y-32813525D01*
X94833429Y-32833781D01*
X94863173Y-32853264D01*
X94894153Y-32871975D01*
X94926371Y-32889912D01*
X94948536Y-32901441D01*
X94982176Y-32917679D01*
X95015778Y-32932319D01*
X95049341Y-32945362D01*
X95082865Y-32956808D01*
X95116351Y-32966657D01*
X95149798Y-32974909D01*
X95183207Y-32981563D01*
X95216577Y-32986621D01*
X95249908Y-32990081D01*
X95283201Y-32991945D01*
X95305374Y-32992300D01*
X95335196Y-32991707D01*
X95364760Y-32989930D01*
X95394066Y-32986967D01*
X95423115Y-32982820D01*
X95456679Y-32976484D01*
X95461446Y-32975447D01*
X95493838Y-32967092D01*
X95524337Y-32956774D01*
X95552943Y-32944492D01*
X95579655Y-32930247D01*
X95594069Y-32921225D01*
X95617952Y-32903363D01*
X95639590Y-32883117D01*
X95658985Y-32860487D01*
X95676135Y-32835473D01*
X95684928Y-32820108D01*
X95698061Y-32791347D01*
X95707969Y-32760202D01*
X95714651Y-32726673D01*
X95717810Y-32696035D01*
X95718633Y-32669166D01*
X95717139Y-32638469D01*
X95711619Y-32604935D01*
X95702032Y-32573854D01*
X95688378Y-32545229D01*
X95676135Y-32526284D01*
X95656110Y-32501130D01*
X95632578Y-32476957D01*
X95609617Y-32457019D01*
X95584080Y-32437802D01*
X95555968Y-32419306D01*
X95525476Y-32401480D01*
X95497981Y-32387097D01*
X95468590Y-32373144D01*
X95437302Y-32359620D01*
X95404118Y-32346525D01*
X95376206Y-32336359D01*
X95361795Y-32331378D01*
X95332348Y-32321212D01*
X95301894Y-32310862D01*
X95270432Y-32300329D01*
X95237963Y-32289613D01*
X95204487Y-32278714D01*
X95170003Y-32267631D01*
X95134511Y-32256365D01*
X95098012Y-32244916D01*
X95062372Y-32233113D01*
X95026892Y-32220782D01*
X94991572Y-32207925D01*
X94956412Y-32194541D01*
X94921413Y-32180631D01*
X94886574Y-32166194D01*
X94851896Y-32151230D01*
X94817377Y-32135740D01*
X94783580Y-32119425D01*
X94750699Y-32101989D01*
X94718734Y-32083430D01*
X94687684Y-32063749D01*
X94657551Y-32042947D01*
X94628333Y-32021022D01*
X94600032Y-31997976D01*
X94572646Y-31973807D01*
X94546542Y-31948425D01*
X94521721Y-31921737D01*
X94498182Y-31893745D01*
X94475926Y-31864447D01*
X94454951Y-31833844D01*
X94435259Y-31801936D01*
X94416849Y-31768723D01*
X94399722Y-31734205D01*
X94388068Y-31707292D01*
X94377560Y-31679310D01*
X94368198Y-31650259D01*
X94359983Y-31620139D01*
X94352914Y-31588951D01*
X94346991Y-31556693D01*
X94342215Y-31523366D01*
X94338585Y-31488970D01*
X94336101Y-31453505D01*
X94334764Y-31416970D01*
X94334509Y-31392020D01*
X94334904Y-31361343D01*
X94336089Y-31331227D01*
X94338064Y-31301672D01*
X94342508Y-31258391D01*
X94348729Y-31216372D01*
X94356727Y-31175615D01*
X94366503Y-31136121D01*
X94378056Y-31097889D01*
X94391387Y-31060919D01*
X94406495Y-31025211D01*
X94423381Y-30990766D01*
X94435626Y-30968503D01*
X94455270Y-30935947D01*
X94476009Y-30904498D01*
X94497842Y-30874157D01*
X94520771Y-30844924D01*
X94544794Y-30816799D01*
X94569912Y-30789781D01*
X94596125Y-30763870D01*
X94623433Y-30739068D01*
X94651836Y-30715373D01*
X94681333Y-30692786D01*
X94701606Y-30678343D01*
X94732885Y-30657589D01*
X94764898Y-30637917D01*
X94797646Y-30619327D01*
X94831127Y-30601819D01*
X94865343Y-30585392D01*
X94900293Y-30570048D01*
X94935977Y-30555785D01*
X94972395Y-30542605D01*
X95009547Y-30530506D01*
X95047434Y-30519490D01*
X95073099Y-30512746D01*
X95111881Y-30503318D01*
X95150740Y-30494817D01*
X95189676Y-30487244D01*
X95228690Y-30480598D01*
X95267781Y-30474879D01*
X95306949Y-30470088D01*
X95346194Y-30466224D01*
X95385517Y-30463287D01*
X95424916Y-30461278D01*
X95464394Y-30460196D01*
X95490755Y-30459990D01*
X95522485Y-30460362D01*
X95554296Y-30461478D01*
X95586187Y-30463339D01*
X95618158Y-30465943D01*
X95650209Y-30469292D01*
X95682340Y-30473385D01*
X95714552Y-30478222D01*
X95746843Y-30483803D01*
X95779215Y-30490129D01*
X95811667Y-30497199D01*
X95844199Y-30505013D01*
X95876811Y-30513571D01*
X95909503Y-30522873D01*
X95942276Y-30532919D01*
X95975128Y-30543710D01*
X96008061Y-30555244D01*
X96040779Y-30567503D01*
X96072988Y-30580466D01*
X96104687Y-30594133D01*
X96135876Y-30608505D01*
X96166557Y-30623580D01*
X96196727Y-30639359D01*
X96226388Y-30655843D01*
X96255540Y-30673031D01*
X96284182Y-30690922D01*
X96312315Y-30709518D01*
X96339938Y-30728818D01*
X96367052Y-30748822D01*
X96393657Y-30769530D01*
X96419751Y-30790943D01*
X96445337Y-30813059D01*
X96470413Y-30835880D01*
X96010259Y-31327540D01*
G37*
G36*
X98136892Y-30507206D02*
G01*
X98169527Y-30508172D01*
X98202305Y-30509782D01*
X98235224Y-30512036D01*
X98268285Y-30514934D01*
X98301487Y-30518476D01*
X98334831Y-30522662D01*
X98368317Y-30527492D01*
X98401945Y-30532966D01*
X98435714Y-30539084D01*
X98458305Y-30543521D01*
X98492081Y-30550710D01*
X98525264Y-30558814D01*
X98557855Y-30567832D01*
X98589853Y-30577764D01*
X98621259Y-30588612D01*
X98652072Y-30600373D01*
X98682293Y-30613049D01*
X98711921Y-30626640D01*
X98740957Y-30641145D01*
X98769400Y-30656564D01*
X98788033Y-30667352D01*
X98815296Y-30684386D01*
X98841580Y-30702514D01*
X98866884Y-30721738D01*
X98891211Y-30742056D01*
X98914558Y-30763469D01*
X98936926Y-30785977D01*
X98958315Y-30809579D01*
X98978726Y-30834277D01*
X98998157Y-30860069D01*
X99016610Y-30886956D01*
X99028368Y-30905489D01*
X99044998Y-30934361D01*
X99059993Y-30964651D01*
X99073352Y-30996357D01*
X99085074Y-31029480D01*
X99095162Y-31064020D01*
X99103613Y-31099977D01*
X99110429Y-31137350D01*
X99115609Y-31176140D01*
X99119153Y-31216347D01*
X99121061Y-31257971D01*
X99121425Y-31286508D01*
X99120895Y-31317852D01*
X99119307Y-31348503D01*
X99116659Y-31378462D01*
X99112952Y-31407728D01*
X99105407Y-31450329D01*
X99095479Y-31491371D01*
X99083167Y-31530855D01*
X99068474Y-31568780D01*
X99051397Y-31605146D01*
X99031937Y-31639955D01*
X99010095Y-31673204D01*
X98985870Y-31704896D01*
X98959850Y-31734996D01*
X98932349Y-31763474D01*
X98903367Y-31790329D01*
X98872904Y-31815560D01*
X98840959Y-31839169D01*
X98807533Y-31861156D01*
X98772627Y-31881519D01*
X98736238Y-31900259D01*
X98698369Y-31917377D01*
X98659019Y-31932871D01*
X98631962Y-31942300D01*
X98631962Y-31951092D01*
X98663412Y-31956954D01*
X98694381Y-31963915D01*
X98724870Y-31971975D01*
X98754877Y-31981134D01*
X98784404Y-31991392D01*
X98813450Y-32002750D01*
X98842015Y-32015206D01*
X98870099Y-32028762D01*
X98897656Y-32043370D01*
X98924275Y-32058987D01*
X98949955Y-32075610D01*
X98974696Y-32093242D01*
X98998498Y-32111880D01*
X99021361Y-32131527D01*
X99043286Y-32152181D01*
X99064272Y-32173842D01*
X99084433Y-32196293D01*
X99103519Y-32219683D01*
X99121528Y-32244012D01*
X99138461Y-32269280D01*
X99154317Y-32295486D01*
X99169098Y-32322632D01*
X99182802Y-32350716D01*
X99195430Y-32379739D01*
X99206765Y-32409506D01*
X99216588Y-32440189D01*
X99224900Y-32471788D01*
X99231700Y-32504302D01*
X99236990Y-32537733D01*
X99240768Y-32572080D01*
X99243035Y-32607342D01*
X99243790Y-32643521D01*
X99243410Y-32673629D01*
X99242268Y-32703135D01*
X99239127Y-32746268D01*
X99234273Y-32788049D01*
X99227707Y-32828477D01*
X99219427Y-32867553D01*
X99209434Y-32905276D01*
X99197729Y-32941647D01*
X99184310Y-32976665D01*
X99169178Y-33010332D01*
X99152333Y-33042645D01*
X99146337Y-33053116D01*
X99127642Y-33083599D01*
X99107826Y-33112948D01*
X99086890Y-33141164D01*
X99064833Y-33168246D01*
X99041655Y-33194195D01*
X99017357Y-33219010D01*
X98991938Y-33242692D01*
X98965399Y-33265241D01*
X98937739Y-33286656D01*
X98908959Y-33306938D01*
X98889150Y-33319829D01*
X98858669Y-33338155D01*
X98827403Y-33355490D01*
X98795351Y-33371832D01*
X98762514Y-33387183D01*
X98728890Y-33401542D01*
X98694481Y-33414909D01*
X98659287Y-33427285D01*
X98623307Y-33438669D01*
X98586541Y-33449061D01*
X98548989Y-33458461D01*
X98523518Y-33464177D01*
X98485097Y-33472034D01*
X98446496Y-33479118D01*
X98407714Y-33485429D01*
X98368752Y-33490967D01*
X98329610Y-33495733D01*
X98290287Y-33499726D01*
X98250784Y-33502946D01*
X98211101Y-33505393D01*
X98171237Y-33507067D01*
X98131194Y-33507969D01*
X98104397Y-33508141D01*
X96913714Y-33508141D01*
X96913714Y-32241986D01*
X97610538Y-32241986D01*
X97610538Y-32898510D01*
X98015737Y-32898510D01*
X98047568Y-32898021D01*
X98079862Y-32896553D01*
X98112621Y-32894105D01*
X98145842Y-32890679D01*
X98179528Y-32886274D01*
X98190859Y-32884589D01*
X98224313Y-32878346D01*
X98256530Y-32870609D01*
X98287511Y-32861379D01*
X98317255Y-32850654D01*
X98345763Y-32838435D01*
X98354991Y-32834030D01*
X98381764Y-32819235D01*
X98406579Y-32802328D01*
X98429437Y-32783309D01*
X98450337Y-32762177D01*
X98469279Y-32738933D01*
X98475158Y-32730716D01*
X98491095Y-32704097D01*
X98503734Y-32674799D01*
X98513077Y-32642822D01*
X98519122Y-32608167D01*
X98521641Y-32577240D01*
X98522053Y-32557792D01*
X98520829Y-32525366D01*
X98517158Y-32494860D01*
X98508457Y-32457170D01*
X98495405Y-32422892D01*
X98478003Y-32392026D01*
X98456250Y-32364572D01*
X98430147Y-32340529D01*
X98399693Y-32319898D01*
X98382834Y-32310862D01*
X98355913Y-32298553D01*
X98327356Y-32287455D01*
X98297163Y-32277567D01*
X98265334Y-32268890D01*
X98231870Y-32261424D01*
X98196770Y-32255169D01*
X98160034Y-32250124D01*
X98121662Y-32246290D01*
X98081655Y-32243667D01*
X98040012Y-32242255D01*
X98011341Y-32241986D01*
X97610538Y-32241986D01*
X96913714Y-32241986D01*
X96913714Y-31116515D01*
X97610538Y-31116515D01*
X97610538Y-31726145D01*
X97998885Y-31726145D01*
X98036136Y-31725430D01*
X98071777Y-31723285D01*
X98105808Y-31719711D01*
X98138229Y-31714707D01*
X98169040Y-31708274D01*
X98198241Y-31700410D01*
X98234671Y-31687702D01*
X98268240Y-31672452D01*
X98298945Y-31654661D01*
X98313225Y-31644812D01*
X98339500Y-31623265D01*
X98362272Y-31599291D01*
X98381541Y-31572890D01*
X98397306Y-31544062D01*
X98409567Y-31512806D01*
X98418326Y-31479124D01*
X98423581Y-31443014D01*
X98425333Y-31404477D01*
X98423512Y-31368195D01*
X98418051Y-31334455D01*
X98408949Y-31303257D01*
X98396207Y-31274601D01*
X98379823Y-31248486D01*
X98359799Y-31224913D01*
X98336134Y-31203881D01*
X98308829Y-31185391D01*
X98278134Y-31169248D01*
X98243936Y-31155258D01*
X98215989Y-31146177D01*
X98186071Y-31138307D01*
X98154182Y-31131649D01*
X98120323Y-31126200D01*
X98084493Y-31121963D01*
X98046692Y-31118936D01*
X98006921Y-31117120D01*
X97965179Y-31116515D01*
X97610538Y-31116515D01*
X96913714Y-31116515D01*
X96913714Y-30506884D01*
X98104397Y-30506884D01*
X98136892Y-30507206D01*
G37*
G36*
X101236431Y-30460419D02*
G01*
X101279619Y-30461707D01*
X101322412Y-30463854D01*
X101364810Y-30466859D01*
X101406814Y-30470723D01*
X101448422Y-30475446D01*
X101489635Y-30481027D01*
X101530453Y-30487467D01*
X101570876Y-30494766D01*
X101610904Y-30502923D01*
X101650537Y-30511939D01*
X101689776Y-30521814D01*
X101728619Y-30532547D01*
X101767067Y-30544139D01*
X101805120Y-30556590D01*
X101842778Y-30569899D01*
X101879916Y-30583910D01*
X101916406Y-30598647D01*
X101952250Y-30614112D01*
X101987447Y-30630303D01*
X102021996Y-30647222D01*
X102055899Y-30664868D01*
X102089156Y-30683240D01*
X102121765Y-30702340D01*
X102153727Y-30722166D01*
X102185043Y-30742720D01*
X102215712Y-30764001D01*
X102245733Y-30786008D01*
X102275108Y-30808743D01*
X102303836Y-30832204D01*
X102331918Y-30856393D01*
X102359352Y-30881309D01*
X102386183Y-30906926D01*
X102412269Y-30933218D01*
X102437611Y-30960186D01*
X102462209Y-30987829D01*
X102486063Y-31016148D01*
X102509172Y-31045142D01*
X102531538Y-31074812D01*
X102553159Y-31105157D01*
X102574036Y-31136178D01*
X102594169Y-31167874D01*
X102613557Y-31200246D01*
X102632202Y-31233293D01*
X102650102Y-31267016D01*
X102667258Y-31301414D01*
X102683670Y-31336488D01*
X102699338Y-31372237D01*
X102714156Y-31408507D01*
X102728018Y-31445326D01*
X102740923Y-31482696D01*
X102752873Y-31520614D01*
X102763867Y-31559083D01*
X102773905Y-31598100D01*
X102782987Y-31637668D01*
X102791112Y-31677785D01*
X102798282Y-31718451D01*
X102804496Y-31759667D01*
X102809754Y-31801433D01*
X102814056Y-31843748D01*
X102817402Y-31886612D01*
X102819792Y-31930026D01*
X102821226Y-31973990D01*
X102821704Y-32018503D01*
X102821226Y-32062504D01*
X102819792Y-32106030D01*
X102817402Y-32149081D01*
X102814056Y-32191656D01*
X102809754Y-32233757D01*
X102804496Y-32275382D01*
X102798282Y-32316532D01*
X102791112Y-32357207D01*
X102782987Y-32397407D01*
X102773905Y-32437132D01*
X102763867Y-32476381D01*
X102752873Y-32515156D01*
X102740923Y-32553455D01*
X102728018Y-32591280D01*
X102714156Y-32628629D01*
X102699338Y-32665503D01*
X102683670Y-32701721D01*
X102667258Y-32737287D01*
X102650102Y-32772201D01*
X102632202Y-32806461D01*
X102613557Y-32840070D01*
X102594169Y-32873025D01*
X102574036Y-32905328D01*
X102553159Y-32936979D01*
X102531538Y-32967976D01*
X102509172Y-32998322D01*
X102486063Y-33028014D01*
X102462209Y-33057054D01*
X102437611Y-33085442D01*
X102412269Y-33113177D01*
X102386183Y-33140259D01*
X102359352Y-33166689D01*
X102331918Y-33192332D01*
X102303836Y-33217236D01*
X102275108Y-33241402D01*
X102245733Y-33264829D01*
X102215712Y-33287518D01*
X102185043Y-33309468D01*
X102153727Y-33330680D01*
X102121765Y-33351153D01*
X102089156Y-33370888D01*
X102055899Y-33389885D01*
X102021996Y-33408143D01*
X101987447Y-33425663D01*
X101952250Y-33442444D01*
X101916406Y-33458487D01*
X101879916Y-33473791D01*
X101842778Y-33488357D01*
X101805120Y-33502110D01*
X101767067Y-33514975D01*
X101728619Y-33526954D01*
X101689776Y-33538045D01*
X101650537Y-33548249D01*
X101610904Y-33557565D01*
X101570876Y-33565995D01*
X101530453Y-33573537D01*
X101489635Y-33580191D01*
X101448422Y-33585959D01*
X101406814Y-33590839D01*
X101364810Y-33594831D01*
X101322412Y-33597937D01*
X101279619Y-33600155D01*
X101236431Y-33601486D01*
X101192848Y-33601930D01*
X101149271Y-33601486D01*
X101106100Y-33600155D01*
X101063336Y-33597937D01*
X101020978Y-33594831D01*
X100979026Y-33590839D01*
X100937481Y-33585959D01*
X100896342Y-33580191D01*
X100855610Y-33573537D01*
X100815284Y-33565995D01*
X100775365Y-33557565D01*
X100735852Y-33548249D01*
X100696745Y-33538045D01*
X100658045Y-33526954D01*
X100619751Y-33514975D01*
X100581864Y-33502110D01*
X100544383Y-33488357D01*
X100507509Y-33473791D01*
X100471259Y-33458487D01*
X100435633Y-33442444D01*
X100400631Y-33425663D01*
X100366253Y-33408143D01*
X100332499Y-33389885D01*
X100299369Y-33370888D01*
X100266863Y-33351153D01*
X100234980Y-33330680D01*
X100203722Y-33309468D01*
X100173088Y-33287518D01*
X100143077Y-33264829D01*
X100113691Y-33241402D01*
X100084928Y-33217236D01*
X100056790Y-33192332D01*
X100029275Y-33166689D01*
X100002534Y-33140259D01*
X99976530Y-33113177D01*
X99951265Y-33085442D01*
X99926739Y-33057054D01*
X99902951Y-33028014D01*
X99879902Y-32998322D01*
X99857591Y-32967976D01*
X99836018Y-32936979D01*
X99815184Y-32905328D01*
X99795088Y-32873025D01*
X99775731Y-32840070D01*
X99757112Y-32806461D01*
X99739232Y-32772201D01*
X99722090Y-32737287D01*
X99705687Y-32701721D01*
X99690022Y-32665503D01*
X99675204Y-32628629D01*
X99661343Y-32591280D01*
X99648437Y-32553455D01*
X99636487Y-32515156D01*
X99625493Y-32476381D01*
X99615455Y-32437132D01*
X99606374Y-32397407D01*
X99598248Y-32357207D01*
X99591078Y-32316532D01*
X99584864Y-32275382D01*
X99579606Y-32233757D01*
X99575304Y-32191656D01*
X99571958Y-32149081D01*
X99569568Y-32106030D01*
X99568134Y-32062504D01*
X99567696Y-32022167D01*
X100339952Y-32022167D01*
X100340506Y-32061582D01*
X100342168Y-32100417D01*
X100344937Y-32138673D01*
X100348814Y-32176349D01*
X100353798Y-32213446D01*
X100359890Y-32249963D01*
X100367090Y-32285900D01*
X100375398Y-32321258D01*
X100384813Y-32356036D01*
X100395336Y-32390234D01*
X100402967Y-32412711D01*
X100415338Y-32445658D01*
X100428547Y-32477730D01*
X100442592Y-32508925D01*
X100457475Y-32539244D01*
X100473195Y-32568688D01*
X100489752Y-32597256D01*
X100507147Y-32624948D01*
X100525378Y-32651764D01*
X100544447Y-32677704D01*
X100564353Y-32702769D01*
X100578089Y-32718992D01*
X100599496Y-32742421D01*
X100621675Y-32764896D01*
X100644627Y-32786419D01*
X100668352Y-32806988D01*
X100692850Y-32826604D01*
X100718120Y-32845267D01*
X100744164Y-32862977D01*
X100770980Y-32879734D01*
X100798569Y-32895538D01*
X100826930Y-32910389D01*
X100846268Y-32919759D01*
X100875834Y-32932723D01*
X100906005Y-32944412D01*
X100936782Y-32954825D01*
X100968164Y-32963964D01*
X101000151Y-32971827D01*
X101032744Y-32978415D01*
X101065942Y-32983728D01*
X101099746Y-32987766D01*
X101134155Y-32990529D01*
X101169169Y-32992016D01*
X101192848Y-32992300D01*
X101228135Y-32991662D01*
X101262830Y-32989749D01*
X101296931Y-32986562D01*
X101330441Y-32982099D01*
X101363358Y-32976361D01*
X101395682Y-32969347D01*
X101427414Y-32961059D01*
X101458554Y-32951496D01*
X101489101Y-32940657D01*
X101519056Y-32928544D01*
X101538696Y-32919759D01*
X101567586Y-32905544D01*
X101595729Y-32890376D01*
X101623124Y-32874254D01*
X101649773Y-32857180D01*
X101675675Y-32839152D01*
X101700829Y-32820171D01*
X101725237Y-32800237D01*
X101748898Y-32779350D01*
X101771811Y-32757510D01*
X101793978Y-32734717D01*
X101808340Y-32718992D01*
X101829322Y-32694511D01*
X101849402Y-32669155D01*
X101868580Y-32642923D01*
X101886857Y-32615815D01*
X101904232Y-32587831D01*
X101920705Y-32558971D01*
X101936277Y-32529235D01*
X101950948Y-32498624D01*
X101964716Y-32467136D01*
X101977583Y-32434773D01*
X101985661Y-32412711D01*
X101997053Y-32378899D01*
X102007325Y-32344507D01*
X102016476Y-32309536D01*
X102024507Y-32273985D01*
X102031417Y-32237855D01*
X102037206Y-32201145D01*
X102041875Y-32163855D01*
X102045424Y-32125985D01*
X102047852Y-32087537D01*
X102049159Y-32048508D01*
X102049408Y-32022167D01*
X102048848Y-31984349D01*
X102047167Y-31947008D01*
X102044365Y-31910143D01*
X102040443Y-31873755D01*
X102035401Y-31837844D01*
X102029238Y-31802409D01*
X102021954Y-31767450D01*
X102013550Y-31732968D01*
X102004025Y-31698963D01*
X101993380Y-31665434D01*
X101985661Y-31643346D01*
X101973414Y-31610687D01*
X101960304Y-31578929D01*
X101946331Y-31548073D01*
X101931496Y-31518118D01*
X101915797Y-31489066D01*
X101899236Y-31460914D01*
X101881811Y-31433664D01*
X101863524Y-31407316D01*
X101844373Y-31381870D01*
X101824360Y-31357325D01*
X101810538Y-31341462D01*
X101789243Y-31318302D01*
X101767124Y-31296082D01*
X101744181Y-31274802D01*
X101720413Y-31254462D01*
X101695821Y-31235063D01*
X101670404Y-31216604D01*
X101644163Y-31199085D01*
X101617098Y-31182506D01*
X101589209Y-31166867D01*
X101560495Y-31152169D01*
X101540894Y-31142893D01*
X101510942Y-31129798D01*
X101480436Y-31117991D01*
X101449376Y-31107473D01*
X101417762Y-31098242D01*
X101385594Y-31090299D01*
X101352872Y-31083645D01*
X101319597Y-31078278D01*
X101285767Y-31074199D01*
X101251384Y-31071409D01*
X101216447Y-31069906D01*
X101192848Y-31069620D01*
X101157430Y-31070264D01*
X101122618Y-31072196D01*
X101088411Y-31075416D01*
X101054809Y-31079924D01*
X101021813Y-31085720D01*
X100989422Y-31092804D01*
X100957636Y-31101176D01*
X100926456Y-31110836D01*
X100895881Y-31121784D01*
X100865911Y-31134020D01*
X100846268Y-31142893D01*
X100817371Y-31156964D01*
X100789209Y-31171976D01*
X100761781Y-31187928D01*
X100735088Y-31204820D01*
X100709128Y-31222652D01*
X100683902Y-31241425D01*
X100659411Y-31261138D01*
X100635654Y-31281791D01*
X100612631Y-31303384D01*
X100590342Y-31325917D01*
X100575891Y-31341462D01*
X100555053Y-31365406D01*
X100535130Y-31390252D01*
X100516121Y-31415999D01*
X100498027Y-31442647D01*
X100480847Y-31470198D01*
X100464582Y-31498650D01*
X100449231Y-31528003D01*
X100434795Y-31558258D01*
X100421273Y-31589415D01*
X100408666Y-31621473D01*
X100400769Y-31643346D01*
X100389900Y-31676557D01*
X100380101Y-31710245D01*
X100371370Y-31744409D01*
X100363709Y-31779050D01*
X100357116Y-31814167D01*
X100351593Y-31849761D01*
X100347139Y-31885832D01*
X100343753Y-31922379D01*
X100341437Y-31959402D01*
X100340190Y-31996902D01*
X100339952Y-32022167D01*
X99567696Y-32022167D01*
X99567656Y-32018503D01*
X99568134Y-31973990D01*
X99569568Y-31930026D01*
X99571958Y-31886612D01*
X99575304Y-31843748D01*
X99579606Y-31801433D01*
X99584864Y-31759667D01*
X99591078Y-31718451D01*
X99598248Y-31677785D01*
X99606374Y-31637668D01*
X99615455Y-31598100D01*
X99625493Y-31559083D01*
X99636487Y-31520614D01*
X99648437Y-31482696D01*
X99661343Y-31445326D01*
X99675204Y-31408507D01*
X99690022Y-31372237D01*
X99705687Y-31336488D01*
X99722090Y-31301414D01*
X99739232Y-31267016D01*
X99757112Y-31233293D01*
X99775731Y-31200246D01*
X99795088Y-31167874D01*
X99815184Y-31136178D01*
X99836018Y-31105157D01*
X99857591Y-31074812D01*
X99879902Y-31045142D01*
X99902951Y-31016148D01*
X99926739Y-30987829D01*
X99951265Y-30960186D01*
X99976530Y-30933218D01*
X100002534Y-30906926D01*
X100029275Y-30881309D01*
X100056790Y-30856393D01*
X100084928Y-30832204D01*
X100113691Y-30808743D01*
X100143077Y-30786008D01*
X100173088Y-30764001D01*
X100203722Y-30742720D01*
X100234980Y-30722166D01*
X100266863Y-30702340D01*
X100299369Y-30683240D01*
X100332499Y-30664868D01*
X100366253Y-30647222D01*
X100400631Y-30630303D01*
X100435633Y-30614112D01*
X100471259Y-30598647D01*
X100507509Y-30583910D01*
X100544383Y-30569899D01*
X100581864Y-30556590D01*
X100619751Y-30544139D01*
X100658045Y-30532547D01*
X100696745Y-30521814D01*
X100735852Y-30511939D01*
X100775365Y-30502923D01*
X100815284Y-30494766D01*
X100855610Y-30487467D01*
X100896342Y-30481027D01*
X100937481Y-30475446D01*
X100979026Y-30470723D01*
X101020978Y-30466859D01*
X101063336Y-30463854D01*
X101106100Y-30461707D01*
X101149271Y-30460419D01*
X101192848Y-30459990D01*
X101236431Y-30460419D01*
G37*
G36*
X103279659Y-33508141D02*
G01*
X103279659Y-30506884D01*
X104005793Y-30506884D01*
X104005793Y-33508141D01*
X103279659Y-33508141D01*
G37*
G36*
X107067866Y-33508141D02*
G01*
X106346128Y-33508141D01*
X105215528Y-30506884D01*
X106025926Y-30506884D01*
X106717621Y-32634728D01*
X106734474Y-32634728D01*
X107422506Y-30506884D01*
X108220448Y-30506884D01*
X107067866Y-33508141D01*
G37*
G36*
X109336393Y-33508141D02*
G01*
X109336393Y-31304093D01*
X108779520Y-31734205D01*
X108412423Y-31232286D01*
X109395744Y-30506884D01*
X110045674Y-30506884D01*
X110045674Y-33508141D01*
X109336393Y-33508141D01*
G37*
M02*
